<svg width="54" height="54" viewBox="0 0 54 54" fill="none" xmlns="http://www.w3.org/2000/svg">
<rect width="53.0747" height="53.0747" rx="26.5374" fill="#FCEDED"/>
<path d="M16.6016 26.1904C16.5182 26.415 16.5182 26.6619 16.6016 26.8864C17.4133 28.8546 18.7911 30.5374 20.5603 31.7215C22.3296 32.9057 24.4106 33.5378 26.5396 33.5378C28.6685 33.5378 30.7495 32.9057 32.5188 31.7215C34.2881 30.5374 35.6659 28.8546 36.4776 26.8864C36.5609 26.6619 36.5609 26.415 36.4776 26.1904C35.6659 24.2223 34.2881 22.5395 32.5188 21.3553C30.7495 20.1712 28.6685 19.5391 26.5396 19.5391C24.4106 19.5391 22.3296 20.1712 20.5603 21.3553C18.7911 22.5395 17.4133 24.2223 16.6016 26.1904Z" stroke="#C53637" stroke-width="1.45833" stroke-linecap="round" stroke-linejoin="round"/>
<path d="M26.5391 29.5391C28.1959 29.5391 29.5391 28.1959 29.5391 26.5391C29.5391 24.8822 28.1959 23.5391 26.5391 23.5391C24.8822 23.5391 23.5391 24.8822 23.5391 26.5391C23.5391 28.1959 24.8822 29.5391 26.5391 29.5391Z" stroke="#C53637" stroke-width="1.45833" stroke-linecap="round" stroke-linejoin="round"/>
</svg>
