<svg width="54" height="54" viewBox="0 0 54 54" fill="none" xmlns="http://www.w3.org/2000/svg">
<rect width="53.0747" height="53.0747" rx="26.5374" fill="#FCEDED"/>
<path d="M36.2675 32.5373L28.2675 18.5373C28.0931 18.2295 27.8401 17.9735 27.5345 17.7954C27.2288 17.6173 26.8813 17.5234 26.5275 17.5234C26.1737 17.5234 25.8263 17.6173 25.5206 17.7954C25.2149 17.9735 24.962 18.2295 24.7875 18.5373L16.7875 32.5373C16.6112 32.8427 16.5188 33.1892 16.5195 33.5418C16.5203 33.8944 16.6143 34.2406 16.792 34.5452C16.9696 34.8497 17.2247 35.1019 17.5312 35.2762C17.8378 35.4504 18.1849 35.5405 18.5375 35.5373H34.5375C34.8884 35.537 35.2331 35.4443 35.5368 35.2686C35.8406 35.0929 36.0927 34.8404 36.268 34.5364C36.4433 34.2325 36.5356 33.8877 36.5355 33.5368C36.5354 33.1859 36.443 32.8412 36.2675 32.5373Z" stroke="#C53637" stroke-width="1.45833" stroke-linecap="round" stroke-linejoin="round"/>
<path d="M26.5391 23.5391V27.5391" stroke="#C53637" stroke-width="1.45833" stroke-linecap="round" stroke-linejoin="round"/>
<path d="M26.5391 31.5391H26.5491" stroke="#C53637" stroke-width="1.45833" stroke-linecap="round" stroke-linejoin="round"/>
</svg>
