<svg width="20" height="20" viewBox="0 0 20 20" fill="none" xmlns="http://www.w3.org/2000/svg">
<path d="M13.332 8.33398H14.9987" stroke="white" stroke-width="1.54167" stroke-linecap="round" stroke-linejoin="round"/>
<path d="M13.332 11.666H14.9987" stroke="white" stroke-width="1.54167" stroke-linecap="round" stroke-linejoin="round"/>
<path d="M5.14062 12.5005C5.31241 12.0121 5.63154 11.5892 6.05397 11.29C6.4764 10.9908 6.9813 10.8301 7.49896 10.8301C8.01662 10.8301 8.52151 10.9908 8.94394 11.29C9.36637 11.5892 9.68551 12.0121 9.85729 12.5005" stroke="white" stroke-width="1.54167" stroke-linecap="round" stroke-linejoin="round"/>
<path d="M7.4987 10.8333C8.41917 10.8333 9.16536 10.0871 9.16536 9.16667C9.16536 8.24619 8.41917 7.5 7.4987 7.5C6.57822 7.5 5.83203 8.24619 5.83203 9.16667C5.83203 10.0871 6.57822 10.8333 7.4987 10.8333Z" stroke="white" stroke-width="1.54167" stroke-linecap="round" stroke-linejoin="round"/>
<path d="M16.668 4.16602H3.33464C2.41416 4.16602 1.66797 4.91221 1.66797 5.83268V14.166C1.66797 15.0865 2.41416 15.8327 3.33464 15.8327H16.668C17.5884 15.8327 18.3346 15.0865 18.3346 14.166V5.83268C18.3346 4.91221 17.5884 4.16602 16.668 4.16602Z" stroke="white" stroke-width="1.54167" stroke-linecap="round" stroke-linejoin="round"/>
</svg>
