<svg width="20" height="20" viewBox="0 0 20 20" fill="none" xmlns="http://www.w3.org/2000/svg">
<path d="M17.5013 14.166H12.5013C12.0411 14.166 11.668 14.5391 11.668 14.9993V17.4993C11.668 17.9596 12.0411 18.3327 12.5013 18.3327H17.5013C17.9615 18.3327 18.3346 17.9596 18.3346 17.4993V14.9993C18.3346 14.5391 17.9615 14.166 17.5013 14.166Z" stroke="#1D68F4" stroke-width="1.54167" stroke-linecap="round" stroke-linejoin="round"/>
<path d="M8.33464 16.6667H3.33464C2.89261 16.6667 2.46868 16.4912 2.15612 16.1786C1.84356 15.866 1.66797 15.4421 1.66797 15.0001V4.16675C1.66797 3.72472 1.84356 3.3008 2.15612 2.98824C2.46868 2.67567 2.89261 2.50008 3.33464 2.50008H6.58464C6.86337 2.49735 7.13835 2.56457 7.38438 2.6956C7.63042 2.82662 7.83967 3.01727 7.99297 3.25008L8.66797 4.25008C8.81973 4.48052 9.02632 4.66968 9.26922 4.80058C9.51212 4.93148 9.78371 5.00003 10.0596 5.00008H16.668C17.11 5.00008 17.5339 5.17567 17.8465 5.48824C18.159 5.8008 18.3346 6.22472 18.3346 6.66675V8.75008" stroke="#1D68F4" stroke-width="1.54167" stroke-linecap="round" stroke-linejoin="round"/>
<path d="M16.6654 14.1673V12.5007C16.6654 12.0586 16.4898 11.6347 16.1772 11.3221C15.8646 11.0096 15.4407 10.834 14.9987 10.834C14.5567 10.834 14.1327 11.0096 13.8202 11.3221C13.5076 11.6347 13.332 12.0586 13.332 12.5007V14.1673" stroke="#1D68F4" stroke-width="1.54167" stroke-linecap="round" stroke-linejoin="round"/>
</svg>
