<svg width="53" height="53" viewBox="0 0 53 53" fill="none" xmlns="http://www.w3.org/2000/svg">
<rect x="0.5" y="0.5" width="52" height="52" rx="26" fill="#2747B8"/>
<rect x="0.5" y="0.5" width="52" height="52" rx="26" stroke="#536BC9"/>
<path d="M26.5 22.5C31.4706 22.5 35.5 21.1569 35.5 19.5C35.5 17.8431 31.4706 16.5 26.5 16.5C21.5294 16.5 17.5 17.8431 17.5 19.5C17.5 21.1569 21.5294 22.5 26.5 22.5Z" stroke="#F9FCFF" stroke-width="1.66667" stroke-linecap="round" stroke-linejoin="round"/>
<path d="M17.5 19.5V33.5C17.5 34.2956 18.4482 35.0587 20.136 35.6213C21.8239 36.1839 24.1131 36.5 26.5 36.5C28.8869 36.5 31.1761 36.1839 32.864 35.6213C34.5518 35.0587 35.5 34.2956 35.5 33.5V19.5" stroke="#F9FCFF" stroke-width="1.66667" stroke-linecap="round" stroke-linejoin="round"/>
<path d="M17.5 26.5C17.5 27.2956 18.4482 28.0587 20.136 28.6213C21.8239 29.1839 24.1131 29.5 26.5 29.5C28.8869 29.5 31.1761 29.1839 32.864 28.6213C34.5518 28.0587 35.5 27.2956 35.5 26.5" stroke="#F9FCFF" stroke-width="1.66667" stroke-linecap="round" stroke-linejoin="round"/>
</svg>
