<svg width="53" height="53" viewBox="0 0 53 53" fill="none" xmlns="http://www.w3.org/2000/svg">
<rect x="0.5" y="0.5" width="52" height="52" rx="26" fill="#2747B8"/>
<rect x="0.5" y="0.5" width="52" height="52" rx="26" stroke="#536BC9"/>
<path d="M17.5 21.5V19.5C17.5 18.9696 17.7107 18.4609 18.0858 18.0858C18.4609 17.7107 18.9696 17.5 19.5 17.5H21.5" stroke="#F9FCFF" stroke-width="1.66667" stroke-linecap="round" stroke-linejoin="round"/>
<path d="M31.5 17.5H33.5C34.0304 17.5 34.5391 17.7107 34.9142 18.0858C35.2893 18.4609 35.5 18.9696 35.5 19.5V21.5" stroke="#F9FCFF" stroke-width="1.66667" stroke-linecap="round" stroke-linejoin="round"/>
<path d="M35.5 31.5V33.5C35.5 34.0304 35.2893 34.5391 34.9142 34.9142C34.5391 35.2893 34.0304 35.5 33.5 35.5H31.5" stroke="#F9FCFF" stroke-width="1.66667" stroke-linecap="round" stroke-linejoin="round"/>
<path d="M21.5 35.5H19.5C18.9696 35.5 18.4609 35.2893 18.0858 34.9142C17.7107 34.5391 17.5 34.0304 17.5 33.5V31.5" stroke="#F9FCFF" stroke-width="1.66667" stroke-linecap="round" stroke-linejoin="round"/>
<path d="M22.5 28.5C22.5 28.5 24 30.5 26.5 30.5C29 30.5 30.5 28.5 30.5 28.5" stroke="#F9FCFF" stroke-width="1.66667" stroke-linecap="round" stroke-linejoin="round"/>
<path d="M23.5 23.5H23.51" stroke="#F9FCFF" stroke-width="1.66667" stroke-linecap="round" stroke-linejoin="round"/>
<path d="M29.5 23.5H29.51" stroke="#F9FCFF" stroke-width="1.66667" stroke-linecap="round" stroke-linejoin="round"/>
</svg>
