<svg width="54" height="54" viewBox="0 0 54 54" fill="none" xmlns="http://www.w3.org/2000/svg">
<rect width="53.0747" height="53.0747" rx="26.5374" fill="#FCEDED"/>
<path fill-rule="evenodd" clip-rule="evenodd" d="M16.1451 20.6202C16.6527 20.4026 17.2406 20.6378 17.4582 21.1454L16.539 21.5393C17.4582 21.1454 17.4583 21.1457 17.4582 21.1454L17.4576 21.1442C17.4574 21.1436 17.4576 21.144 17.4576 21.1442L17.4616 21.1531C17.4656 21.1621 17.4725 21.1774 17.4822 21.1986C17.5018 21.241 17.533 21.3069 17.576 21.3929C17.6621 21.565 17.795 21.8168 17.9764 22.1216C18.3404 22.7331 18.8935 23.5476 19.6468 24.3589C19.8244 24.5501 20.0123 24.7404 20.2108 24.9274C20.2191 24.9349 20.2273 24.9426 20.2354 24.9505C21.7201 26.3407 23.7913 27.5393 26.539 27.5393C27.748 27.5393 28.8174 27.3085 29.7599 26.9375C30.986 26.4549 32.0136 25.7284 32.8546 24.939C33.8043 24.0477 34.5018 23.0894 34.9623 22.3503C35.1916 21.9822 35.3597 21.6725 35.4689 21.4584C35.5235 21.3515 35.5631 21.2687 35.5882 21.2149C35.6007 21.188 35.6096 21.1684 35.6149 21.1566L35.6199 21.1454C35.8376 20.638 36.4254 20.4027 36.9329 20.6202C37.4406 20.8377 37.6757 21.4256 37.4582 21.9332L36.539 21.5393C37.4582 21.9332 37.4583 21.933 37.4582 21.9332L37.456 21.9383L37.4524 21.9465L37.441 21.9723C37.4315 21.9937 37.4181 22.0231 37.4009 22.06C37.3664 22.1339 37.3165 22.2379 37.2506 22.3671C37.1189 22.6252 36.923 22.9854 36.6597 23.408C36.2571 24.0541 35.6911 24.8555 34.9487 25.6636L35.7461 26.4611C36.1366 26.8516 36.1366 27.4847 35.7461 27.8753C35.3556 28.2658 34.7224 28.2658 34.3319 27.8753L33.4917 27.0351C32.9275 27.4908 32.296 27.9207 31.5948 28.2915L32.3772 29.4939C32.6784 29.9568 32.5473 30.5763 32.0844 30.8775C31.6215 31.1787 31.002 31.0476 30.7008 30.5847L29.7154 29.0702C29.0364 29.2783 28.311 29.4258 27.539 29.495V31.0393C27.539 31.5916 27.0913 32.0393 26.539 32.0393C25.9867 32.0393 25.539 31.5916 25.539 31.0393V29.4951C24.7644 29.4259 24.0392 29.2781 23.3624 29.0706L22.3772 30.5847C22.076 31.0476 21.4565 31.1787 20.9936 30.8775C20.5307 30.5763 20.3996 29.9569 20.7008 29.4939L21.4832 28.2915C20.7831 27.9209 20.1515 27.4911 19.5865 27.0349L18.7461 27.8753C18.3556 28.2658 17.7224 28.2658 17.3319 27.8753C16.9414 27.4847 16.9414 26.8516 17.3319 26.4611L18.1294 25.6636C17.2844 24.7439 16.6668 23.8316 16.2578 23.1446C16.0487 22.7931 15.8925 22.498 15.7872 22.2873C15.7345 22.1819 15.6944 22.0974 15.6666 22.0373C15.6527 22.0072 15.6419 21.9832 15.6341 21.9657L15.6247 21.9444L15.6217 21.9376L15.6207 21.9351L15.6202 21.9341C15.62 21.9336 15.6199 21.9332 16.539 21.5393L15.6202 21.9341C15.4027 21.4264 15.6375 20.8377 16.1451 20.6202Z" fill="#DC2828"/>
</svg>
