<svg width="54" height="54" viewBox="0 0 54 54" fill="none" xmlns="http://www.w3.org/2000/svg">
<rect width="53.0747" height="53.0747" rx="26.5374" fill="#FCEDED"/>
<path d="M32.5391 24.5391H27.5391" stroke="#DC2828" stroke-width="1.5" stroke-linecap="round"/>
<path d="M24.5391 17.5391H31.0391C31.5035 17.5391 31.7357 17.5391 31.9306 17.5647C33.2768 17.742 34.3362 18.8013 34.5134 20.1475C34.5391 20.3424 34.5391 20.5746 34.5391 21.0391" stroke="#DC2828" stroke-width="1.5"/>
<path d="M16.5391 21.4888C16.5391 20.6063 16.5391 20.165 16.6084 19.7974C16.9137 18.1794 18.1794 16.9137 19.7974 16.6084C20.165 16.5391 20.6063 16.5391 21.4888 16.5391C21.8755 16.5391 22.0688 16.5391 22.2546 16.5564C23.0557 16.6313 23.8156 16.9461 24.435 17.4596C24.5787 17.5787 24.7154 17.7154 24.9888 17.9888L25.5391 18.5391C26.3548 19.3548 26.7627 19.7627 27.2512 20.0345C27.5195 20.1838 27.8041 20.3017 28.0994 20.3858C28.637 20.5391 29.2138 20.5391 30.3675 20.5391H30.7412C33.3735 20.5391 34.6897 20.5391 35.5452 21.3085C35.6239 21.3793 35.6988 21.4542 35.7696 21.5329C36.5391 22.3884 36.5391 23.7046 36.5391 26.337V28.5391C36.5391 32.3103 36.5391 34.1959 35.3675 35.3675C34.1959 36.5391 32.3103 36.5391 28.5391 36.5391H24.5391C20.7678 36.5391 18.8822 36.5391 17.7106 35.3675C16.5391 34.1959 16.5391 32.3103 16.5391 28.5391V21.4888Z" stroke="#DC2828" stroke-width="1.5"/>
</svg>
