<svg width="54" height="54" viewBox="0 0 54 54" fill="none" xmlns="http://www.w3.org/2000/svg">
<rect width="53.0747" height="53.0747" rx="26.5374" fill="#FCEDED"/>
<path d="M23.5391 19.5371C23.5391 20.3328 23.223 21.0958 22.6604 21.6584C22.0978 22.221 21.3347 22.5371 20.5391 22.5371C19.7434 22.5371 18.9804 22.221 18.4177 21.6584C17.8551 21.0958 17.5391 20.3328 17.5391 19.5371C17.5391 18.7415 17.8551 17.9784 18.4177 17.4158C18.9804 16.8532 19.7434 16.5371 20.5391 16.5371C21.3347 16.5371 22.0978 16.8532 22.6604 17.4158C23.223 17.9784 23.5391 18.7415 23.5391 19.5371ZM35.5391 19.5371C35.5391 20.3328 35.223 21.0958 34.6604 21.6584C34.0978 22.221 33.3347 22.5371 32.5391 22.5371C31.7434 22.5371 30.9804 22.221 30.4177 21.6584C29.8551 21.0958 29.5391 20.3328 29.5391 19.5371C29.5391 18.7415 29.8551 17.9784 30.4177 17.4158C30.9804 16.8532 31.7434 16.5371 32.5391 16.5371C33.3347 16.5371 34.0978 16.8532 34.6604 17.4158C35.223 17.9784 35.5391 18.7415 35.5391 19.5371ZM23.5391 33.5371C23.5391 34.3328 23.223 35.0958 22.6604 35.6584C22.0978 36.221 21.3347 36.5371 20.5391 36.5371C19.7434 36.5371 18.9804 36.221 18.4177 35.6584C17.8551 35.0958 17.5391 34.3328 17.5391 33.5371C17.5391 32.7415 17.8551 31.9784 18.4177 31.4158C18.9804 30.8532 19.7434 30.5371 20.5391 30.5371C21.3347 30.5371 22.0978 30.8532 22.6604 31.4158C23.223 31.9784 23.5391 32.7415 23.5391 33.5371Z" stroke="#DC2828" stroke-width="1.5"/>
<path d="M20.5391 22.5371V30.5371M20.5391 26.5371H28.5391C29.9391 26.5371 30.6391 26.5371 31.1741 26.2641C31.6442 26.0245 32.0264 25.6422 32.2661 25.1721C32.5391 24.6371 32.5391 23.9371 32.5391 22.5371" stroke="#DC2828" stroke-width="1.5" stroke-linecap="round" stroke-linejoin="round"/>
</svg>
