<svg width="54" height="54" viewBox="0 0 54 54" fill="none" xmlns="http://www.w3.org/2000/svg">
<rect width="53.0747" height="53.0747" rx="26.5374" fill="#FCEDED"/>
<path d="M17.5391 24.9538C17.5391 21.7562 17.5391 20.1574 17.9166 19.6195C18.2941 19.0816 19.7974 18.5671 22.804 17.5379L23.3768 17.3418C24.944 16.8053 25.7277 16.5371 26.5391 16.5371C27.3505 16.5371 28.1341 16.8053 29.7013 17.3418L30.2742 17.5379C33.2807 18.5671 34.784 19.0816 35.1615 19.6195C35.5391 20.1574 35.5391 21.7562 35.5391 24.9538C35.5391 25.4368 35.5391 25.9605 35.5391 26.5285C35.5391 32.1665 31.3001 34.9026 28.6405 36.0644C27.919 36.3795 27.5583 36.5371 26.5391 36.5371C25.5198 36.5371 25.1591 36.3795 24.4376 36.0644C21.778 34.9026 17.5391 32.1665 17.5391 26.5285C17.5391 25.9605 17.5391 25.4368 17.5391 24.9538Z" stroke="#DC2828" stroke-width="1.5"/>
<path d="M24.0391 26.9371L25.4676 28.5371L29.0391 24.5371" stroke="#DC2828" stroke-width="1.5" stroke-linecap="round" stroke-linejoin="round"/>
</svg>
