<svg width="26" height="26" viewBox="0 0 26 26" fill="none" xmlns="http://www.w3.org/2000/svg">
<path d="M4.1708 9.33836C4.01268 8.62609 4.03696 7.88544 4.24139 7.18506C4.44581 6.48468 4.82377 5.84726 5.34022 5.33189C5.85667 4.81652 6.49488 4.4399 7.19569 4.23694C7.89649 4.03397 8.6372 4.01124 9.34913 4.17086C9.74098 3.55802 10.2808 3.05368 10.9188 2.70433C11.5569 2.35499 12.2726 2.17187 13 2.17188C13.7274 2.17187 14.4431 2.35499 15.0811 2.70433C15.7191 3.05368 16.2589 3.55802 16.6508 4.17086C17.3638 4.01055 18.1058 4.03318 18.8077 4.23663C19.5096 4.44009 20.1487 4.81776 20.6655 5.33452C21.1822 5.85129 21.5599 6.49035 21.7634 7.19228C21.9668 7.8942 21.9894 8.63618 21.8291 9.34919C22.442 9.74104 22.9463 10.2809 23.2957 10.9189C23.645 11.5569 23.8281 12.2726 23.8281 13C23.8281 13.7274 23.645 14.4431 23.2957 15.0812C22.9463 15.7192 22.442 16.259 21.8291 16.6509C21.9887 17.3628 21.966 18.1035 21.7631 18.8043C21.5601 19.5051 21.1835 20.1433 20.6681 20.6598C20.1527 21.1762 19.5153 21.5542 18.8149 21.7586C18.1146 21.963 17.3739 21.9873 16.6616 21.8292C16.2703 22.4444 15.73 22.9509 15.0909 23.3018C14.4518 23.6527 13.7345 23.8367 13.0054 23.8367C12.2763 23.8367 11.5589 23.6527 10.9198 23.3018C10.2807 22.9509 9.74047 22.4444 9.34913 21.8292C8.6372 21.9888 7.89649 21.9661 7.19569 21.7631C6.49488 21.5602 5.85667 21.1835 5.34022 20.6682C4.82377 20.1528 4.44581 19.5154 4.24139 18.815C4.03696 18.1146 4.01268 17.374 4.1708 16.6617C3.55325 16.2709 3.04458 15.7302 2.6921 15.09C2.33962 14.4498 2.15479 13.7308 2.15479 13C2.15479 12.2692 2.33962 11.5502 2.6921 10.91C3.04458 10.2698 3.55325 9.72918 4.1708 9.33836Z" stroke="#1A9948" stroke-width="2" stroke-linecap="round" stroke-linejoin="round"/>
<path d="M17.3332 8.66675H10.8332C10.2585 8.66675 9.70744 8.89502 9.30111 9.30135C8.89478 9.70768 8.6665 10.2588 8.6665 10.8334C8.6665 11.4081 8.89478 11.9592 9.30111 12.3655C9.70744 12.7718 10.2585 13.0001 10.8332 13.0001H15.1665C15.7411 13.0001 16.2922 13.2284 16.6986 13.6347C17.1049 14.041 17.3332 14.5921 17.3332 15.1667C17.3332 15.7414 17.1049 16.2925 16.6986 16.6988C16.2922 17.1051 15.7411 17.3334 15.1665 17.3334H8.6665" stroke="#1A9948" stroke-width="2" stroke-linecap="round" stroke-linejoin="round"/>
<path d="M13 19.5V6.5" stroke="#1A9948" stroke-width="2" stroke-linecap="round" stroke-linejoin="round"/>
</svg>
