<svg width="26" height="26" viewBox="0 0 26 26" fill="none" xmlns="http://www.w3.org/2000/svg">
<path d="M21.6665 7.5835H11.9165" stroke="#1D4FD7" stroke-width="2.33333" stroke-linecap="round" stroke-linejoin="round"/>
<path d="M15.1665 18.4165H5.4165" stroke="#1D4FD7" stroke-width="2.33333" stroke-linecap="round" stroke-linejoin="round"/>
<path d="M18.4165 21.6665C20.2114 21.6665 21.6665 20.2114 21.6665 18.4165C21.6665 16.6216 20.2114 15.1665 18.4165 15.1665C16.6216 15.1665 15.1665 16.6216 15.1665 18.4165C15.1665 20.2114 16.6216 21.6665 18.4165 21.6665Z" stroke="#1D4FD7" stroke-width="2.33333" stroke-linecap="round" stroke-linejoin="round"/>
<path d="M7.5835 10.8335C9.37842 10.8335 10.8335 9.37842 10.8335 7.5835C10.8335 5.78857 9.37842 4.3335 7.5835 4.3335C5.78857 4.3335 4.3335 5.78857 4.3335 7.5835C4.3335 9.37842 5.78857 10.8335 7.5835 10.8335Z" stroke="#1D4FD7" stroke-width="2.33333" stroke-linecap="round" stroke-linejoin="round"/>
</svg>
