<svg width="26" height="26" viewBox="0 0 26 26" fill="none" xmlns="http://www.w3.org/2000/svg">
<path d="M16.6723 4.75577C16.8084 4.89208 16.9785 4.98961 17.1649 5.0383C17.3514 5.08699 17.5474 5.08507 17.7329 5.03275C17.9183 4.98043 18.0864 4.87959 18.2199 4.74064C18.3534 4.60169 18.4474 4.42966 18.4923 4.24227C18.6047 3.77416 18.8399 3.34448 19.1737 2.99749C19.5074 2.6505 19.9276 2.39874 20.3909 2.26813C20.8543 2.13753 21.3441 2.13279 21.8099 2.25443C22.2757 2.37606 22.7007 2.61966 23.0411 2.96013C23.3814 3.30061 23.6249 3.72566 23.7464 4.19151C23.8679 4.65736 23.863 5.14718 23.7322 5.61051C23.6014 6.07384 23.3495 6.49394 23.0024 6.82755C22.6553 7.16116 22.2256 7.39622 21.7574 7.50852C21.57 7.55336 21.398 7.64738 21.2591 7.78087C21.1201 7.91435 21.0193 8.08249 20.967 8.26793C20.9146 8.45337 20.9127 8.64941 20.9614 8.83584C21.0101 9.02227 21.1076 9.19234 21.2439 9.32852L23.0672 11.1507C23.31 11.3935 23.5027 11.6818 23.6341 11.9991C23.7656 12.3164 23.8332 12.6565 23.8332 12.9999C23.8332 13.3434 23.7656 13.6835 23.6341 14.0007C23.5027 14.318 23.31 14.6063 23.0672 14.8492L21.2439 16.6724C21.1078 16.8087 20.9377 16.9063 20.7513 16.955C20.5648 17.0037 20.3688 17.0017 20.1833 16.9494C19.9979 16.8971 19.8298 16.7963 19.6963 16.6573C19.5628 16.5184 19.4688 16.3463 19.4239 16.1589C19.3115 15.6908 19.0763 15.2611 18.7426 14.9142C18.4088 14.5672 17.9886 14.3154 17.5253 14.1848C17.0619 14.0542 16.5721 14.0495 16.1063 14.1711C15.6405 14.2927 15.2155 14.5363 14.8751 14.8768C14.5348 15.2173 14.2913 15.6423 14.1698 16.1082C14.0484 16.574 14.0532 17.0638 14.184 17.5272C14.3148 17.9905 14.5667 18.4106 14.9138 18.7442C15.2609 19.0778 15.6906 19.3129 16.1588 19.4252C16.3462 19.47 16.5182 19.564 16.6571 19.6975C16.7961 19.831 16.8969 19.9992 16.9493 20.1846C17.0016 20.37 17.0035 20.5661 16.9548 20.7525C16.9061 20.9389 16.8086 21.109 16.6723 21.2452L14.849 23.0673C14.6062 23.3102 14.3179 23.5028 14.0006 23.6343C13.6833 23.7657 13.3432 23.8334 12.9998 23.8334C12.6563 23.8334 12.3163 23.7657 11.999 23.6343C11.6817 23.5028 11.3934 23.3102 11.1505 23.0673L9.32727 21.2441C9.19109 21.1078 9.02102 21.0103 8.83459 20.9616C8.64816 20.9129 8.45212 20.9148 8.26668 20.9671C8.08124 21.0194 7.91311 21.1203 7.77962 21.2592C7.64613 21.3982 7.55212 21.5702 7.50727 21.7576C7.39482 22.2257 7.15962 22.6554 6.82589 23.0024C6.49217 23.3494 6.07198 23.6011 5.60861 23.7317C5.14523 23.8623 4.65542 23.8671 4.18961 23.7454C3.7238 23.6238 3.29883 23.3802 2.95846 23.0397C2.6181 22.6993 2.37464 22.2742 2.25316 21.8084C2.13169 21.3425 2.13658 20.8527 2.26734 20.3894C2.3981 19.926 2.65 19.5059 2.9971 19.1723C3.3442 18.8387 3.77396 18.6037 4.2421 18.4914C4.42949 18.4465 4.60153 18.3525 4.74048 18.219C4.87943 18.0855 4.98027 17.9174 5.03259 17.7319C5.08491 17.5465 5.08682 17.3505 5.03814 17.164C4.98945 16.9776 4.89192 16.8075 4.7556 16.6714L2.93235 14.8492C2.6895 14.6063 2.49686 14.318 2.36542 14.0007C2.23399 13.6835 2.16634 13.3434 2.16634 12.9999C2.16634 12.6565 2.23399 12.3164 2.36542 11.9991C2.49686 11.6818 2.6895 11.3935 2.93235 11.1507L4.7556 9.32743C4.89178 9.19112 5.06185 9.09359 5.24828 9.0449C5.43471 8.99621 5.63075 8.99813 5.81619 9.05045C6.00164 9.10277 6.16977 9.20361 6.30326 9.34256C6.43674 9.48151 6.53076 9.65354 6.5756 9.84093C6.68806 10.309 6.92326 10.7387 7.25698 11.0857C7.59071 11.4327 8.01089 11.6845 8.47427 11.8151C8.93764 11.9457 9.42746 11.9504 9.89327 11.8288C10.3591 11.7071 10.784 11.4635 11.1244 11.1231C11.4648 10.7826 11.7082 10.3575 11.8297 9.89169C11.9512 9.42584 11.9463 8.93602 11.8155 8.47269C11.6848 8.00936 11.4329 7.58926 11.0858 7.25565C10.7387 6.92204 10.3089 6.68698 9.84077 6.57468C9.65338 6.52984 9.48134 6.43582 9.34239 6.30233C9.20344 6.16885 9.10261 6.00071 9.05029 5.81527C8.99797 5.62983 8.99605 5.43379 9.04474 5.24736C9.09343 5.06093 9.19096 4.89086 9.32727 4.75468L11.1505 2.93252C11.3934 2.68966 11.6817 2.49702 11.999 2.36558C12.3163 2.23415 12.6563 2.1665 12.9998 2.1665C13.3432 2.1665 13.6833 2.23415 14.0006 2.36558C14.3179 2.49702 14.6062 2.68966 14.849 2.93252L16.6723 4.75577Z" stroke="#1D4FD7" stroke-width="2.33333" stroke-linecap="round" stroke-linejoin="round"/>
</svg>
