<svg width="54" height="54" viewBox="0 0 54 54" fill="none" xmlns="http://www.w3.org/2000/svg">
<rect width="53.0747" height="53.0747" rx="26.5374" fill="#E3F3FF"/>
<path d="M30.5391 16.5391V22.5391H36.5391" stroke="#135AE4" stroke-width="1.66667" stroke-linecap="round" stroke-linejoin="round"/>
<path d="M36.5391 16.5391L30.5391 22.5391" stroke="#135AE4" stroke-width="1.66667" stroke-linecap="round" stroke-linejoin="round"/>
<path d="M28.3711 31.1071C28.5776 31.2019 28.8103 31.2236 29.0308 31.1685C29.2512 31.1134 29.4464 30.9849 29.5841 30.8041L29.9391 30.3391C30.1254 30.0907 30.3669 29.8891 30.6446 29.7502C30.9223 29.6114 31.2286 29.5391 31.5391 29.5391H34.5391C35.0695 29.5391 35.5782 29.7498 35.9533 30.1248C36.3283 30.4999 36.5391 31.0086 36.5391 31.5391V34.5391C36.5391 35.0695 36.3283 35.5782 35.9533 35.9533C35.5782 36.3283 35.0695 36.5391 34.5391 36.5391C29.7652 36.5391 25.1868 34.6426 21.8111 31.267C18.4355 27.8913 16.5391 23.313 16.5391 18.5391C16.5391 18.0086 16.7498 17.4999 17.1248 17.1248C17.4999 16.7498 18.0086 16.5391 18.5391 16.5391H21.5391C22.0695 16.5391 22.5782 16.7498 22.9533 17.1248C23.3283 17.4999 23.5391 18.0086 23.5391 18.5391V21.5391C23.5391 21.8496 23.4668 22.1558 23.3279 22.4335C23.1891 22.7112 22.9875 22.9528 22.7391 23.1391L22.2711 23.4901C22.0875 23.6302 21.9581 23.8296 21.9049 24.0544C21.8516 24.2792 21.8778 24.5154 21.9791 24.7231C23.3457 27.4989 25.5935 29.7439 28.3711 31.1071Z" stroke="#135AE4" stroke-width="1.66667" stroke-linecap="round" stroke-linejoin="round"/>
</svg>
