<svg width="14" height="14" viewBox="0 0 14 14" fill="none" xmlns="http://www.w3.org/2000/svg">
<path d="M7.0013 12.8346C10.223 12.8346 12.8346 10.223 12.8346 7.0013C12.8346 3.77964 10.223 1.16797 7.0013 1.16797C3.77964 1.16797 1.16797 3.77964 1.16797 7.0013C1.16797 10.223 3.77964 12.8346 7.0013 12.8346Z" stroke="#135AE4" stroke-width="1.16667" stroke-linecap="round" stroke-linejoin="round"/>
<path d="M5.30078 5.25131C5.43793 4.86145 5.70862 4.5327 6.06492 4.3233C6.42122 4.1139 6.84014 4.03736 7.24747 4.10722C7.6548 4.17709 8.02426 4.38886 8.29041 4.70503C8.55656 5.0212 8.70223 5.42136 8.70161 5.83464C8.70161 7.00131 6.95161 7.58464 6.95161 7.58464" stroke="#135AE4" stroke-width="1.16667" stroke-linecap="round" stroke-linejoin="round"/>
<path d="M7 9.91797H7.00583" stroke="#135AE4" stroke-width="1.16667" stroke-linecap="round" stroke-linejoin="round"/>
</svg>
