<svg width="54" height="54" viewBox="0 0 54 54" fill="none" xmlns="http://www.w3.org/2000/svg">
<rect width="53.0747" height="53.0747" rx="26.5374" fill="#E3F3FF"/>
<path d="M26.5391 29.5391V34.5391C26.5391 34.5391 29.5691 33.9891 30.5391 32.5391C31.6191 30.9191 30.5391 27.5391 30.5391 27.5391" stroke="#135AE4" stroke-width="1.66667" stroke-linecap="round" stroke-linejoin="round"/>
<path d="M17.0391 36.0404C17.0391 36.0404 17.5391 32.3004 19.0391 31.0404C19.4499 30.6941 19.9742 30.5118 20.5113 30.5284C21.0484 30.545 21.5604 30.7594 21.9491 31.1304C22.7391 31.9104 22.7491 33.2004 22.0391 34.0404C20.7791 35.5404 17.0391 36.0404 17.0391 36.0404Z" stroke="#135AE4" stroke-width="1.66667" stroke-linecap="round" stroke-linejoin="round"/>
<path d="M23.5391 26.5393C24.0712 25.1587 24.7413 23.8354 25.5391 22.5893C26.7042 20.7263 28.3267 19.1924 30.2521 18.1334C32.1774 17.0744 34.3417 16.5257 36.5391 16.5393C36.5391 19.2593 35.7591 24.0393 30.5391 27.5393C29.2758 28.3377 27.9358 29.0077 26.5391 29.5393L23.5391 26.5393Z" stroke="#135AE4" stroke-width="1.66667" stroke-linecap="round" stroke-linejoin="round"/>
<path d="M23.5391 26.5377H18.5391C18.5391 26.5377 19.0891 23.5077 20.5391 22.5377C22.1591 21.4577 25.5391 22.5877 25.5391 22.5877" stroke="#135AE4" stroke-width="1.66667" stroke-linecap="round" stroke-linejoin="round"/>
</svg>
