<svg width="54" height="54" viewBox="0 0 54 54" fill="none" xmlns="http://www.w3.org/2000/svg">
<rect width="53.0747" height="53.0747" rx="26.5374" fill="#E3F3FF"/>
<path d="M18.3883 23.1582C18.2423 22.5007 18.2647 21.817 18.4534 21.1705C18.6421 20.524 18.991 19.9356 19.4677 19.4599C19.9445 18.9842 20.5336 18.6365 21.1805 18.4492C21.8274 18.2618 22.5111 18.2408 23.1683 18.3882C23.53 17.8225 24.0283 17.3569 24.6172 17.0345C25.2062 16.712 25.8668 16.543 26.5383 16.543C27.2097 16.543 27.8704 16.712 28.4593 17.0345C29.0483 17.3569 29.5466 17.8225 29.9083 18.3882C30.5664 18.2402 31.2513 18.2611 31.8993 18.4489C32.5472 18.6367 33.1371 18.9853 33.6141 19.4623C34.0911 19.9393 34.4398 20.5293 34.6276 21.1772C34.8154 21.8251 34.8363 22.51 34.6883 23.1682C35.254 23.5299 35.7195 24.0282 36.042 24.6171C36.3645 25.2061 36.5335 25.8667 36.5335 26.5382C36.5335 27.2096 36.3645 27.8703 36.042 28.4592C35.7195 29.0482 35.254 29.5465 34.6883 29.9082C34.8356 30.5653 34.8146 31.2491 34.6273 31.896C34.4399 32.5429 34.0923 33.132 33.6166 33.6087C33.1408 34.0854 32.5524 34.4343 31.9059 34.623C31.2594 34.8117 30.5758 34.8341 29.9183 34.6882C29.557 35.256 29.0584 35.7236 28.4684 36.0475C27.8785 36.3714 27.2163 36.5412 26.5433 36.5412C25.8703 36.5412 25.2081 36.3714 24.6182 36.0475C24.0282 35.7236 23.5295 35.256 23.1683 34.6882C22.5111 34.8355 21.8274 34.8145 21.1805 34.6272C20.5336 34.4398 19.9445 34.0922 19.4677 33.6165C18.991 33.1407 18.6421 32.5523 18.4534 31.9058C18.2647 31.2593 18.2423 30.5757 18.3883 29.9182C17.8182 29.5574 17.3487 29.0584 17.0233 28.4674C16.698 27.8764 16.5273 27.2128 16.5273 26.5382C16.5273 25.8636 16.698 25.1999 17.0233 24.609C17.3487 24.018 17.8182 23.5189 18.3883 23.1582Z" stroke="#135AE4" stroke-width="1.66667" stroke-linecap="round" stroke-linejoin="round"/>
<path d="M23.5391 26.5391L25.5391 28.5391L29.5391 24.5391" stroke="#135AE4" stroke-width="1.66667" stroke-linecap="round" stroke-linejoin="round"/>
</svg>
