<svg width="327" height="125" viewBox="0 0 327 125" preserveAspectRatio="none" fill="none" xmlns="http://www.w3.org/2000/svg">
<path d="M83.571 113.279C69.6863 108.788 55.7918 104.517 42.4507 98.8552C31.1899 94.0718 20.3083 88.7201 11.4106 80.5477C-3.02797 67.2901 -3.85058 50.3595 9.43322 36.5071C17.9455 27.6183 28.9727 22.0107 40.7888 17.6047C66.3989 8.03764 93.4227 3.72881 120.965 1.50446C145.439 -0.473609 169.939 -0.452573 194.534 1.28258C223.016 3.29895 250.996 7.58716 278.095 16.3499C292.353 20.9614 306.017 26.7263 317.022 36.6438C329.684 48.0617 329.997 60.9359 317.861 72.3606C308.979 80.7212 297.764 85.901 286.097 90.229C252.951 102.539 218.205 109.653 182.775 114.409C165.835 116.679 148.738 117.603 131.607 118.103C130.59 118.127 129.537 117.996 128.519 118.534C136.977 120.088 145.359 121.635 153.726 123.192C154.558 123.347 155.982 123.108 155.893 124.231C155.799 125.4 154.426 124.886 153.608 124.849C138.76 123.995 124.128 121.668 109.603 118.664C107.528 118.23 105.483 118.266 103.397 118.192C91.3448 117.753 79.3081 117.163 67.3039 116.004C66.2109 115.892 64.2662 116.324 64.4332 114.566C64.5751 113.18 66.2426 113.701 67.3371 113.672C72.7584 113.527 78.1786 113.393 83.6126 113.249L83.571 113.279ZM205.96 6.58488C199.094 6.16234 192.068 5.41989 184.995 5.02274C166.326 3.98749 147.703 4.0077 129.119 5.28102C100.021 7.2645 71.4974 11.5482 44.4498 21.6102C32.8476 25.9331 21.9572 31.3328 13.5091 39.9713C2.56588 51.1563 2.58264 63.79 13.4185 75.3596C18.1874 80.4592 24.0721 84.3187 30.3114 87.7242C47.888 97.2986 66.826 103.86 86.2671 109.271C93.1594 111.19 100.003 113.455 107.343 113.261C113.01 113.105 118.683 112.881 124.356 112.784C167.57 112.024 209.854 106.171 251.235 95.5917C269.13 91.014 286.825 85.8788 302.84 77.0924C308.486 73.9929 313.65 70.3419 317.557 65.4182C322.806 58.7989 322.942 52.0765 318.062 45.0509C315.846 41.8587 312.942 39.2382 309.771 36.8472C301.653 30.7161 292.408 26.4425 282.728 22.9066C258.058 13.8787 232.3 9.45605 205.96 6.58488Z" fill="url(#paint0_linear_4169_69)"/>
<defs>
<linearGradient id="paint0_linear_4169_69" x1="9.07319" y1="42.937" x2="309.069" y2="77.4661" gradientUnits="userSpaceOnUse">
<stop stop-color="#52B7D8"/>
<stop offset="1" stop-color="#13DBAA"/>
</linearGradient>
</defs>
</svg>
