<svg width="147" height="11" viewBox="0 0 147 11" fill="none" xmlns="http://www.w3.org/2000/svg">
<path d="M136.362 3.15634C133.262 2.91832 129.68 2.95153 126.117 2.93492C118.618 2.90725 111.109 3.08438 103.615 3.6379C99.2402 3.95894 94.8554 4.07519 90.4756 4.32427C82.1694 4.79477 73.8681 5.30954 65.5669 5.78003C61.1871 6.02912 56.8023 6.18964 52.4275 6.4664C44.9384 6.9369 37.4494 7.44614 29.9753 8.17126C23.129 8.84102 16.2827 9.45543 9.43648 10.1086C6.91522 10.3521 4.39895 10.6566 1.87769 10.8946C1.20004 10.9555 0.123766 11.2876 0.00916373 10.3355C-0.115404 9.27831 1.06051 9.42221 1.68335 9.35026C6.6312 8.78566 11.584 8.31517 16.5369 7.79486C22.3866 7.17491 28.2313 6.49408 34.086 5.90181C39.2183 5.3815 44.3554 4.88886 49.4976 4.48479C57.4351 3.86484 65.3726 3.31132 73.3151 2.76333C78.4572 2.40908 83.6094 2.14892 88.7515 1.81127C95.7473 1.34631 102.733 0.748508 109.734 0.377647C117.821 -0.0485658 125.913 -0.236762 134.005 0.482818C137.976 0.837073 141.922 1.35185 145.854 2.02161C145.988 2.04375 146.128 2.03822 146.257 2.07143C146.601 2.16553 147.054 2.20981 146.995 2.74119C146.945 3.18401 146.516 3.1342 146.212 3.13973C144.673 3.15634 143.133 3.1508 141.593 3.15634C140.009 3.15634 138.424 3.15634 136.371 3.15634H136.362Z" fill="#00E59E"/>
</svg>
