<svg width="273" height="11" viewBox="0 0 273 11" fill="none" xmlns="http://www.w3.org/2000/svg">
<path d="M253.243 3.15634C247.487 2.91832 240.834 2.95153 234.217 2.93492C220.291 2.90725 206.345 3.08438 192.428 3.6379C184.303 3.95894 176.16 4.07519 168.026 4.32427C152.6 4.79477 137.184 5.30954 121.767 5.78003C113.633 6.02912 105.49 6.18964 97.3653 6.4664C83.4571 6.9369 69.5489 7.44614 55.6684 8.17126C42.9539 8.84102 30.2394 9.45543 17.5249 10.1086C12.8425 10.3521 8.16947 10.6566 3.48713 10.8946C2.22864 10.9555 0.229852 11.2876 0.0170184 10.3355C-0.214323 9.2783 1.96952 9.42221 3.12623 9.35026C12.3151 8.78566 21.5132 8.31517 30.7113 7.79486C41.5751 7.17491 52.4296 6.49408 63.3027 5.90181C72.8339 5.3815 82.3744 4.88886 91.9242 4.48479C106.665 3.86484 121.406 3.31132 136.157 2.76333C145.706 2.40908 155.275 2.14892 164.824 1.81127C177.816 1.34631 190.79 0.748508 203.791 0.377647C218.81 -0.0485658 233.838 -0.236762 248.866 0.482818C256.241 0.837073 263.57 1.35185 270.871 2.02161C271.121 2.04375 271.38 2.03822 271.621 2.07143C272.259 2.16553 273.101 2.20981 272.99 2.74119C272.898 3.18401 272.102 3.1342 271.537 3.13973C268.678 3.15634 265.819 3.1508 262.959 3.15634C260.016 3.15634 257.074 3.15634 253.261 3.15634H253.243Z" fill="#00E59E"/>
</svg>
