<svg width="54" height="54" viewBox="0 0 54 54" fill="none" xmlns="http://www.w3.org/2000/svg">
<rect width="53.0747" height="53.0747" rx="26.5374" fill="#FCEDED"/>
<path d="M24.6405 28.4375C25.7293 29.526 26.9903 30.4274 28.3725 31.1055C28.579 31.2003 28.8117 31.222 29.0322 31.1669C29.2527 31.1119 29.4478 30.9833 29.5855 30.8025L29.9405 30.3375C30.1268 30.0891 30.3684 29.8875 30.6461 29.7486C30.9238 29.6098 31.23 29.5375 31.5405 29.5375H34.5405C35.0709 29.5375 35.5796 29.7482 35.9547 30.1233C36.3298 30.4984 36.5405 31.0071 36.5405 31.5375V34.5375C36.5405 35.0679 36.3298 35.5766 35.9547 35.9517C35.5796 36.3268 35.0709 36.5375 34.5405 36.5375C32.1767 36.5375 29.836 36.072 27.6522 35.1674C25.4683 34.2628 23.484 32.937 21.8125 31.2655" stroke="#C53637" stroke-width="1.45833" stroke-linecap="round" stroke-linejoin="round"/>
<path d="M36.5391 16.5391L16.5391 36.5391" stroke="#C53637" stroke-width="1.45833" stroke-linecap="round" stroke-linejoin="round"/>
<path d="M19.2991 28.1211C17.4951 25.2507 16.5384 21.9292 16.5391 18.5391C16.5391 18.0086 16.7498 17.4999 17.1248 17.1248C17.4999 16.7498 18.0086 16.5391 18.5391 16.5391H21.5391C22.0695 16.5391 22.5782 16.7498 22.9533 17.1248C23.3283 17.4999 23.5391 18.0086 23.5391 18.5391V21.5391C23.5391 21.8496 23.4668 22.1558 23.3279 22.4335C23.1891 22.7112 22.9875 22.9528 22.7391 23.1391L22.2711 23.4901C22.0875 23.6302 21.9581 23.8296 21.9049 24.0544C21.8516 24.2792 21.8778 24.5154 21.9791 24.7231C22.0574 24.8823 22.1387 25.04 22.2231 25.1961" stroke="#C53637" stroke-width="1.45833" stroke-linecap="round" stroke-linejoin="round"/>
</svg>
