<svg width="54" height="54" viewBox="0 0 54 54" fill="none" xmlns="http://www.w3.org/2000/svg">
<rect width="53.0747" height="53.0747" rx="26.5374" fill="#FCEDED"/>
<path d="M34.5391 27.5395C34.5391 32.5395 31.0391 35.0395 26.8791 36.4895C26.6612 36.5633 26.4246 36.5598 26.2091 36.4795C22.0391 35.0395 18.5391 32.5395 18.5391 27.5395V20.5395C18.5391 20.2743 18.6444 20.0199 18.832 19.8324C19.0195 19.6449 19.2738 19.5395 19.5391 19.5395C21.5391 19.5395 24.0391 18.3395 25.7791 16.8195C25.9909 16.6385 26.2604 16.5391 26.5391 16.5391C26.8177 16.5391 27.0872 16.6385 27.2991 16.8195C29.0491 18.3495 31.5391 19.5395 33.5391 19.5395C33.8043 19.5395 34.0586 19.6449 34.2462 19.8324C34.4337 20.0199 34.5391 20.2743 34.5391 20.5395V27.5395Z" stroke="#C53637" stroke-width="1.45833" stroke-linecap="round" stroke-linejoin="round"/>
<path d="M26.5391 22.5391V26.5391" stroke="#C53637" stroke-width="1.45833" stroke-linecap="round" stroke-linejoin="round"/>
<path d="M26.5391 30.5391H26.5491" stroke="#C53637" stroke-width="1.45833" stroke-linecap="round" stroke-linejoin="round"/>
</svg>
