<svg width="54" height="54" viewBox="0 0 54 54" fill="none" xmlns="http://www.w3.org/2000/svg">
<rect width="53.0747" height="53.0747" rx="26.5374" fill="#FCEDED"/>
<path d="M15.8764 29.1364C15.6242 29.1373 15.3769 29.0683 15.1633 28.9376C14.9497 28.8068 14.7785 28.6196 14.6696 28.3978C14.5608 28.1759 14.5187 27.9285 14.5483 27.6843C14.5779 27.44 14.6779 27.209 14.8368 27.018L28.0318 13.7614C28.1308 13.65 28.2657 13.5747 28.4143 13.5479C28.563 13.5211 28.7165 13.5444 28.8498 13.6139C28.9831 13.6835 29.0882 13.7951 29.1479 13.9305C29.2075 14.066 29.2182 14.2172 29.1781 14.3593L26.619 22.1832C26.5436 22.3802 26.5182 22.592 26.5452 22.8006C26.5721 23.0092 26.6506 23.2083 26.7738 23.3808C26.897 23.5533 27.0612 23.6941 27.2525 23.7911C27.4438 23.8881 27.6563 23.9385 27.8719 23.9378H37.2017C37.4539 23.9369 37.7012 24.0059 37.9148 24.1367C38.1284 24.2674 38.2996 24.4546 38.4085 24.6764C38.5174 24.8983 38.5595 25.1457 38.5299 25.39C38.5003 25.6342 38.4002 25.8652 38.2413 26.0562L25.0463 39.3128C24.9473 39.4242 24.8124 39.4995 24.6638 39.5263C24.5152 39.5531 24.3616 39.5298 24.2283 39.4603C24.095 39.3908 23.9899 39.2791 23.9303 39.1437C23.8706 39.0082 23.86 38.8571 23.9001 38.7149L26.4591 30.891C26.5346 30.694 26.5599 30.4822 26.5329 30.2736C26.506 30.0651 26.4276 29.866 26.3044 29.6934C26.1812 29.5209 26.0169 29.3801 25.8256 29.2831C25.6344 29.1861 25.4218 29.1358 25.2062 29.1364H15.8764Z" stroke="#C53637" stroke-width="1.45833" stroke-linecap="round" stroke-linejoin="round"/>
</svg>
