<svg width="54" height="54" viewBox="0 0 54 54" fill="none" xmlns="http://www.w3.org/2000/svg">
<rect width="53.0747" height="53.0747" rx="26.5374" fill="#FCEDED"/>
<path d="M24.5391 25.5371C26.7482 25.5371 28.5391 23.7462 28.5391 21.5371C28.5391 19.328 26.7482 17.5371 24.5391 17.5371C22.3299 17.5371 20.5391 19.328 20.5391 21.5371C20.5391 23.7462 22.3299 25.5371 24.5391 25.5371Z" stroke="#C53637" stroke-width="1.45833" stroke-linecap="round" stroke-linejoin="round"/>
<path d="M24.8391 29.5371H21.5391C20.4782 29.5371 19.4608 29.9585 18.7106 30.7087C17.9605 31.4588 17.5391 32.4762 17.5391 33.5371V35.5371" stroke="#C53637" stroke-width="1.45833" stroke-linecap="round" stroke-linejoin="round"/>
<path d="M31.5391 34.5371C33.1959 34.5371 34.5391 33.194 34.5391 31.5371C34.5391 29.8803 33.1959 28.5371 31.5391 28.5371C29.8822 28.5371 28.5391 29.8803 28.5391 31.5371C28.5391 33.194 29.8822 34.5371 31.5391 34.5371Z" stroke="#C53637" stroke-width="1.45833" stroke-linecap="round" stroke-linejoin="round"/>
<path d="M35.5406 35.5367L33.6406 33.6367" stroke="#C53637" stroke-width="1.45833" stroke-linecap="round" stroke-linejoin="round"/>
</svg>
