<svg width="26" height="26" viewBox="0 0 26 26" fill="none" xmlns="http://www.w3.org/2000/svg">
<path d="M13 21.6665V23.8332" stroke="#1D4FD7" stroke-width="2" stroke-linecap="round" stroke-linejoin="round"/>
<path d="M13 2.1665V4.33317" stroke="#1D4FD7" stroke-width="2" stroke-linecap="round" stroke-linejoin="round"/>
<path d="M17 21.6665V23.8332" stroke="#1D4FD7" stroke-width="2" stroke-linecap="round" stroke-linejoin="round"/>
<path d="M18.4167 2.1665V4.33317" stroke="#1D4FD7" stroke-width="2" stroke-linecap="round" stroke-linejoin="round"/>
<path d="M2.16666 13H4.33333" stroke="#1D4FD7" stroke-width="2" stroke-linecap="round" stroke-linejoin="round"/>
<path d="M2.16666 18.4165H4.33333" stroke="#1D4FD7" stroke-width="2" stroke-linecap="round" stroke-linejoin="round"/>
<path d="M2.16666 7.5835H4.33333" stroke="#1D4FD7" stroke-width="2" stroke-linecap="round" stroke-linejoin="round"/>
<path d="M21.6667 13H23.8333" stroke="#1D4FD7" stroke-width="2" stroke-linecap="round" stroke-linejoin="round"/>
<path d="M21.6667 18.4165H23.8333" stroke="#1D4FD7" stroke-width="2" stroke-linecap="round" stroke-linejoin="round"/>
<path d="M21.6667 7.5835H23.8333" stroke="#1D4FD7" stroke-width="2" stroke-linecap="round" stroke-linejoin="round"/>
<path d="M7.58334 21.6665V23.8332" stroke="#1D4FD7" stroke-width="2" stroke-linecap="round" stroke-linejoin="round"/>
<path d="M7.58334 2.1665V4.33317" stroke="#1D4FD7" stroke-width="2" stroke-linecap="round" stroke-linejoin="round"/>
<path d="M19.5 4.3335H6.5C5.30339 4.3335 4.33334 5.30355 4.33334 6.50016V19.5002C4.33334 20.6968 5.30339 21.6668 6.5 21.6668H19.5C20.6966 21.6668 21.6667 20.6968 21.6667 19.5002V6.50016C21.6667 5.30355 20.6966 4.3335 19.5 4.3335Z" stroke="#1D4FD7" stroke-width="2" stroke-linecap="round" stroke-linejoin="round"/>
<path d="M16.25 8.6665H9.75C9.15169 8.6665 8.66666 9.15153 8.66666 9.74984V16.2498C8.66666 16.8481 9.15169 17.3332 9.75 17.3332H16.25C16.8483 17.3332 17.3333 16.8481 17.3333 16.2498V9.74984C17.3333 9.15153 16.8483 8.6665 16.25 8.6665Z" stroke="#1D4FD7" stroke-width="2" stroke-linecap="round" stroke-linejoin="round"/>
</svg>
