<svg width="26" height="26" viewBox="0 0 26 26" fill="none" xmlns="http://www.w3.org/2000/svg">
<path d="M4.33334 13.1623V4.33318C4.33334 3.75854 4.56162 3.20744 4.96795 2.80111C5.37427 2.39478 5.92537 2.16651 6.50001 2.16651H15.1667C15.51 2.16567 15.85 2.23282 16.1673 2.36409C16.4845 2.49537 16.7725 2.68816 17.0148 2.93135L20.9018 6.81834C21.145 7.06066 21.3378 7.34873 21.4691 7.66594C21.6004 7.98315 21.6675 8.32321 21.6667 8.66651V21.6665C21.6667 22.2411 21.4384 22.7922 21.0321 23.1986C20.6257 23.6049 20.0746 23.8332 19.5 23.8332H15.8708" stroke="#0019FF" stroke-width="2" stroke-linecap="round" stroke-linejoin="round"/>
<path d="M15.1667 2.1665V7.58317C15.1667 7.87049 15.2808 8.14604 15.484 8.3492C15.6871 8.55237 15.9627 8.6665 16.25 8.6665H21.6667" stroke="#0019FF" stroke-width="2" stroke-linecap="round" stroke-linejoin="round"/>
<path d="M5.41666 17.3335L2.16666 20.5835L5.41666 23.8335" stroke="#0019FF" stroke-width="2" stroke-linecap="round" stroke-linejoin="round"/>
<path d="M9.75 23.8335L13 20.5835L9.75 17.3335" stroke="#0019FF" stroke-width="2" stroke-linecap="round" stroke-linejoin="round"/>
</svg>
