<svg width="26" height="26" viewBox="0 0 26 26" fill="none" xmlns="http://www.w3.org/2000/svg">
<path d="M19.4997 4.3335H6.49967C5.30306 4.3335 4.33301 5.30355 4.33301 6.50016V19.5002C4.33301 20.6968 5.30306 21.6668 6.49967 21.6668H19.4997C20.6963 21.6668 21.6663 20.6968 21.6663 19.5002V6.50016C21.6663 5.30355 20.6963 4.3335 19.4997 4.3335Z" stroke="white" stroke-width="2" stroke-linecap="round" stroke-linejoin="round"/>
<path d="M15.1667 9.75H10.8333C10.235 9.75 9.75 10.235 9.75 10.8333V15.1667C9.75 15.765 10.235 16.25 10.8333 16.25H15.1667C15.765 16.25 16.25 15.765 16.25 15.1667V10.8333C16.25 10.235 15.765 9.75 15.1667 9.75Z" stroke="white" stroke-width="2" stroke-linecap="round" stroke-linejoin="round"/>
<path d="M16.25 2.1665V4.33317" stroke="white" stroke-width="2" stroke-linecap="round" stroke-linejoin="round"/>
<path d="M16.25 21.6665V23.8332" stroke="white" stroke-width="2" stroke-linecap="round" stroke-linejoin="round"/>
<path d="M2.16699 16.25H4.33366" stroke="white" stroke-width="2" stroke-linecap="round" stroke-linejoin="round"/>
<path d="M2.16699 9.75H4.33366" stroke="white" stroke-width="2" stroke-linecap="round" stroke-linejoin="round"/>
<path d="M21.667 16.25H23.8337" stroke="white" stroke-width="2" stroke-linecap="round" stroke-linejoin="round"/>
<path d="M21.667 9.75H23.8337" stroke="white" stroke-width="2" stroke-linecap="round" stroke-linejoin="round"/>
<path d="M9.75 2.1665V4.33317" stroke="white" stroke-width="2" stroke-linecap="round" stroke-linejoin="round"/>
<path d="M9.75 21.6665V23.8332" stroke="white" stroke-width="2" stroke-linecap="round" stroke-linejoin="round"/>
</svg>
