<svg width="54" height="54" viewBox="0 0 54 54" fill="none" xmlns="http://www.w3.org/2000/svg">
<rect width="53.0747" height="53.0747" rx="26.5374" fill="#FCEDED"/>
<path d="M20.5391 36.5371C20.0086 36.5371 19.4999 36.3264 19.1248 35.9513C18.7498 35.5763 18.5391 35.0675 18.5391 34.5371V18.5371C18.5391 18.0067 18.7498 17.498 19.1248 17.1229C19.4999 16.7478 20.0086 16.5371 20.5391 16.5371H28.5391C28.8556 16.5366 29.1691 16.5987 29.4616 16.7199C29.754 16.841 30.0196 17.0189 30.2431 17.2431L33.8311 20.8311C34.0559 21.0546 34.2342 21.3205 34.3558 21.6133C34.4773 21.9061 34.5396 22.2201 34.5391 22.5371V34.5371C34.5391 35.0675 34.3283 35.5763 33.9533 35.9513C33.5782 36.3264 33.0695 36.5371 32.5391 36.5371H20.5391Z" stroke="#C53637" stroke-width="1.45833" stroke-linecap="round" stroke-linejoin="round"/>
<path d="M28.5391 16.5371V21.5371C28.5391 21.8023 28.6444 22.0567 28.832 22.2442C29.0195 22.4318 29.2738 22.5371 29.5391 22.5371H34.5391" stroke="#C53637" stroke-width="1.45833" stroke-linecap="round" stroke-linejoin="round"/>
<path d="M26.0391 31.5371C27.4198 31.5371 28.5391 30.4178 28.5391 29.0371C28.5391 27.6564 27.4198 26.5371 26.0391 26.5371C24.6584 26.5371 23.5391 27.6564 23.5391 29.0371C23.5391 30.4178 24.6584 31.5371 26.0391 31.5371Z" stroke="#C53637" stroke-width="1.45833" stroke-linecap="round" stroke-linejoin="round"/>
<path d="M27.8398 30.8379L29.5398 32.5379" stroke="#C53637" stroke-width="1.45833" stroke-linecap="round" stroke-linejoin="round"/>
</svg>
