<svg width="54" height="54" viewBox="0 0 54 54" fill="none" xmlns="http://www.w3.org/2000/svg">
<rect width="53.0747" height="53.0747" rx="26.5374" fill="#FCEDED"/>
<path d="M34.5391 20.5391H18.5391C17.4345 20.5391 16.5391 21.4345 16.5391 22.5391V30.5391C16.5391 31.6436 17.4345 32.5391 18.5391 32.5391H34.5391C35.6436 32.5391 36.5391 31.6436 36.5391 30.5391V22.5391C36.5391 21.4345 35.6436 20.5391 34.5391 20.5391Z" stroke="#C53637" stroke-width="1.45833" stroke-linecap="round" stroke-linejoin="round"/>
<path d="M26.5391 28.5391C27.6436 28.5391 28.5391 27.6436 28.5391 26.5391C28.5391 25.4345 27.6436 24.5391 26.5391 24.5391C25.4345 24.5391 24.5391 25.4345 24.5391 26.5391C24.5391 27.6436 25.4345 28.5391 26.5391 28.5391Z" stroke="#C53637" stroke-width="1.45833" stroke-linecap="round" stroke-linejoin="round"/>
<path d="M20.5391 26.5391H20.5491M32.5391 26.5391H32.5491" stroke="#C53637" stroke-width="1.45833" stroke-linecap="round" stroke-linejoin="round"/>
</svg>
