<svg width="54" height="54" viewBox="0 0 54 54" fill="none" xmlns="http://www.w3.org/2000/svg">
<rect width="53.0747" height="53.0747" rx="26.5374" fill="#FCEDED"/>
<path d="M17.6248 32.0478C17.7105 31.6581 17.6778 31.2517 17.5308 30.8808C16.5075 28.7577 16.267 26.3415 16.8516 24.0584C17.4363 21.7753 18.8085 19.7721 20.7262 18.4021C22.6439 17.0321 24.9838 16.3835 27.3331 16.5707C29.6825 16.7578 31.8902 17.7687 33.5668 19.425C35.2435 21.0812 36.2812 23.2764 36.4971 25.6233C36.7129 27.9702 36.0929 30.3178 34.7465 32.2521C33.4 34.1864 31.4137 35.583 29.1379 36.1955C26.8621 36.808 24.4431 36.597 22.3078 35.5998C21.9573 35.4667 21.5765 35.4348 21.2088 35.5078L17.7958 36.5058C17.6311 36.5494 17.458 36.5504 17.293 36.5084C17.1279 36.4665 16.9762 36.383 16.8524 36.266C16.7286 36.149 16.6367 36.0024 16.5855 35.8399C16.5343 35.6774 16.5254 35.5046 16.5598 35.3378L17.6248 32.0478Z" stroke="#C53637" stroke-width="1.45833" stroke-linecap="round" stroke-linejoin="round"/>
</svg>
