<svg width="54" height="54" viewBox="0 0 54 54" fill="none" xmlns="http://www.w3.org/2000/svg">
<rect width="53.0747" height="53.0747" rx="26.5374" fill="#FCEDED"/>
<path d="M25.0391 36.5371H20.5391C20.0086 36.5371 19.4999 36.3264 19.1248 35.9513C18.7498 35.5763 18.5391 35.0675 18.5391 34.5371V18.5371C18.5391 18.0067 18.7498 17.498 19.1248 17.1229C19.4999 16.7478 20.0086 16.5371 20.5391 16.5371H28.5391C28.856 16.5363 29.1699 16.5983 29.4627 16.7195C29.7555 16.8407 30.0214 17.0186 30.2451 17.2431L33.8331 20.8311C34.0575 21.0548 34.2355 21.3207 34.3567 21.6135C34.4779 21.9063 34.5398 22.2202 34.5391 22.5371V28.5371" stroke="#C53637" stroke-width="1.45833" stroke-linecap="round" stroke-linejoin="round"/>
<path d="M28.5391 16.5371V21.5371C28.5391 21.8023 28.6444 22.0567 28.832 22.2442C29.0195 22.4318 29.2738 22.5371 29.5391 22.5371H34.5391" stroke="#C53637" stroke-width="1.45833" stroke-linecap="round" stroke-linejoin="round"/>
<path d="M28.5391 34.5371L30.5391 36.5371L34.5391 32.5371" stroke="#C53637" stroke-width="1.45833" stroke-linecap="round" stroke-linejoin="round"/>
</svg>
