<svg width="26" height="26" viewBox="0 0 26 26" fill="none" xmlns="http://www.w3.org/2000/svg">
<path d="M13 19.5001V5.41675" stroke="#1A9948" stroke-width="2" stroke-linecap="round" stroke-linejoin="round"/>
<path d="M16.25 14.0833C15.3127 13.8093 14.4894 13.239 13.9035 12.4578C13.3176 11.6766 13.0006 10.7265 13 9.75C12.9994 10.7265 12.6824 11.6766 12.0965 12.4578C11.5106 13.239 10.6873 13.8093 9.75 14.0833" stroke="#1A9948" stroke-width="2" stroke-linecap="round" stroke-linejoin="round"/>
<path d="M19.0645 7.04165C19.3138 6.60993 19.4604 6.12665 19.493 5.62919C19.5257 5.13174 19.4434 4.63344 19.2526 4.17286C19.0619 3.71228 18.7677 3.30176 18.3929 2.97306C18.0181 2.64435 17.5727 2.40628 17.0912 2.27725C16.6096 2.14822 16.1049 2.1317 15.6159 2.22896C15.127 2.32622 14.667 2.53466 14.2715 2.83815C13.876 3.14164 13.5556 3.53204 13.3351 3.97916C13.1146 4.42628 13 4.91812 13 5.41665C13 4.91812 12.8854 4.42628 12.6649 3.97916C12.4444 3.53204 12.124 3.14164 11.7285 2.83815C11.333 2.53466 10.873 2.32622 10.3841 2.22896C9.89513 2.1317 9.39036 2.14822 8.90883 2.27725C8.42729 2.40628 7.98189 2.64435 7.60709 2.97306C7.23228 3.30176 6.93812 3.71228 6.74736 4.17286C6.55659 4.63344 6.47434 5.13174 6.50697 5.62919C6.53959 6.12665 6.68622 6.60993 6.9355 7.04165" stroke="#1A9948" stroke-width="2" stroke-linecap="round" stroke-linejoin="round"/>
<path d="M19.4968 5.552C20.1335 5.71573 20.7247 6.02222 21.2255 6.44826C21.7263 6.87429 22.1236 7.4087 22.3873 8.011C22.6509 8.61331 22.7741 9.26772 22.7474 9.92467C22.7207 10.5816 22.5449 11.2239 22.2333 11.8028" stroke="#1A9948" stroke-width="2" stroke-linecap="round" stroke-linejoin="round"/>
<path d="M19.5 19.5001C20.4539 19.5 21.3811 19.1852 22.1378 18.6045C22.8946 18.0238 23.4386 17.2097 23.6855 16.2883C23.9324 15.3669 23.8683 14.3898 23.5033 13.5085C23.1383 12.6273 22.4927 11.891 21.6667 11.4141" stroke="#1A9948" stroke-width="2" stroke-linecap="round" stroke-linejoin="round"/>
<path d="M21.6309 18.9399C21.7068 19.5274 21.6615 20.1241 21.4978 20.6933C21.3341 21.2626 21.0554 21.7922 20.6789 22.2495C20.3025 22.7068 19.8363 23.082 19.3091 23.3521C18.7819 23.6222 18.205 23.7813 17.614 23.8196C17.0229 23.858 16.4302 23.7748 15.8726 23.5751C15.3149 23.3754 14.8042 23.0636 14.3718 22.6588C13.9394 22.254 13.5946 21.7648 13.3586 21.2215C13.1227 20.6782 13.0006 20.0923 13 19.5C12.9994 20.0923 12.8773 20.6782 12.6414 21.2215C12.4054 21.7648 12.0606 22.254 11.6282 22.6588C11.1959 23.0636 10.6851 23.3754 10.1274 23.5751C9.56979 23.7748 8.97713 23.858 8.38607 23.8196C7.795 23.7813 7.21807 23.6222 6.69091 23.3521C6.16375 23.082 5.69755 22.7068 5.32111 22.2495C4.94466 21.7922 4.66596 21.2626 4.50222 20.6933C4.33848 20.1241 4.29317 19.5274 4.36909 18.9399" stroke="#1A9948" stroke-width="2" stroke-linecap="round" stroke-linejoin="round"/>
<path d="M6.50001 19.5001C5.54613 19.5 4.61892 19.1852 3.86217 18.6045C3.10542 18.0238 2.56142 17.2097 2.31453 16.2883C2.06764 15.3669 2.13167 14.3898 2.49668 13.5085C2.86169 12.6273 3.50729 11.891 4.33335 11.4141" stroke="#1A9948" stroke-width="2" stroke-linecap="round" stroke-linejoin="round"/>
<path d="M6.50326 5.552C5.86647 5.71573 5.2753 6.02222 4.77451 6.44826C4.27371 6.87429 3.87643 7.4087 3.61275 8.011C3.34907 8.61331 3.22591 9.26772 3.25259 9.92467C3.27928 10.5816 3.4551 11.2239 3.76676 11.8028" stroke="#1A9948" stroke-width="2" stroke-linecap="round" stroke-linejoin="round"/>
</svg>
