<svg width="26" height="26" viewBox="0 0 26 26" fill="none" xmlns="http://www.w3.org/2000/svg">
<path d="M10.4769 4.48067C10.5366 3.8527 10.8283 3.26955 11.2949 2.84514C11.7616 2.42073 12.3697 2.18555 13.0005 2.18555C13.6313 2.18555 14.2395 2.42073 14.7061 2.84514C15.1728 3.26955 15.4645 3.8527 15.5242 4.48067C15.56 4.88633 15.6931 5.27737 15.9121 5.6207C16.1312 5.96403 16.4297 6.24954 16.7824 6.45307C17.1352 6.65659 17.5317 6.77214 17.9386 6.78992C18.3454 6.80771 18.7506 6.72721 19.1197 6.55525C19.693 6.29501 20.3425 6.25735 20.9419 6.44961C21.5414 6.64187 22.0478 7.05028 22.3627 7.59536C22.6776 8.14045 22.7785 8.7832 22.6456 9.39854C22.5127 10.0139 22.1557 10.5578 21.6439 10.9243C21.3107 11.1582 21.0386 11.4688 20.8508 11.83C20.663 12.1912 20.565 12.5924 20.565 12.9995C20.565 13.4066 20.663 13.8077 20.8508 14.1689C21.0386 14.5301 21.3107 14.8407 21.6439 15.0746C22.1557 15.4412 22.5127 15.9851 22.6456 16.6004C22.7785 17.2157 22.6776 17.8585 22.3627 18.4036C22.0478 18.9486 21.5414 19.3571 20.9419 19.5493C20.3425 19.7416 19.693 19.7039 19.1197 19.4437C18.7506 19.2717 18.3454 19.1912 17.9386 19.209C17.5317 19.2268 17.1352 19.3423 16.7824 19.5458C16.4297 19.7494 16.1312 20.0349 15.9121 20.3782C15.6931 20.7215 15.56 21.1126 15.5242 21.5183C15.4645 22.1462 15.1728 22.7294 14.7061 23.1538C14.2395 23.5782 13.6313 23.8134 13.0005 23.8134C12.3697 23.8134 11.7616 23.5782 11.2949 23.1538C10.8283 22.7294 10.5366 22.1462 10.4769 21.5183C10.4411 21.1124 10.308 20.7213 10.0889 20.3778C9.86985 20.0343 9.57122 19.7487 9.21833 19.5452C8.86545 19.3417 8.46871 19.2262 8.06171 19.2085C7.65471 19.1908 7.24945 19.2715 6.88025 19.4437C6.30705 19.7039 5.65752 19.7416 5.05808 19.5493C4.45865 19.3571 3.95219 18.9486 3.63727 18.4036C3.32236 17.8585 3.22152 17.2157 3.35439 16.6004C3.48726 15.9851 3.84432 15.4412 4.35608 15.0746C4.68934 14.8407 4.96137 14.5301 5.14918 14.1689C5.33698 13.8077 5.43503 13.4066 5.43503 12.9995C5.43503 12.5924 5.33698 12.1912 5.14918 11.83C4.96137 11.4688 4.68934 11.1582 4.35608 10.9243C3.84504 10.5576 3.4886 10.0139 3.35606 9.39898C3.22351 8.78407 3.32433 8.14184 3.6389 7.59711C3.95347 7.05238 4.45934 6.64406 5.05818 6.45151C5.65702 6.25896 6.30607 6.29594 6.87917 6.55525C7.24832 6.72721 7.65347 6.80771 8.06033 6.78992C8.46718 6.77214 8.86376 6.65659 9.2165 6.45307C9.56924 6.24954 9.86775 5.96403 10.0868 5.6207C10.3058 5.27737 10.4389 4.88633 10.4747 4.48067" stroke="#1A9948" stroke-width="2" stroke-linecap="round" stroke-linejoin="round"/>
<path d="M13 16.25C14.7949 16.25 16.25 14.7949 16.25 13C16.25 11.2051 14.7949 9.75 13 9.75C11.2051 9.75 9.75 11.2051 9.75 13C9.75 14.7949 11.2051 16.25 13 16.25Z" stroke="#1A9948" stroke-width="2" stroke-linecap="round" stroke-linejoin="round"/>
</svg>
