<svg width="26" height="26" viewBox="0 0 26 26" fill="none" xmlns="http://www.w3.org/2000/svg">
<path d="M6.5 23.8334C5.92536 23.8334 5.37426 23.6051 4.96794 23.1988C4.56161 22.7925 4.33333 22.2414 4.33333 21.6668V4.33342C4.33333 3.75878 4.56161 3.20768 4.96794 2.80135C5.37426 2.39502 5.92536 2.16675 6.5 2.16675H15.1667C15.5096 2.1662 15.8493 2.23349 16.1661 2.36475C16.4829 2.49601 16.7706 2.68866 17.0127 2.93158L20.8997 6.81859C21.1432 7.06072 21.3364 7.34871 21.4681 7.66593C21.5997 7.98314 21.6672 8.3233 21.6667 8.66675V21.6668C21.6667 22.2414 21.4384 22.7925 21.0321 23.1988C20.6257 23.6051 20.0746 23.8334 19.5 23.8334H6.5Z" stroke="#1A9948" stroke-width="2" stroke-linecap="round" stroke-linejoin="round"/>
<path d="M15.1667 2.16675V7.58341C15.1667 7.87073 15.2808 8.14628 15.484 8.34945C15.6871 8.55261 15.9627 8.66675 16.25 8.66675H21.6667" stroke="#1A9948" stroke-width="2" stroke-linecap="round" stroke-linejoin="round"/>
<path d="M10.8333 9.75H8.66667" stroke="#1A9948" stroke-width="2" stroke-linecap="round" stroke-linejoin="round"/>
<path d="M17.3333 14.0833H8.66667" stroke="#1A9948" stroke-width="2" stroke-linecap="round" stroke-linejoin="round"/>
<path d="M17.3333 18.4167H8.66667" stroke="#1A9948" stroke-width="2" stroke-linecap="round" stroke-linejoin="round"/>
</svg>
