<svg width="26" height="26" viewBox="0 0 26 26" fill="none" xmlns="http://www.w3.org/2000/svg">
<path d="M16.2502 2.16675H6.50016C5.92553 2.16675 5.37443 2.39502 4.9681 2.80135C4.56177 3.20768 4.3335 3.75878 4.3335 4.33341V21.6667C4.3335 22.2414 4.56177 22.7925 4.9681 23.1988C5.37443 23.6051 5.92553 23.8334 6.50016 23.8334H19.5002C20.0748 23.8334 20.6259 23.6051 21.0322 23.1988C21.4386 22.7925 21.6668 22.2414 21.6668 21.6667V7.58341L16.2502 2.16675Z" stroke="#DC2828" stroke-width="2" stroke-linecap="round" stroke-linejoin="round"/>
<path d="M15.1665 2.16675V6.50008C15.1665 7.07472 15.3948 7.62582 15.8011 8.03215C16.2074 8.43848 16.7585 8.66675 17.3332 8.66675H21.6665" stroke="#DC2828" stroke-width="2" stroke-linecap="round" stroke-linejoin="round"/>
<path d="M15.7082 13.5417L10.2915 18.9584" stroke="#DC2828" stroke-width="2" stroke-linecap="round" stroke-linejoin="round"/>
<path d="M10.2915 13.5417L15.7082 18.9584" stroke="#DC2828" stroke-width="2" stroke-linecap="round" stroke-linejoin="round"/>
</svg>
