<svg width="26" height="26" viewBox="0 0 26 26" fill="none" xmlns="http://www.w3.org/2000/svg">
<path d="M21.6668 14.0834C21.6668 19.5001 17.8752 22.2084 13.3685 23.7792C13.1325 23.8592 12.8762 23.8554 12.6427 23.7684C8.12516 22.2084 4.3335 19.5001 4.3335 14.0834V6.50008C4.3335 6.21276 4.44763 5.93721 4.6508 5.73405C4.85396 5.53088 5.12951 5.41675 5.41683 5.41675C7.5835 5.41675 10.2918 4.11675 12.1768 2.47008C12.4063 2.274 12.6983 2.16626 13.0002 2.16626C13.302 2.16626 13.594 2.274 13.8235 2.47008C15.7193 4.12758 18.4168 5.41675 20.5835 5.41675C20.8708 5.41675 21.1464 5.53088 21.3495 5.73405C21.5527 5.93721 21.6668 6.21276 21.6668 6.50008V14.0834Z" stroke="#DC2828" stroke-width="2" stroke-linecap="round" stroke-linejoin="round"/>
<path d="M13 8.66675V13.0001" stroke="#DC2828" stroke-width="2" stroke-linecap="round" stroke-linejoin="round"/>
<path d="M13 17.3333H13.01" stroke="#DC2828" stroke-width="2" stroke-linecap="round" stroke-linejoin="round"/>
</svg>
