<svg width="26" height="26" viewBox="0 0 26 26" fill="none" xmlns="http://www.w3.org/2000/svg">
<path d="M2.80134 18.8652C2.39498 19.2714 2.16663 19.8224 2.1665 20.397V22.75C2.1665 23.0373 2.28064 23.3129 2.4838 23.516C2.68697 23.7192 2.96252 23.8333 3.24984 23.8333H6.49984C6.78715 23.8333 7.0627 23.7192 7.26587 23.516C7.46903 23.3129 7.58317 23.0373 7.58317 22.75V21.6667C7.58317 21.3794 7.69731 21.1038 7.90047 20.9006C8.10364 20.6975 8.37919 20.5833 8.6665 20.5833H9.74984C10.0372 20.5833 10.3127 20.4692 10.5159 20.266C10.719 20.0629 10.8332 19.7873 10.8332 19.5V18.4167C10.8332 18.1294 10.9473 17.8538 11.1505 17.6506C11.3536 17.4475 11.6292 17.3333 11.9165 17.3333H12.1028C12.6774 17.3332 13.2284 17.1049 13.6347 16.6985L14.5165 15.8167C16.0222 16.3412 17.6612 16.3392 19.1656 15.811C20.67 15.2828 21.9506 14.2597 22.7979 12.9091C23.6452 11.5585 24.0091 9.96036 23.83 8.37606C23.651 6.79176 22.9395 5.31512 21.8121 4.18771C20.6847 3.06031 19.2081 2.34888 17.6238 2.16981C16.0395 1.99074 14.4413 2.35463 13.0907 3.20196C11.7401 4.04928 10.717 5.32987 10.1889 6.83424C9.66068 8.33861 9.65868 9.97769 10.1832 11.4833L2.80134 18.8652Z" stroke="#DC2828" stroke-width="2" stroke-linecap="round" stroke-linejoin="round"/>
<path d="M17.8752 8.66659C18.1743 8.66659 18.4168 8.42407 18.4168 8.12492C18.4168 7.82576 18.1743 7.58325 17.8752 7.58325C17.576 7.58325 17.3335 7.82576 17.3335 8.12492C17.3335 8.42407 17.576 8.66659 17.8752 8.66659Z" fill="#DC2828" stroke="#DC2828" stroke-width="2" stroke-linecap="round" stroke-linejoin="round"/>
</svg>
