<svg width="26" height="26" viewBox="0 0 26 26" fill="none" xmlns="http://www.w3.org/2000/svg">
<path d="M23.5406 19.4999L14.874 4.33325C14.685 3.99981 14.411 3.72245 14.0798 3.52949C13.7487 3.33653 13.3722 3.23486 12.989 3.23486C12.6057 3.23486 12.2293 3.33653 11.8981 3.52949C11.567 3.72245 11.2929 3.99981 11.104 4.33325L2.4373 19.4999C2.24629 19.8307 2.14613 20.2061 2.14698 20.5881C2.14782 20.9701 2.24964 21.3451 2.44212 21.6751C2.63459 22.005 2.91088 22.2782 3.24297 22.467C3.57506 22.6557 3.95116 22.7534 4.33314 22.7499H21.6665C22.0466 22.7495 22.42 22.6491 22.749 22.4588C23.0781 22.2685 23.3513 21.9949 23.5412 21.6656C23.7311 21.3363 23.831 20.9628 23.8309 20.5827C23.8308 20.2026 23.7307 19.8291 23.5406 19.4999Z" stroke="#DC2828" stroke-width="2" stroke-linecap="round" stroke-linejoin="round"/>
<path d="M13 9.75V14.0833" stroke="#DC2828" stroke-width="2" stroke-linecap="round" stroke-linejoin="round"/>
<path d="M13 18.4167H13.01" stroke="#DC2828" stroke-width="2" stroke-linecap="round" stroke-linejoin="round"/>
</svg>
