<svg width="26" height="26" viewBox="0 0 26 26" fill="none" xmlns="http://www.w3.org/2000/svg">
<path d="M17.3333 22.75V20.5833C17.3333 19.4341 16.8768 18.3319 16.0641 17.5192C15.2515 16.7065 14.1493 16.25 13 16.25H6.49999C5.35072 16.25 4.24852 16.7065 3.43586 17.5192C2.6232 18.3319 2.16666 19.4341 2.16666 20.5833V22.75" stroke="white" stroke-width="2" stroke-linecap="round" stroke-linejoin="round"/>
<path d="M17.3333 3.38867C18.2626 3.62957 19.0855 4.17221 19.673 4.93141C20.2605 5.6906 20.5792 6.62339 20.5792 7.58334C20.5792 8.54329 20.2605 9.47607 19.673 10.2353C19.0855 10.9945 18.2626 11.5371 17.3333 11.778" stroke="white" stroke-width="2" stroke-linecap="round" stroke-linejoin="round"/>
<path d="M23.8333 22.7498V20.5831C23.8326 19.623 23.5131 18.6903 22.9248 17.9315C22.3366 17.1726 21.513 16.6307 20.5833 16.3906" stroke="white" stroke-width="2" stroke-linecap="round" stroke-linejoin="round"/>
<path d="M9.74999 11.9167C12.1432 11.9167 14.0833 9.97657 14.0833 7.58333C14.0833 5.1901 12.1432 3.25 9.74999 3.25C7.35676 3.25 5.41666 5.1901 5.41666 7.58333C5.41666 9.97657 7.35676 11.9167 9.74999 11.9167Z" stroke="white" stroke-width="2" stroke-linecap="round" stroke-linejoin="round"/>
</svg>
