<svg width="26" height="26" viewBox="0 0 26 26" fill="none" xmlns="http://www.w3.org/2000/svg">
<path d="M21.6667 14.0832C21.6667 19.4998 17.875 22.2082 13.3683 23.779C13.1323 23.859 12.876 23.8551 12.6425 23.7682C8.125 22.2082 4.33333 19.4998 4.33333 14.0832V6.49984C4.33333 6.21252 4.44747 5.93697 4.65063 5.7338C4.8538 5.53064 5.12935 5.4165 5.41667 5.4165C7.58333 5.4165 10.2917 4.1165 12.1767 2.46984C12.4062 2.27375 12.6981 2.16602 13 2.16602C13.3019 2.16602 13.5938 2.27375 13.8233 2.46984C15.7192 4.12734 18.4167 5.4165 20.5833 5.4165C20.8707 5.4165 21.1462 5.53064 21.3494 5.7338C21.5525 5.93697 21.6667 6.21252 21.6667 6.49984V14.0832Z" stroke="white" stroke-width="2" stroke-linecap="round" stroke-linejoin="round"/>
<path d="M9.75 13.0002L11.9167 15.1668L16.25 10.8335" stroke="white" stroke-width="2" stroke-linecap="round" stroke-linejoin="round"/>
</svg>
