<svg width="26" height="26" viewBox="0 0 26 26" fill="none" xmlns="http://www.w3.org/2000/svg">
<path d="M4.33334 15.1669C4.12833 15.1676 3.92734 15.1101 3.7537 15.0011C3.58007 14.8921 3.44092 14.7361 3.35243 14.5512C3.26394 14.3663 3.22974 14.16 3.25379 13.9564C3.27785 13.7528 3.35918 13.5603 3.48834 13.4011L14.2133 2.35105C14.2938 2.25819 14.4034 2.19544 14.5242 2.17309C14.645 2.15075 14.7699 2.17015 14.8782 2.2281C14.9865 2.28605 15.072 2.37911 15.1204 2.492C15.1689 2.6049 15.1776 2.73092 15.145 2.84938L13.065 9.37105C13.0037 9.5352 12.9831 9.71178 13.005 9.88564C13.0269 10.0595 13.0906 10.2255 13.1908 10.3693C13.2909 10.5131 13.4244 10.6304 13.5799 10.7113C13.7353 10.7922 13.9081 10.8341 14.0833 10.8336H21.6667C21.8717 10.8329 22.0727 10.8903 22.2463 10.9993C22.4199 11.1083 22.5591 11.2643 22.6476 11.4493C22.7361 11.6342 22.7703 11.8404 22.7462 12.044C22.7222 12.2476 22.6408 12.4402 22.5117 12.5994L11.7867 23.6494C11.7062 23.7422 11.5966 23.805 11.4758 23.8273C11.355 23.8497 11.2301 23.8303 11.1218 23.7723C11.0135 23.7144 10.928 23.6213 10.8796 23.5084C10.8311 23.3955 10.8224 23.2695 10.855 23.1511L12.935 16.6294C12.9963 16.4652 13.0169 16.2887 12.995 16.1148C12.9731 15.9409 12.9094 15.775 12.8092 15.6312C12.7091 15.4874 12.5756 15.37 12.4201 15.2891C12.2647 15.2083 12.0919 15.1663 11.9167 15.1669H4.33334Z" stroke="white" stroke-width="2" stroke-linecap="round" stroke-linejoin="round"/>
</svg>
