<svg width="54" height="54" viewBox="0 0 54 54" fill="none" xmlns="http://www.w3.org/2000/svg">
<rect width="53.0747" height="53.0747" rx="26.5374" fill="#FCEDED"/>
<path d="M29.5391 35.5371V30.5371C29.5391 30.2719 29.4337 30.0175 29.2462 29.83C29.0586 29.6425 28.8043 29.5371 28.5391 29.5371H24.5391C24.2738 29.5371 24.0195 29.6425 23.832 29.83C23.6444 30.0175 23.5391 30.2719 23.5391 30.5371V35.5371" stroke="#C53637" stroke-width="1.45833" stroke-linecap="round" stroke-linejoin="round"/>
<path d="M32.314 24.8471C32.1055 24.6475 31.8281 24.5362 31.5395 24.5362C31.2509 24.5362 30.9735 24.6475 30.765 24.8471C30.3 25.2906 29.6821 25.5381 29.0395 25.5381C28.3969 25.5381 27.779 25.2906 27.314 24.8471C27.1056 24.6478 26.8283 24.5366 26.54 24.5366C26.2516 24.5366 25.9744 24.6478 25.766 24.8471C25.3009 25.2909 24.6828 25.5385 24.04 25.5385C23.3972 25.5385 22.779 25.2909 22.314 24.8471C22.1055 24.6475 21.8281 24.5362 21.5395 24.5362C21.2509 24.5362 20.9735 24.6475 20.765 24.8471C20.3158 25.2757 19.7233 25.5219 19.1026 25.5377C18.482 25.5534 17.8777 25.3377 17.4073 24.9325C16.9369 24.5273 16.6342 23.9615 16.558 23.3454C16.4818 22.7292 16.6375 22.1067 16.995 21.5991L19.884 17.4151C20.0673 17.1446 20.3141 16.9232 20.6028 16.7701C20.8915 16.617 21.2132 16.537 21.54 16.5371H31.54C31.8658 16.537 32.1867 16.6165 32.4748 16.7686C32.7628 16.9207 33.0094 17.141 33.193 17.4101L36.088 21.6021C36.4455 22.1101 36.6011 22.7331 36.5244 23.3495C36.4477 23.966 36.1443 24.5319 35.6732 24.9368C35.2021 25.3417 34.5971 25.5568 33.9761 25.54C33.3551 25.5233 32.7626 25.2759 32.314 24.8461" stroke="#C53637" stroke-width="1.45833" stroke-linecap="round" stroke-linejoin="round"/>
<path d="M18.5391 25.4863V33.5363C18.5391 34.0668 18.7498 34.5755 19.1248 34.9505C19.4999 35.3256 20.0086 35.5363 20.5391 35.5363H32.5391C33.0695 35.5363 33.5782 35.3256 33.9533 34.9505C34.3283 34.5755 34.5391 34.0668 34.5391 33.5363V25.4863" stroke="#C53637" stroke-width="1.45833" stroke-linecap="round" stroke-linejoin="round"/>
</svg>
