<svg width="54" height="54" viewBox="0 0 54 54" fill="none" xmlns="http://www.w3.org/2000/svg">
<rect width="53.0747" height="53.0747" rx="26.5374" fill="#FCEDED"/>
<path d="M29.5391 16.5391H23.5391C22.9868 16.5391 22.5391 16.9868 22.5391 17.5391V19.5391C22.5391 20.0913 22.9868 20.5391 23.5391 20.5391H29.5391C30.0913 20.5391 30.5391 20.0913 30.5391 19.5391V17.5391C30.5391 16.9868 30.0913 16.5391 29.5391 16.5391Z" stroke="#C53637" stroke-width="1.45833" stroke-linecap="round" stroke-linejoin="round"/>
<path d="M30.5391 18.5391H32.5391C33.0695 18.5391 33.5782 18.7498 33.9533 19.1248C34.3283 19.4999 34.5391 20.0086 34.5391 20.5391V34.5391C34.5391 35.0695 34.3283 35.5782 33.9533 35.9533C33.5782 36.3283 33.0695 36.5391 32.5391 36.5391H20.5391C20.0086 36.5391 19.4999 36.3283 19.1248 35.9533C18.7498 35.5782 18.5391 35.0695 18.5391 34.5391V20.5391C18.5391 20.0086 18.7498 19.4999 19.1248 19.1248C19.4999 18.7498 20.0086 18.5391 20.5391 18.5391H22.5391" stroke="#C53637" stroke-width="1.45833" stroke-linecap="round" stroke-linejoin="round"/>
<path d="M23.5391 28.5391L25.5391 30.5391L29.5391 26.5391" stroke="#C53637" stroke-width="1.45833" stroke-linecap="round" stroke-linejoin="round"/>
</svg>
