<svg width="54" height="54" viewBox="0 0 54 54" fill="none" xmlns="http://www.w3.org/2000/svg">
<rect width="53.0747" height="53.0747" rx="26.5374" fill="#FCEDED"/>
<path d="M30.5391 35.5371V33.5371C30.5391 32.4762 30.1176 31.4588 29.3675 30.7087C28.6173 29.9585 27.5999 29.5371 26.5391 29.5371H20.5391C19.4782 29.5371 18.4608 29.9585 17.7106 30.7087C16.9605 31.4588 16.5391 32.4762 16.5391 33.5371V35.5371" stroke="#C53637" stroke-width="1.45833" stroke-linecap="round" stroke-linejoin="round"/>
<path d="M23.5391 25.5371C25.7482 25.5371 27.5391 23.7462 27.5391 21.5371C27.5391 19.328 25.7482 17.5371 23.5391 17.5371C21.3299 17.5371 19.5391 19.328 19.5391 21.5371C19.5391 23.7462 21.3299 25.5371 23.5391 25.5371Z" stroke="#C53637" stroke-width="1.45833" stroke-linecap="round" stroke-linejoin="round"/>
<path d="M36.5391 25.5371H30.5391" stroke="#C53637" stroke-width="1.45833" stroke-linecap="round" stroke-linejoin="round"/>
</svg>
