<svg width="26" height="26" viewBox="0 0 26 26" fill="none" xmlns="http://www.w3.org/2000/svg">
<path d="M12.9998 23.8332C18.9829 23.8332 23.8332 18.9829 23.8332 12.9998C23.8332 7.01675 18.9829 2.1665 12.9998 2.1665C7.01675 2.1665 2.1665 7.01675 2.1665 12.9998C2.1665 18.9829 7.01675 23.8332 12.9998 23.8332Z" stroke="white" stroke-width="2" stroke-linecap="round" stroke-linejoin="round"/>
<path d="M5.34082 5.34082L9.93415 9.93415" stroke="white" stroke-width="2" stroke-linecap="round" stroke-linejoin="round"/>
<path d="M16.0659 9.93415L20.6593 5.34082" stroke="white" stroke-width="2" stroke-linecap="round" stroke-linejoin="round"/>
<path d="M16.0659 16.0659L20.6593 20.6593" stroke="white" stroke-width="2" stroke-linecap="round" stroke-linejoin="round"/>
<path d="M9.93415 16.0659L5.34082 20.6593" stroke="white" stroke-width="2" stroke-linecap="round" stroke-linejoin="round"/>
<path d="M12.9998 17.3332C15.3931 17.3332 17.3332 15.3931 17.3332 12.9998C17.3332 10.6066 15.3931 8.6665 12.9998 8.6665C10.6066 8.6665 8.6665 10.6066 8.6665 12.9998C8.6665 15.3931 10.6066 17.3332 12.9998 17.3332Z" stroke="white" stroke-width="2" stroke-linecap="round" stroke-linejoin="round"/>
</svg>
