<svg width="26" height="26" viewBox="0 0 26 26" fill="none" xmlns="http://www.w3.org/2000/svg">
<path d="M21.6668 14.0832C21.6668 19.4998 17.8752 22.2082 13.3685 23.779C13.1325 23.859 12.8762 23.8551 12.6427 23.7682C8.12516 22.2082 4.3335 19.4998 4.3335 14.0832V6.49984C4.3335 6.21252 4.44763 5.93697 4.6508 5.7338C4.85396 5.53064 5.12951 5.4165 5.41683 5.4165C7.5835 5.4165 10.2918 4.1165 12.1768 2.46984C12.4063 2.27375 12.6983 2.16602 13.0002 2.16602C13.302 2.16602 13.594 2.27375 13.8235 2.46984C15.7193 4.12734 18.4168 5.4165 20.5835 5.4165C20.8708 5.4165 21.1464 5.53064 21.3495 5.7338C21.5527 5.93697 21.6668 6.21252 21.6668 6.49984V14.0832Z" stroke="white" stroke-width="2" stroke-linecap="round" stroke-linejoin="round"/>
<path d="M9.75 13.0002L11.9167 15.1668L16.25 10.8335" stroke="white" stroke-width="2" stroke-linecap="round" stroke-linejoin="round"/>
</svg>
