<svg width="26" height="26" viewBox="0 0 26 26" fill="none" xmlns="http://www.w3.org/2000/svg">
<path d="M4.33312 15.1669C4.12812 15.1676 3.92712 15.1101 3.75349 15.0011C3.57985 14.8921 3.44071 14.7361 3.35222 14.5512C3.26373 14.3663 3.22952 14.16 3.25358 13.9564C3.27764 13.7528 3.35897 13.5603 3.48812 13.401L14.2131 2.35105C14.2936 2.25819 14.4032 2.19544 14.524 2.17309C14.6448 2.15075 14.7697 2.17015 14.878 2.2281C14.9863 2.28605 15.0718 2.37911 15.1202 2.492C15.1687 2.6049 15.1774 2.73092 15.1448 2.84938L13.0648 9.37105C13.0035 9.5352 12.9829 9.71178 13.0048 9.88564C13.0267 10.0595 13.0904 10.2255 13.1906 10.3693C13.2907 10.5131 13.4242 10.6304 13.5797 10.7113C13.7351 10.7922 13.9079 10.8341 14.0831 10.8336H21.6665C21.8715 10.8329 22.0725 10.8903 22.2461 10.9993C22.4197 11.1083 22.5589 11.2643 22.6474 11.4493C22.7359 11.6342 22.7701 11.8404 22.746 12.044C22.7219 12.2476 22.6406 12.4402 22.5115 12.5994L11.7865 23.6494C11.706 23.7422 11.5964 23.805 11.4756 23.8273C11.3547 23.8497 11.2299 23.8303 11.1216 23.7723C11.0132 23.7144 10.9278 23.6213 10.8793 23.5084C10.8309 23.3955 10.8222 23.2695 10.8548 23.151L12.9348 16.6294C12.9961 16.4652 13.0167 16.2887 12.9948 16.1148C12.9729 15.9409 12.9092 15.775 12.809 15.6312C12.7089 15.4874 12.5754 15.37 12.4199 15.2891C12.2644 15.2083 12.0917 15.1663 11.9165 15.1669H4.33312Z" stroke="white" stroke-width="2" stroke-linecap="round" stroke-linejoin="round"/>
</svg>
