<svg width="26" height="26" viewBox="0 0 26 26" fill="none" xmlns="http://www.w3.org/2000/svg">
<path d="M10.8333 14.0835C11.2986 14.7054 11.8921 15.2201 12.5738 15.5925C13.2554 15.9649 14.0091 16.1863 14.7839 16.2418C15.5586 16.2973 16.3362 16.1855 17.064 15.9141C17.7917 15.6426 18.4526 15.2178 19.0017 14.6685L22.2517 11.4185C23.2384 10.3969 23.7843 9.0286 23.772 7.60837C23.7597 6.18814 23.19 4.82957 22.1857 3.82527C21.1814 2.82098 19.8228 2.25132 18.4026 2.23897C16.9824 2.22663 15.6141 2.7726 14.5925 3.75929L12.7292 5.61179" stroke="#0019FF" stroke-width="2" stroke-linecap="round" stroke-linejoin="round"/>
<path d="M15.1667 11.9168C14.7014 11.2949 14.1079 10.7802 13.4262 10.4078C12.7446 10.0354 11.9909 9.81395 11.2161 9.75847C10.4414 9.70298 9.66378 9.81476 8.93605 10.0862C8.20831 10.3577 7.54746 10.7825 6.99834 11.3318L3.74834 14.5818C2.76165 15.6034 2.21568 16.9717 2.22802 18.3919C2.24036 19.8122 2.81002 21.1707 3.81432 22.175C4.81861 23.1793 6.17718 23.749 7.59741 23.7613C9.01765 23.7737 10.3859 23.2277 11.4075 22.241L13.26 20.3885" stroke="#0019FF" stroke-width="2" stroke-linecap="round" stroke-linejoin="round"/>
</svg>
