<svg width="26" height="26" viewBox="0 0 26 26" fill="none" xmlns="http://www.w3.org/2000/svg">
<path d="M2.23382 13.3771C2.14354 13.1339 2.14354 12.8664 2.23382 12.6231C3.11316 10.491 4.6058 8.66794 6.52249 7.38512C8.43918 6.1023 10.6936 5.41748 13 5.41748C15.3064 5.41748 17.5608 6.1023 19.4775 7.38512C21.3942 8.66794 22.8868 10.491 23.7662 12.6231C23.8564 12.8664 23.8564 13.1339 23.7662 13.3771C22.8868 15.5093 21.3942 17.3324 19.4775 18.6152C17.5608 19.898 15.3064 20.5828 13 20.5828C10.6936 20.5828 8.43918 19.898 6.52249 18.6152C4.6058 17.3324 3.11316 15.5093 2.23382 13.3771Z" stroke="#0019FF" stroke-width="2" stroke-linecap="round" stroke-linejoin="round"/>
<path d="M13 16.25C14.7949 16.25 16.25 14.7949 16.25 13C16.25 11.2051 14.7949 9.75 13 9.75C11.2051 9.75 9.75 11.2051 9.75 13C9.75 14.7949 11.2051 16.25 13 16.25Z" stroke="#0019FF" stroke-width="2" stroke-linecap="round" stroke-linejoin="round"/>
</svg>
