<svg width="26" height="26" viewBox="0 0 26 26" fill="none" xmlns="http://www.w3.org/2000/svg">
<path d="M8.66667 3.25H5.41667C4.84203 3.25 4.29093 3.47827 3.8846 3.8846C3.47827 4.29093 3.25 4.84203 3.25 5.41667V8.66667" stroke="#0019FF" stroke-width="2" stroke-linecap="round" stroke-linejoin="round"/>
<path d="M22.75 8.66667V5.41667C22.75 4.84203 22.5217 4.29093 22.1154 3.8846C21.7091 3.47827 21.158 3.25 20.5833 3.25H17.3333" stroke="#0019FF" stroke-width="2" stroke-linecap="round" stroke-linejoin="round"/>
<path d="M3.25 17.3335V20.5835C3.25 21.1581 3.47827 21.7092 3.8846 22.1156C4.29093 22.5219 4.84203 22.7502 5.41667 22.7502H8.66667" stroke="#0019FF" stroke-width="2" stroke-linecap="round" stroke-linejoin="round"/>
<path d="M17.3333 22.7502H20.5833C21.158 22.7502 21.7091 22.5219 22.1154 22.1156C22.5217 21.7092 22.75 21.1581 22.75 20.5835V17.3335" stroke="#0019FF" stroke-width="2" stroke-linecap="round" stroke-linejoin="round"/>
</svg>
