<svg width="53" height="53" viewBox="0 0 53 53" fill="none" xmlns="http://www.w3.org/2000/svg">
<rect x="0.5" y="0.5" width="52" height="52" rx="26" fill="#2747B8"/>
<rect x="0.5" y="0.5" width="52" height="52" rx="26" stroke="#536BC9"/>
<path d="M34.5 27.5004C34.5 32.5004 31 35.0004 26.84 36.4504C26.6222 36.5243 26.3855 36.5207 26.17 36.4404C22 35.0004 18.5 32.5004 18.5 27.5004V20.5004C18.5 20.2352 18.6054 19.9809 18.7929 19.7933C18.9804 19.6058 19.2348 19.5004 19.5 19.5004C21.5 19.5004 24 18.3004 25.74 16.7804C25.9519 16.5994 26.2214 16.5 26.5 16.5C26.7786 16.5 27.0481 16.5994 27.26 16.7804C29.01 18.3104 31.5 19.5004 33.5 19.5004C33.7652 19.5004 34.0196 19.6058 34.2071 19.7933C34.3946 19.9809 34.5 20.2352 34.5 20.5004V27.5004Z" stroke="white" stroke-width="1.45833" stroke-linecap="round" stroke-linejoin="round"/>
<path d="M23.5 26.5L25.5 28.5L29.5 24.5" stroke="white" stroke-width="1.45833" stroke-linecap="round" stroke-linejoin="round"/>
</svg>
