<svg width="24" height="24" viewBox="0 0 24 24" fill="none" xmlns="http://www.w3.org/2000/svg">
<path d="M3.67981 11.3333H2.92981V11.3333H3.67981ZM3.67981 13L3.15157 13.5324C3.44398 13.8225 3.91565 13.8225 4.20805 13.5324L3.67981 13ZM5.88787 11.8657C6.18191 11.574 6.18377 11.0991 5.89203 10.8051C5.60029 10.511 5.12542 10.5092 4.83138 10.8009L5.35962 11.3333L5.88787 11.8657ZM2.52824 10.8009C2.2342 10.5092 1.75933 10.511 1.46759 10.8051C1.17585 11.0991 1.17772 11.574 1.47176 11.8657L2 11.3333L2.52824 10.8009ZM18.6156 7.39279C18.8325 7.74565 19.2944 7.85585 19.6473 7.63892C20.0001 7.42199 20.1103 6.96007 19.8934 6.60721L19.2545 7L18.6156 7.39279ZM12.0789 3V2.25C7.03155 2.25 2.92981 6.3112 2.92981 11.3333H3.67981H4.42981C4.42981 7.15072 7.84884 3.75 12.0789 3.75V3ZM3.67981 11.3333H2.92981L2.92981 13H3.67981H4.42981L4.42981 11.3333H3.67981ZM3.67981 13L4.20805 13.5324L5.88787 11.8657L5.35962 11.3333L4.83138 10.8009L3.15157 12.4676L3.67981 13ZM3.67981 13L4.20805 12.4676L2.52824 10.8009L2 11.3333L1.47176 11.8657L3.15157 13.5324L3.67981 13ZM19.2545 7L19.8934 6.60721C18.287 3.99427 15.3873 2.25 12.0789 2.25V3V3.75C14.8484 3.75 17.2727 5.20845 18.6156 7.39279L19.2545 7Z" fill="white"/>
<path d="M20.3139 11L20.8411 10.4666C20.549 10.1778 20.0788 10.1778 19.7867 10.4666L20.3139 11ZM18.1004 12.1333C17.8058 12.4244 17.8031 12.8993 18.0942 13.1939C18.3854 13.4885 18.8603 13.4913 19.1549 13.2001L18.6277 12.6667L18.1004 12.1333ZM21.4729 13.2001C21.7675 13.4913 22.2424 13.4885 22.5335 13.1939C22.8247 12.8993 22.822 12.4244 22.5274 12.1332L22.0001 12.6667L21.4729 13.2001ZM5.31794 16.6061C5.1004 16.2536 4.6383 16.1442 4.28581 16.3618C3.93331 16.5793 3.82391 17.0414 4.04144 17.3939L4.67969 17L5.31794 16.6061ZM11.8827 21V21.75C16.9451 21.75 21.0639 17.6915 21.0639 12.6667H20.3139H19.5639C19.5639 16.8466 16.1332 20.25 11.8827 20.25V21ZM20.3139 12.6667H21.0639V11H20.3139H19.5639V12.6667H20.3139ZM20.3139 11L19.7867 10.4666L18.1004 12.1333L18.6277 12.6667L19.1549 13.2001L20.8411 11.5334L20.3139 11ZM20.3139 11L19.7867 11.5334L21.4729 13.2001L22.0001 12.6667L22.5274 12.1332L20.8411 10.4666L20.3139 11ZM4.67969 17L4.04144 17.3939C5.65405 20.007 8.56403 21.75 11.8827 21.75V21V20.25C9.10023 20.25 6.66584 18.7903 5.31794 16.6061L4.67969 17Z" fill="white"/>
</svg>
