<svg width="54" height="54" viewBox="0 0 54 54" fill="none" xmlns="http://www.w3.org/2000/svg">
<rect width="53.0747" height="53.0747" rx="26.5374" fill="#FCEDED"/>
<path d="M30.5391 34.5371V18.5371C30.5391 18.0067 30.3283 17.498 29.9533 17.1229C29.5782 16.7478 29.0695 16.5371 28.5391 16.5371H24.5391C24.0086 16.5371 23.4999 16.7478 23.1248 17.1229C22.7498 17.498 22.5391 18.0067 22.5391 18.5371V34.5371" stroke="#C53637" stroke-width="1.45833" stroke-linecap="round" stroke-linejoin="round"/>
<path d="M34.5391 20.5371H18.5391C17.4345 20.5371 16.5391 21.4325 16.5391 22.5371V32.5371C16.5391 33.6417 17.4345 34.5371 18.5391 34.5371H34.5391C35.6436 34.5371 36.5391 33.6417 36.5391 32.5371V22.5371C36.5391 21.4325 35.6436 20.5371 34.5391 20.5371Z" stroke="#C53637" stroke-width="1.45833" stroke-linecap="round" stroke-linejoin="round"/>
</svg>
