<svg width="54" height="54" viewBox="0 0 54 54" fill="none" xmlns="http://www.w3.org/2000/svg">
<rect width="53.0747" height="53.0747" rx="26.5374" fill="#FCEDED"/>
<path d="M33.5391 21.5391V18.5391C33.5391 18.2738 33.4337 18.0195 33.2462 17.832C33.0586 17.6444 32.8043 17.5391 32.5391 17.5391H19.5391C19.0086 17.5391 18.4999 17.7498 18.1248 18.1248C17.7498 18.4999 17.5391 19.0086 17.5391 19.5391C17.5391 20.0695 17.7498 20.5782 18.1248 20.9533C18.4999 21.3283 19.0086 21.5391 19.5391 21.5391H34.5391C34.8043 21.5391 35.0586 21.6444 35.2462 21.832C35.4337 22.0195 35.5391 22.2738 35.5391 22.5391V26.5391M35.5391 26.5391H32.5391C32.0086 26.5391 31.4999 26.7498 31.1248 27.1248C30.7498 27.4999 30.5391 28.0086 30.5391 28.5391C30.5391 29.0695 30.7498 29.5782 31.1248 29.9533C31.4999 30.3283 32.0086 30.5391 32.5391 30.5391H35.5391C35.8043 30.5391 36.0586 30.4337 36.2462 30.2462C36.4337 30.0586 36.5391 29.8043 36.5391 29.5391V27.5391C36.5391 27.2738 36.4337 27.0195 36.2462 26.832C36.0586 26.6444 35.8043 26.5391 35.5391 26.5391Z" stroke="#C53637" stroke-width="1.45833" stroke-linecap="round" stroke-linejoin="round"/>
<path d="M17.5391 19.5391V33.5391C17.5391 34.0695 17.7498 34.5782 18.1248 34.9533C18.4999 35.3283 19.0086 35.5391 19.5391 35.5391H34.5391C34.8043 35.5391 35.0586 35.4337 35.2462 35.2462C35.4337 35.0586 35.5391 34.8043 35.5391 34.5391V30.5391" stroke="#C53637" stroke-width="1.45833" stroke-linecap="round" stroke-linejoin="round"/>
</svg>
