<svg width="26" height="26" viewBox="0 0 26 26" fill="none" xmlns="http://www.w3.org/2000/svg">
<path d="M6.49984 15.1668L8.12484 12.0251C8.3015 11.6743 8.57022 11.378 8.90225 11.1681C9.23428 10.9582 9.61713 10.8425 10.0098 10.8334H21.6665M21.6665 10.8334C21.9975 10.8329 22.3242 10.9081 22.6216 11.0534C22.919 11.1988 23.1791 11.4103 23.382 11.6718C23.585 11.9333 23.7253 12.2378 23.7922 12.562C23.8591 12.8861 23.8509 13.2213 23.7682 13.5418L22.0998 20.0418C21.9791 20.5093 21.7057 20.9231 21.323 21.2175C20.9403 21.5119 20.4702 21.67 19.9873 21.6668H4.33317C3.75853 21.6668 3.20743 21.4385 2.80111 21.0322C2.39478 20.6258 2.1665 20.0747 2.1665 19.5001V5.41677C2.1665 4.84214 2.39478 4.29103 2.80111 3.88471C3.20743 3.47838 3.75853 3.2501 4.33317 3.2501H8.55817C8.92053 3.24655 9.278 3.33394 9.59785 3.50428C9.91769 3.67461 10.1897 3.92245 10.389 4.2251L11.2665 5.5251C11.4638 5.82468 11.7324 6.07059 12.0481 6.24076C12.3639 6.41093 12.717 6.50005 13.0757 6.5001H19.4998C20.0745 6.5001 20.6256 6.72838 21.0319 7.13471C21.4382 7.54103 21.6665 8.09214 21.6665 8.66677V10.8334Z" stroke="#1D4FD7" stroke-width="2" stroke-linecap="round" stroke-linejoin="round"/>
</svg>
