<svg width="26" height="26" viewBox="0 0 26 26" fill="none" xmlns="http://www.w3.org/2000/svg">
<path d="M13 8.6665C18.3848 8.6665 22.75 7.21143 22.75 5.4165C22.75 3.62158 18.3848 2.1665 13 2.1665C7.61522 2.1665 3.25 3.62158 3.25 5.4165C3.25 7.21143 7.61522 8.6665 13 8.6665Z" stroke="#1D4FD7" stroke-width="2" stroke-linecap="round" stroke-linejoin="round"/>
<path d="M3.25 5.4165V20.5832C3.25 21.4451 4.27723 22.2718 6.10571 22.8813C7.93419 23.4908 10.4141 23.8332 13 23.8332C15.5859 23.8332 18.0658 23.4908 19.8943 22.8813C21.7228 22.2718 22.75 21.4451 22.75 20.5832V5.4165" stroke="#1D4FD7" stroke-width="2" stroke-linecap="round" stroke-linejoin="round"/>
<path d="M3.25 13C3.25 13.862 4.27723 14.6886 6.10571 15.2981C7.93419 15.9076 10.4141 16.25 13 16.25C15.5859 16.25 18.0658 15.9076 19.8943 15.2981C21.7228 14.6886 22.75 13.862 22.75 13" stroke="#1D4FD7" stroke-width="2" stroke-linecap="round" stroke-linejoin="round"/>
</svg>
