<svg width="26" height="26" viewBox="0 0 26 26" fill="none" xmlns="http://www.w3.org/2000/svg">
<path d="M16.2502 2.1665H6.50016C5.92553 2.1665 5.37443 2.39478 4.9681 2.80111C4.56177 3.20743 4.3335 3.75853 4.3335 4.33317V21.6665C4.3335 22.2411 4.56177 22.7922 4.9681 23.1986C5.37443 23.6049 5.92553 23.8332 6.50016 23.8332H19.5002C20.0748 23.8332 20.6259 23.6049 21.0322 23.1986C21.4386 22.7922 21.6668 22.2411 21.6668 21.6665V7.58317L16.2502 2.1665Z" stroke="#1D4FD7" stroke-width="2" stroke-linecap="round" stroke-linejoin="round"/>
<path d="M15.1665 2.1665V6.49984C15.1665 7.07447 15.3948 7.62557 15.8011 8.0319C16.2074 8.43823 16.7585 8.6665 17.3332 8.6665H21.6665" stroke="#1D4FD7" stroke-width="2" stroke-linecap="round" stroke-linejoin="round"/>
<path d="M10.8332 9.75H8.6665" stroke="#1D4FD7" stroke-width="2" stroke-linecap="round" stroke-linejoin="round"/>
<path d="M17.3332 14.0835H8.6665" stroke="#1D4FD7" stroke-width="2" stroke-linecap="round" stroke-linejoin="round"/>
<path d="M17.3332 18.4165H8.6665" stroke="#1D4FD7" stroke-width="2" stroke-linecap="round" stroke-linejoin="round"/>
</svg>
