<svg width="26" height="26" viewBox="0 0 26 26" fill="none" xmlns="http://www.w3.org/2000/svg">
<path d="M17.3332 22.75V20.5833C17.3332 19.4341 16.8766 18.3319 16.064 17.5192C15.2513 16.7065 14.1491 16.25 12.9998 16.25H6.49984C5.35057 16.25 4.24837 16.7065 3.43571 17.5192C2.62305 18.3319 2.1665 19.4341 2.1665 20.5833V22.75" stroke="#1D4FD7" stroke-width="2" stroke-linecap="round" stroke-linejoin="round"/>
<path d="M9.74984 11.9167C12.1431 11.9167 14.0832 9.97657 14.0832 7.58333C14.0832 5.1901 12.1431 3.25 9.74984 3.25C7.3566 3.25 5.4165 5.1901 5.4165 7.58333C5.4165 9.97657 7.3566 11.9167 9.74984 11.9167Z" stroke="#1D4FD7" stroke-width="2" stroke-linecap="round" stroke-linejoin="round"/>
<path d="M17.3335 11.9167L19.5002 14.0833L23.8335 9.75" stroke="#1D4FD7" stroke-width="2" stroke-linecap="round" stroke-linejoin="round"/>
</svg>
