<svg width="15" height="90" viewBox="0 0 15 90" fill="none" xmlns="http://www.w3.org/2000/svg">
<path d="M8.36395 1C8.36395 0.447715 7.91624 0 7.36395 0C6.81167 0 6.36395 0.447715 6.36395 1H7.36395H8.36395ZM6.65685 89.5689C7.04737 89.9594 7.68054 89.9594 8.07106 89.5689L14.435 83.2049C14.8255 82.8144 14.8255 82.1812 14.435 81.7907C14.0445 81.4002 13.4113 81.4002 13.0208 81.7907L7.36395 87.4476L1.7071 81.7907C1.31657 81.4002 0.683409 81.4002 0.292885 81.7907C-0.0976396 82.1812 -0.0976396 82.8144 0.292885 83.2049L6.65685 89.5689ZM7.36395 1H6.36395V4.82008H7.36395H8.36395V1H7.36395ZM7.36395 8.64015H6.36395V12.4602H7.36395H8.36395V8.64015H7.36395ZM7.36395 16.2803H6.36395V20.1004H7.36395H8.36395V16.2803H7.36395ZM7.36395 23.9205H6.36395V27.7405H7.36395H8.36395V23.9205H7.36395ZM7.36395 31.5606H6.36395V35.3807H7.36395H8.36395V31.5606H7.36395ZM7.36395 39.2008H6.36395V43.0209H7.36395H8.36395V39.2008H7.36395ZM7.36395 46.8409H6.36395V50.661H7.36395H8.36395V46.8409H7.36395ZM7.36395 54.4811H6.36395V58.3012H7.36395H8.36395V54.4811H7.36395ZM7.36395 62.1212H6.36395V65.9413H7.36395H8.36395V62.1212H7.36395ZM7.36395 69.7614H6.36395V73.5815H7.36395H8.36395V69.7614H7.36395ZM7.36395 77.4015H6.36395V81.2216H7.36395H8.36395V77.4015H7.36395ZM7.36395 85.0417H6.36395V88.8618H7.36395H8.36395V85.0417H7.36395Z" fill="#0012B5"/>
</svg>
