<svg width="58" height="31" viewBox="0 0 58 31" fill="none" xmlns="http://www.w3.org/2000/svg">
<path d="M17.7176 19.9268H11.0938V26.5509H17.7176V19.9268Z" fill="#00E59E"/>
<path d="M17.7185 15.5109V8.88677H11.0946V4.4707H4.4707V19.9269H11.0946V15.5109H17.7185Z" fill="#0019FF"/>
<path d="M22.6774 5.33301C22.2849 5.33301 21.9506 5.47101 21.6746 5.74395C21.3986 6.01995 21.2637 6.35116 21.2637 6.74676C21.2637 7.14237 21.4017 7.47357 21.6746 7.74958C21.9475 8.02252 22.2818 8.16052 22.6774 8.16052C23.073 8.16052 23.4042 8.02252 23.6802 7.74958C23.9531 7.47664 24.0911 7.14237 24.0911 6.74676C24.0911 6.35116 23.9531 6.01995 23.6802 5.74395C23.4042 5.47101 23.073 5.33301 22.6774 5.33301Z" fill="#131B31"/>
<path d="M23.9677 9.07422H21.3887V18.394H23.9677V9.07422Z" fill="#131B31"/>
<path d="M34.5278 5.16113H31.9487V10.1629H31.8874C31.6175 9.6968 31.2373 9.338 30.7466 9.08346C30.256 8.82892 29.6672 8.70319 28.9833 8.70319C28.094 8.70319 27.3304 8.90252 26.6926 9.3012C26.0547 9.69987 25.5732 10.2641 25.239 10.994C24.9078 11.7239 24.7422 12.5764 24.7422 13.5486C24.7422 14.5207 24.9139 15.358 25.2543 16.0878C25.5947 16.8177 26.1007 17.3851 26.7692 17.7899C27.4377 18.1947 28.2473 18.3971 29.201 18.3971C29.9861 18.3971 30.6577 18.2468 31.2127 17.9463C31.7678 17.6457 32.2094 17.2256 32.5406 16.6889H33.1938V18.21H35.8035V15.6616H34.5308V5.16113H34.5278ZM31.9518 13.9687C31.9518 14.6526 31.7463 15.1893 31.3385 15.5757C30.9306 15.9652 30.3786 16.1584 29.6856 16.1584C28.8975 16.1584 28.3087 15.9253 27.9161 15.4592C27.5236 14.993 27.3273 14.3551 27.3273 13.5486C27.3273 12.742 27.5236 12.1042 27.9161 11.638C28.3087 11.1719 28.9005 10.9388 29.6856 10.9388C30.3786 10.9388 30.9306 11.132 31.3385 11.5215C31.7463 11.911 31.9518 12.4446 31.9518 13.1285V13.9687Z" fill="#131B31"/>
<path d="M39.6552 11.095H41.7835V9.07712H39.6246V6.28027H37.11V9.07712H35.4785V11.095H37.0793V16.3452C37.0793 17.0383 37.2633 17.5535 37.6313 17.8909C37.9993 18.2282 38.5145 18.3969 39.1769 18.3969H42.0043V16.379H39.6583V11.0981L39.6552 11.095Z" fill="#131B31"/>
<path d="M51.3981 10.9694C50.9933 10.2457 50.4198 9.68447 49.6746 9.29193C48.9294 8.89939 48.0493 8.70312 47.0343 8.70312C46.0192 8.70312 45.1176 8.89939 44.3632 9.29193C43.6058 9.68447 43.0262 10.2457 42.6153 10.9694C42.2074 11.6932 42.002 12.5488 42.002 13.5332C42.002 14.5176 42.2105 15.3855 42.6245 16.1123C43.0385 16.8391 43.6211 17.4003 44.3724 17.7959C45.1238 18.1946 46.007 18.3939 47.0189 18.3939C48.0309 18.3939 48.9172 18.1977 49.6654 17.8051C50.4167 17.4126 50.9933 16.8514 51.3981 16.1215C51.8029 15.3916 52.0053 14.536 52.0053 13.5516C52.0053 12.5672 51.8029 11.6993 51.3981 10.9725V10.9694ZM48.8037 15.4499C48.3897 15.9222 47.7948 16.1552 47.0189 16.1552C46.2431 16.1552 45.6298 15.9191 45.2096 15.4499C44.7895 14.9776 44.581 14.3397 44.581 13.5332C44.581 12.7267 44.7895 12.0918 45.2096 11.6318C45.6298 11.1718 46.2308 10.9418 47.0189 10.9418C47.8071 10.9418 48.3897 11.1718 48.8037 11.6318C49.2177 12.0918 49.4262 12.7267 49.4262 13.5332C49.4262 14.3397 49.2177 14.9807 48.8037 15.4499Z" fill="#131B31"/>
</svg>
