<svg width="26" height="26" viewBox="0 0 26 26" fill="none" xmlns="http://www.w3.org/2000/svg">
<path d="M16.25 22.75V17.3333C16.25 17.046 16.1359 16.7705 15.9327 16.5673C15.7295 16.3641 15.454 16.25 15.1667 16.25H10.8333C10.546 16.25 10.2705 16.3641 10.0673 16.5673C9.86414 16.7705 9.75 17.046 9.75 17.3333V22.75" stroke="#1D4FD7" stroke-width="2" stroke-linecap="round" stroke-linejoin="round"/>
<path d="M19.2552 11.1695C19.0293 10.9533 18.7288 10.8326 18.4161 10.8326C18.1035 10.8326 17.8029 10.9533 17.5771 11.1695C17.0733 11.65 16.4039 11.918 15.7078 11.918C15.0116 11.918 14.3422 11.65 13.8385 11.1695C13.6127 10.9536 13.3124 10.8331 13 10.8331C12.6876 10.8331 12.3873 10.9536 12.1615 11.1695C11.6577 11.6503 10.9881 11.9185 10.2917 11.9185C9.59526 11.9185 8.92562 11.6503 8.42182 11.1695C8.19599 10.9533 7.89542 10.8326 7.58278 10.8326C7.27014 10.8326 6.96957 10.9533 6.74374 11.1695C6.25715 11.6338 5.6152 11.9005 4.94283 11.9176C4.27047 11.9347 3.61579 11.701 3.10624 11.262C2.59668 10.823 2.2687 10.2101 2.18614 9.54259C2.10358 8.87509 2.27234 8.20075 2.65957 7.65083L5.78932 3.11816C5.9879 2.82513 6.25526 2.58522 6.568 2.4194C6.88074 2.25359 7.22934 2.16693 7.58332 2.16699H18.4167C18.7696 2.16686 19.1172 2.25295 19.4293 2.41777C19.7414 2.5826 20.0085 2.82117 20.2074 3.11274L23.3437 7.65408C23.731 8.20444 23.8995 8.87929 23.8164 9.54713C23.7334 10.215 23.4046 10.828 22.8943 11.2667C22.3839 11.7053 21.7285 11.9383 21.0557 11.9201C20.383 11.902 19.7411 11.634 19.2552 11.1684" stroke="#1D4FD7" stroke-width="2" stroke-linecap="round" stroke-linejoin="round"/>
<path d="M4.33334 11.8623V20.5831C4.33334 21.1578 4.56162 21.7089 4.96795 22.1152C5.37427 22.5215 5.92537 22.7498 6.50001 22.7498H19.5C20.0746 22.7498 20.6257 22.5215 21.0321 22.1152C21.4384 21.7089 21.6667 21.1578 21.6667 20.5831V11.8623" stroke="#1D4FD7" stroke-width="2" stroke-linecap="round" stroke-linejoin="round"/>
</svg>
