<svg width="26" height="26" viewBox="0 0 26 26" fill="none" xmlns="http://www.w3.org/2000/svg">
<path d="M20.5833 7.58333V4.33333C20.5833 4.04602 20.4692 3.77047 20.266 3.5673C20.0629 3.36414 19.7873 3.25 19.5 3.25H5.41667C4.84203 3.25 4.29093 3.47827 3.8846 3.8846C3.47827 4.29093 3.25 4.84203 3.25 5.41667C3.25 5.9913 3.47827 6.5424 3.8846 6.94873C4.29093 7.35506 4.84203 7.58333 5.41667 7.58333H21.6667C21.954 7.58333 22.2295 7.69747 22.4327 7.90063C22.6359 8.1038 22.75 8.37935 22.75 8.66667V13M22.75 13H19.5C18.9254 13 18.3743 13.2283 17.9679 13.6346C17.5616 14.0409 17.3333 14.592 17.3333 15.1667C17.3333 15.7413 17.5616 16.2924 17.9679 16.6987C18.3743 17.1051 18.9254 17.3333 19.5 17.3333H22.75C23.0373 17.3333 23.3129 17.2192 23.516 17.016C23.7192 16.8129 23.8333 16.5373 23.8333 16.25V14.0833C23.8333 13.796 23.7192 13.5205 23.516 13.3173C23.3129 13.1141 23.0373 13 22.75 13Z" stroke="#1D4FD7" stroke-width="2" stroke-linecap="round" stroke-linejoin="round"/>
<path d="M3.25 5.41699V20.5837C3.25 21.1583 3.47827 21.7094 3.8846 22.1157C4.29093 22.5221 4.84203 22.7503 5.41667 22.7503H21.6667C21.954 22.7503 22.2295 22.6362 22.4327 22.433C22.6359 22.2299 22.75 21.9543 22.75 21.667V17.3337" stroke="#1D4FD7" stroke-width="2" stroke-linecap="round" stroke-linejoin="round"/>
</svg>
