<svg width="26" height="26" viewBox="0 0 26 26" fill="none" xmlns="http://www.w3.org/2000/svg">
<path d="M10.8333 13H15.1667" stroke="#1D4FD7" stroke-width="2" stroke-linecap="round" stroke-linejoin="round"/>
<path d="M10.8333 8.66699H15.1667" stroke="#1D4FD7" stroke-width="2" stroke-linecap="round" stroke-linejoin="round"/>
<path d="M15.1667 22.7497V19.4997C15.1667 18.925 14.9384 18.3739 14.5321 17.9676C14.1257 17.5613 13.5746 17.333 13 17.333C12.4254 17.333 11.8743 17.5613 11.4679 17.9676C11.0616 18.3739 10.8333 18.925 10.8333 19.4997V22.7497" stroke="#1D4FD7" stroke-width="2" stroke-linecap="round" stroke-linejoin="round"/>
<path d="M6.5 10.833H4.33334C3.7587 10.833 3.2076 11.0613 2.80127 11.4676C2.39494 11.8739 2.16667 12.425 2.16667 12.9997V20.583C2.16667 21.1576 2.39494 21.7087 2.80127 22.1151C3.2076 22.5214 3.7587 22.7497 4.33334 22.7497H21.6667C22.2413 22.7497 22.7924 22.5214 23.1987 22.1151C23.6051 21.7087 23.8333 21.1576 23.8333 20.583V9.74967C23.8333 9.17504 23.6051 8.62394 23.1987 8.21761C22.7924 7.81128 22.2413 7.58301 21.6667 7.58301H19.5" stroke="#1D4FD7" stroke-width="2" stroke-linecap="round" stroke-linejoin="round"/>
<path d="M6.5 22.75V5.41667C6.5 4.84203 6.72827 4.29093 7.1346 3.8846C7.54093 3.47827 8.09203 3.25 8.66667 3.25H17.3333C17.908 3.25 18.4591 3.47827 18.8654 3.8846C19.2717 4.29093 19.5 4.84203 19.5 5.41667V22.75" stroke="#1D4FD7" stroke-width="2" stroke-linecap="round" stroke-linejoin="round"/>
</svg>
