<svg width="26" height="26" viewBox="0 0 26 26" fill="none" xmlns="http://www.w3.org/2000/svg">
<path d="M16.2497 2.16675H6.49967C5.92504 2.16675 5.37394 2.39502 4.96761 2.80135C4.56128 3.20768 4.33301 3.75878 4.33301 4.33341V21.6667C4.33301 22.2414 4.56128 22.7925 4.96761 23.1988C5.37394 23.6051 5.92504 23.8334 6.49967 23.8334H19.4997C20.0743 23.8334 20.6254 23.6051 21.0317 23.1988C21.4381 22.7925 21.6663 22.2414 21.6663 21.6667V7.58341L16.2497 2.16675Z" stroke="#1A9948" stroke-width="2" stroke-linecap="round" stroke-linejoin="round"/>
<path d="M15.167 2.16675V6.50008C15.167 7.07472 15.3953 7.62582 15.8016 8.03215C16.2079 8.43848 16.759 8.66675 17.3337 8.66675H21.667" stroke="#1A9948" stroke-width="1.66667" stroke-linecap="round" stroke-linejoin="round"/>
<path d="M9.75 16.25H16.25" stroke="#1A9948" stroke-width="2" stroke-linecap="round" stroke-linejoin="round"/>
<path d="M13 19.5V13" stroke="#1A9948" stroke-width="2" stroke-linecap="round" stroke-linejoin="round"/>
</svg>
