<svg width="26" height="26" viewBox="0 0 26 26" fill="none" xmlns="http://www.w3.org/2000/svg">
<path d="M11.9169 21.6667C10.0146 21.6725 8.17964 20.9631 6.77593 19.6793C5.37221 18.3954 4.50228 16.6309 4.33866 14.7357C4.17505 12.8405 4.7297 10.953 5.89261 9.44755C7.05553 7.94213 8.74176 6.92876 10.6169 6.60841C16.7919 5.41675 18.4169 4.85341 20.5835 2.16675C21.6669 4.33341 22.7502 6.69508 22.7502 10.8334C22.7502 16.7917 17.5719 21.6667 11.9169 21.6667Z" stroke="#1A9948" stroke-width="2" stroke-linecap="round" stroke-linejoin="round"/>
<path d="M2.16699 22.75C2.16699 19.5 4.17116 16.9433 7.67033 16.25C10.292 15.73 13.0003 14.0833 14.0837 13" stroke="#1A9948" stroke-width="2" stroke-linecap="round" stroke-linejoin="round"/>
</svg>
