<svg width="26" height="26" viewBox="0 0 26 26" fill="none" xmlns="http://www.w3.org/2000/svg">
<path d="M4.87467 17.8751C3.24967 19.2401 2.70801 23.2918 2.70801 23.2918C2.70801 23.2918 6.75967 22.7501 8.12467 21.1251C8.89384 20.2151 8.88301 18.8176 8.02717 17.9726C7.60609 17.5707 7.05141 17.3385 6.46959 17.3205C5.88776 17.3025 5.31979 17.5 4.87467 17.8751Z" stroke="#1A9948" stroke-width="2" stroke-linecap="round" stroke-linejoin="round"/>
<path d="M13 16.2501L9.75 13.0001C10.3265 11.5045 11.0524 10.0708 11.9167 8.72094C13.1789 6.70267 14.9366 5.04091 17.0224 3.8937C19.1082 2.7465 21.4529 2.15201 23.8333 2.16677C23.8333 5.11344 22.9883 10.2918 17.3333 14.0834C15.965 14.9487 14.5132 15.6746 13 16.2501Z" stroke="#1A9948" stroke-width="2" stroke-linecap="round" stroke-linejoin="round"/>
<path d="M9.74967 13.0001H4.33301C4.33301 13.0001 4.92884 9.71756 6.49967 8.66673C8.25467 7.49673 11.9163 8.66673 11.9163 8.66673" stroke="#1A9948" stroke-width="2" stroke-linecap="round" stroke-linejoin="round"/>
<path d="M13 16.2499V21.6666C13 21.6666 16.2825 21.0708 17.3333 19.4999C18.5033 17.7449 17.3333 14.0833 17.3333 14.0833" stroke="#1A9948" stroke-width="2" stroke-linecap="round" stroke-linejoin="round"/>
</svg>
