<svg width="54" height="54" viewBox="0 0 54 54" fill="none" xmlns="http://www.w3.org/2000/svg">
<rect width="53.0747" height="53.0747" rx="26.5374" fill="#FCEDED"/>
<path d="M25.5391 35.5371C25.5391 35.8023 25.4337 36.0567 25.2462 36.2442C25.0586 36.4318 24.8043 36.5371 24.5391 36.5371H18.5391C18.2738 36.5371 18.0195 36.4318 17.832 36.2442C17.6444 36.0567 17.5391 35.8023 17.5391 35.5371V27.5371C17.5391 27.2719 17.6444 27.0175 17.832 26.83C18.0195 26.6425 18.2738 26.5371 18.5391 26.5371" stroke="#C53637" stroke-width="1.45833" stroke-linecap="round" stroke-linejoin="round"/>
<path d="M30.5391 30.5371C30.5391 30.8023 30.4337 31.0567 30.2462 31.2442C30.0586 31.4318 29.8043 31.5371 29.5391 31.5371H23.5391C23.2738 31.5371 23.0195 31.4318 22.832 31.2442C22.6444 31.0567 22.5391 30.8023 22.5391 30.5371V22.5371C22.5391 22.2719 22.6444 22.0175 22.832 21.83C23.0195 21.6425 23.2738 21.5371 23.5391 21.5371" stroke="#C53637" stroke-width="1.45833" stroke-linecap="round" stroke-linejoin="round"/>
<path d="M35.5391 20.5371C35.5389 20.0067 35.3282 19.4981 34.9531 19.1231L32.9531 17.1231C32.5781 16.748 32.0695 16.5372 31.5391 16.5371H28.5391C28.2738 16.5371 28.0195 16.6425 27.832 16.83C27.6444 17.0175 27.5391 17.2719 27.5391 17.5371V25.5371C27.5391 25.8023 27.6444 26.0567 27.832 26.2442C28.0195 26.4318 28.2738 26.5371 28.5391 26.5371H34.5391C34.8043 26.5371 35.0586 26.4318 35.2462 26.2442C35.4337 26.0567 35.5391 25.8023 35.5391 25.5371V20.5371Z" stroke="#C53637" stroke-width="1.45833" stroke-linecap="round" stroke-linejoin="round"/>
</svg>
