<svg width="54" height="54" viewBox="0 0 54 54" fill="none" xmlns="http://www.w3.org/2000/svg">
<rect width="53.0747" height="53.0747" rx="26.5374" fill="#FCEDED"/>
<path d="M23.5391 17.5391H18.5391C17.9868 17.5391 17.5391 17.9868 17.5391 18.5391V25.5391C17.5391 26.0913 17.9868 26.5391 18.5391 26.5391H23.5391C24.0913 26.5391 24.5391 26.0913 24.5391 25.5391V18.5391C24.5391 17.9868 24.0913 17.5391 23.5391 17.5391Z" stroke="#C53637" stroke-width="1.45833" stroke-linecap="round" stroke-linejoin="round"/>
<path d="M34.5391 17.5391H29.5391C28.9868 17.5391 28.5391 17.9868 28.5391 18.5391V21.5391C28.5391 22.0913 28.9868 22.5391 29.5391 22.5391H34.5391C35.0913 22.5391 35.5391 22.0913 35.5391 21.5391V18.5391C35.5391 17.9868 35.0913 17.5391 34.5391 17.5391Z" stroke="#C53637" stroke-width="1.45833" stroke-linecap="round" stroke-linejoin="round"/>
<path d="M34.5391 26.5391H29.5391C28.9868 26.5391 28.5391 26.9868 28.5391 27.5391V34.5391C28.5391 35.0913 28.9868 35.5391 29.5391 35.5391H34.5391C35.0913 35.5391 35.5391 35.0913 35.5391 34.5391V27.5391C35.5391 26.9868 35.0913 26.5391 34.5391 26.5391Z" stroke="#C53637" stroke-width="1.45833" stroke-linecap="round" stroke-linejoin="round"/>
<path d="M23.5391 30.5391H18.5391C17.9868 30.5391 17.5391 30.9868 17.5391 31.5391V34.5391C17.5391 35.0913 17.9868 35.5391 18.5391 35.5391H23.5391C24.0913 35.5391 24.5391 35.0913 24.5391 34.5391V31.5391C24.5391 30.9868 24.0913 30.5391 23.5391 30.5391Z" stroke="#C53637" stroke-width="1.45833" stroke-linecap="round" stroke-linejoin="round"/>
</svg>
