<svg width="54" height="54" viewBox="0 0 54 54" fill="none" xmlns="http://www.w3.org/2000/svg">
<rect width="53.0747" height="53.0747" rx="26.5374" fill="#FCEDED"/>
<path d="M25.2734 19.6146C27.6028 19.337 29.959 19.8294 31.9823 21.0166C34.0056 22.2038 35.5847 24.0206 36.4784 26.1896C36.5618 26.4141 36.5618 26.661 36.4784 26.8856C36.1109 27.7766 35.6252 28.6141 35.0344 29.3756" stroke="#C53637" stroke-width="1.45833" stroke-linecap="round" stroke-linejoin="round"/>
<path d="M28.6232 28.6951C28.0574 29.2416 27.2996 29.544 26.513 29.5371C25.7264 29.5303 24.974 29.2148 24.4177 28.6586C23.8615 28.1024 23.546 27.3499 23.5392 26.5633C23.5323 25.7767 23.8347 25.0189 24.3812 24.4531" stroke="#C53637" stroke-width="1.45833" stroke-linecap="round" stroke-linejoin="round"/>
<path d="M32.0186 32.0369C30.6921 32.8227 29.212 33.3139 27.6789 33.4773C26.1458 33.6406 24.5955 33.4723 23.1332 32.9838C21.6709 32.4952 20.3308 31.6978 19.2038 30.6456C18.0768 29.5935 17.1893 28.3112 16.6016 26.8859C16.5182 26.6614 16.5182 26.4144 16.6016 26.1899C17.4882 24.0397 19.0482 22.2351 21.0476 21.0469" stroke="#C53637" stroke-width="1.45833" stroke-linecap="round" stroke-linejoin="round"/>
<path d="M16.5391 16.5391L36.5391 36.5391" stroke="#C53637" stroke-width="1.45833" stroke-linecap="round" stroke-linejoin="round"/>
</svg>
