<svg width="54" height="54" viewBox="0 0 54 54" fill="none" xmlns="http://www.w3.org/2000/svg">
<rect width="53.0747" height="53.0747" rx="26.5374" fill="#FCEDED"/>
<path d="M25.5391 29.5391H27.5391C28.0695 29.5391 28.5782 29.3283 28.9533 28.9533C29.3283 28.5782 29.5391 28.0695 29.5391 27.5391C29.5391 27.0086 29.3283 26.4999 28.9533 26.1248C28.5782 25.7498 28.0695 25.5391 27.5391 25.5391H24.5391C23.9391 25.5391 23.4391 25.7391 23.1391 26.1391L17.5391 31.5391" stroke="#C53637" stroke-width="1.45833" stroke-linecap="round" stroke-linejoin="round"/>
<path d="M21.5391 35.5374L23.1391 34.1374C23.4391 33.7374 23.9391 33.5374 24.5391 33.5374H28.5391C29.6391 33.5374 30.6391 33.1374 31.3391 32.3374L35.9391 27.9374C36.325 27.5727 36.5502 27.0697 36.5652 26.539C36.5802 26.0082 36.3837 25.4933 36.0191 25.1074C35.6544 24.7215 35.1514 24.4963 34.6206 24.4813C34.0899 24.4663 33.575 24.6627 33.1891 25.0274L28.9891 28.9274" stroke="#C53637" stroke-width="1.45833" stroke-linecap="round" stroke-linejoin="round"/>
<path d="M16.5391 30.5391L22.5391 36.5391" stroke="#C53637" stroke-width="1.45833" stroke-linecap="round" stroke-linejoin="round"/>
<path d="M30.5406 26.4406C32.1423 26.4406 33.4406 25.1423 33.4406 23.5406C33.4406 21.939 32.1423 20.6406 30.5406 20.6406C28.939 20.6406 27.6406 21.939 27.6406 23.5406C27.6406 25.1423 28.939 26.4406 30.5406 26.4406Z" stroke="#C53637" stroke-width="1.45833" stroke-linecap="round" stroke-linejoin="round"/>
<path d="M20.5391 22.5391C22.1959 22.5391 23.5391 21.1959 23.5391 19.5391C23.5391 17.8822 22.1959 16.5391 20.5391 16.5391C18.8822 16.5391 17.5391 17.8822 17.5391 19.5391C17.5391 21.1959 18.8822 22.5391 20.5391 22.5391Z" stroke="#C53637" stroke-width="1.45833" stroke-linecap="round" stroke-linejoin="round"/>
</svg>
