<svg width="54" height="54" viewBox="0 0 54 54" fill="none" xmlns="http://www.w3.org/2000/svg">
<rect width="53.0747" height="53.0747" rx="26.5374" fill="#FCEDED"/>
<path d="M30.5391 24.5371C30.5391 25.0675 30.3283 25.5762 29.9533 25.9513C29.5782 26.3264 29.0695 26.5371 28.5391 26.5371H21.3671C20.8367 26.5372 20.328 26.748 19.9531 27.1231L17.7511 29.3251C17.6518 29.4244 17.5253 29.492 17.3876 29.5194C17.2498 29.5468 17.1071 29.5327 16.9774 29.479C16.8476 29.4252 16.7368 29.3343 16.6587 29.2175C16.5807 29.1008 16.5391 28.9635 16.5391 28.8231V18.5371C16.5391 18.0067 16.7498 17.498 17.1248 17.1229C17.4999 16.7478 18.0086 16.5371 18.5391 16.5371H28.5391C29.0695 16.5371 29.5782 16.7478 29.9533 17.1229C30.3283 17.498 30.5391 18.0067 30.5391 18.5371V24.5371Z" stroke="#C53637" stroke-width="1.45833" stroke-linecap="round" stroke-linejoin="round"/>
<path d="M34.5391 23.5371C35.0695 23.5371 35.5782 23.7478 35.9533 24.1229C36.3283 24.498 36.5391 25.0067 36.5391 25.5371V35.8231C36.539 35.9635 36.4974 36.1008 36.4194 36.2175C36.3414 36.3343 36.2305 36.4252 36.1008 36.479C35.971 36.5327 35.8283 36.5468 35.6906 36.5194C35.5529 36.492 35.4264 36.4244 35.3271 36.3251L33.1251 34.1231C32.7501 33.748 32.2415 33.5372 31.7111 33.5371H24.5391C24.0086 33.5371 23.4999 33.3264 23.1248 32.9513C22.7498 32.5762 22.5391 32.0675 22.5391 31.5371V30.5371" stroke="#C53637" stroke-width="1.45833" stroke-linecap="round" stroke-linejoin="round"/>
</svg>
