<svg width="20" height="20" viewBox="0 0 20 20" fill="none" xmlns="http://www.w3.org/2000/svg">
<path d="M8.33203 10H11.6654" stroke="#1D68F4" stroke-width="1.66667" stroke-linecap="round" stroke-linejoin="round"/>
<path d="M8.33203 6.66602H11.6654" stroke="#1D68F4" stroke-width="1.66667" stroke-linecap="round" stroke-linejoin="round"/>
<path d="M11.6654 17.5007V15.0007C11.6654 14.5586 11.4898 14.1347 11.1772 13.8221C10.8646 13.5096 10.4407 13.334 9.9987 13.334C9.55667 13.334 9.13275 13.5096 8.82019 13.8221C8.50763 14.1347 8.33203 14.5586 8.33203 15.0007V17.5007" stroke="#1D68F4" stroke-width="1.66667" stroke-linecap="round" stroke-linejoin="round"/>
<path d="M5.0013 8.33398H3.33464C2.89261 8.33398 2.46868 8.50958 2.15612 8.82214C1.84356 9.1347 1.66797 9.55862 1.66797 10.0007V15.834C1.66797 16.276 1.84356 16.6999 2.15612 17.0125C2.46868 17.3251 2.89261 17.5007 3.33464 17.5007H16.668C17.11 17.5007 17.5339 17.3251 17.8465 17.0125C18.159 16.6999 18.3346 16.276 18.3346 15.834V7.50065C18.3346 7.05862 18.159 6.6347 17.8465 6.32214C17.5339 6.00958 17.11 5.83398 16.668 5.83398H15.0013" stroke="#1D68F4" stroke-width="1.66667" stroke-linecap="round" stroke-linejoin="round"/>
<path d="M5 17.5V4.16667C5 3.72464 5.17559 3.30072 5.48816 2.98816C5.80072 2.67559 6.22464 2.5 6.66667 2.5H13.3333C13.7754 2.5 14.1993 2.67559 14.5118 2.98816C14.8244 3.30072 15 3.72464 15 4.16667V17.5" stroke="#1D68F4" stroke-width="1.66667" stroke-linecap="round" stroke-linejoin="round"/>
</svg>
