<svg width="20" height="20" viewBox="0 0 20 20" fill="none" xmlns="http://www.w3.org/2000/svg">
<path d="M8.33464 10.8333C10.6358 10.8333 12.5013 8.96785 12.5013 6.66667C12.5013 4.36548 10.6358 2.5 8.33464 2.5C6.03345 2.5 4.16797 4.36548 4.16797 6.66667C4.16797 8.96785 6.03345 10.8333 8.33464 10.8333Z" stroke="#1D68F4" stroke-width="1.66667" stroke-linecap="round" stroke-linejoin="round"/>
<path d="M1.66797 17.5C1.66807 16.4508 1.9158 15.4165 2.39102 14.4811C2.86623 13.5457 3.55552 12.7356 4.40282 12.1169C5.25012 11.4981 6.23151 11.088 7.26716 10.92C8.30282 10.752 9.36351 10.8308 10.363 11.15" stroke="#1D68F4" stroke-width="1.66667" stroke-linecap="round" stroke-linejoin="round"/>
<path d="M15 17.5C16.3807 17.5 17.5 16.3807 17.5 15C17.5 13.6193 16.3807 12.5 15 12.5C13.6193 12.5 12.5 13.6193 12.5 15C12.5 16.3807 13.6193 17.5 15 17.5Z" stroke="#1D68F4" stroke-width="1.66667" stroke-linecap="round" stroke-linejoin="round"/>
<path d="M18.3333 18.3333L16.75 16.75" stroke="#1D68F4" stroke-width="1.66667" stroke-linecap="round" stroke-linejoin="round"/>
</svg>
