<svg width="20" height="20" viewBox="0 0 20 20" fill="none" xmlns="http://www.w3.org/2000/svg">
<path d="M10 10.834V16.6673C10 17.1093 10.1756 17.5333 10.4882 17.8458C10.8007 18.1584 11.2246 18.334 11.6667 18.334C12.1087 18.334 12.5326 18.1584 12.8452 17.8458C13.1577 17.5333 13.3333 17.1093 13.3333 16.6673" stroke="#1D68F4" stroke-width="1.66667" stroke-linecap="round" stroke-linejoin="round"/>
<path d="M10 1.66602V3.33268" stroke="#1D68F4" stroke-width="1.66667" stroke-linecap="round" stroke-linejoin="round"/>
<path d="M17.494 10.8324C17.6235 10.8335 17.7515 10.8043 17.8678 10.7473C17.9841 10.6903 18.0855 10.6069 18.164 10.5039C18.2424 10.4009 18.2958 10.2809 18.3198 10.1537C18.3438 10.0264 18.3379 9.89528 18.3024 9.77072C17.8297 7.92812 16.7574 6.29514 15.2545 5.12906C13.7516 3.96298 11.9034 3.33008 10.0011 3.33008C8.09885 3.33008 6.25066 3.96298 4.74771 5.12906C3.24477 6.29514 2.17251 7.92812 1.69986 9.77072C1.66455 9.89467 1.65846 10.0251 1.68209 10.1518C1.70571 10.2785 1.7584 10.398 1.83602 10.5009C1.91363 10.6038 2.01405 10.6873 2.12938 10.7448C2.24471 10.8023 2.37181 10.8323 2.50069 10.8324H17.494Z" stroke="#1D68F4" stroke-width="1.66667" stroke-linecap="round" stroke-linejoin="round"/>
</svg>
