<svg width="20" height="20" viewBox="0 0 20 20" fill="none" xmlns="http://www.w3.org/2000/svg">
<path d="M13.3346 8.33398C13.3346 9.21804 12.9834 10.0659 12.3583 10.691C11.7332 11.3161 10.8854 11.6673 10.0013 11.6673C9.11725 11.6673 8.2694 11.3161 7.64428 10.691C7.01916 10.0659 6.66797 9.21804 6.66797 8.33398" stroke="#1D68F4" stroke-width="1.66667" stroke-linecap="round" stroke-linejoin="round"/>
<path d="M2.58594 5.0293H17.4143" stroke="#1D68F4" stroke-width="1.66667" stroke-linecap="round" stroke-linejoin="round"/>
<path d="M2.83333 4.55518C2.61696 4.84368 2.5 5.19457 2.5 5.55518V16.666C2.5 17.108 2.67559 17.532 2.98816 17.8445C3.30072 18.1571 3.72464 18.3327 4.16667 18.3327H15.8333C16.2754 18.3327 16.6993 18.1571 17.0118 17.8445C17.3244 17.532 17.5 17.108 17.5 16.666V5.55518C17.5 5.19457 17.383 4.84368 17.1667 4.55518L15.5 2.33268C15.3448 2.12569 15.1434 1.95768 14.912 1.84197C14.6806 1.72626 14.4254 1.66602 14.1667 1.66602H5.83333C5.57459 1.66602 5.3194 1.72626 5.08798 1.84197C4.85655 1.95768 4.65525 2.12569 4.5 2.33268L2.83333 4.55518Z" stroke="#1D68F4" stroke-width="1.66667" stroke-linecap="round" stroke-linejoin="round"/>
</svg>
