<svg width="20" height="20" viewBox="0 0 20 20" fill="none" xmlns="http://www.w3.org/2000/svg">
<path d="M12.5 17.5V13.3333C12.5 13.1123 12.4122 12.9004 12.2559 12.7441C12.0996 12.5878 11.8877 12.5 11.6667 12.5H8.33333C8.11232 12.5 7.90036 12.5878 7.74408 12.7441C7.5878 12.9004 7.5 13.1123 7.5 13.3333V17.5" stroke="#1D68F4" stroke-width="1.66667" stroke-linecap="round" stroke-linejoin="round"/>
<path d="M14.8098 8.59102C14.6361 8.42471 14.4049 8.33188 14.1644 8.33188C13.9239 8.33188 13.6927 8.42471 13.519 8.59102C13.1315 8.96061 12.6166 9.16681 12.0811 9.16681C11.5456 9.16681 11.0307 8.96061 10.6432 8.59102C10.4695 8.42496 10.2385 8.33228 9.99817 8.33228C9.75788 8.33228 9.52685 8.42496 9.35317 8.59102C8.96564 8.96086 8.45053 9.16721 7.91484 9.16721C7.37914 9.16721 6.86404 8.96086 6.4765 8.59102C6.30278 8.42471 6.07158 8.33188 5.83109 8.33188C5.5906 8.33188 5.35939 8.42471 5.18567 8.59102C4.81137 8.94819 4.31756 9.15332 3.80036 9.16647C3.28315 9.17962 2.77956 8.99986 2.38759 8.66216C1.99562 8.32447 1.74333 7.85301 1.67982 7.33955C1.61631 6.82609 1.74613 6.30737 2.044 5.88435L4.4515 2.39768C4.60426 2.17228 4.80991 1.98773 5.05049 1.86018C5.29106 1.73263 5.55921 1.66597 5.8315 1.66602H14.1648C14.4363 1.66591 14.7037 1.73213 14.9438 1.85892C15.1839 1.98571 15.3893 2.16923 15.5423 2.39352L17.9548 5.88685C18.2528 6.3102 18.3824 6.82932 18.3185 7.34305C18.2546 7.85677 18.0017 8.3283 17.6091 8.66576C17.2166 9.00321 16.7124 9.18241 16.1949 9.16844C15.6774 9.15447 15.1836 8.94833 14.8098 8.59018" stroke="#1D68F4" stroke-width="1.66667" stroke-linecap="round" stroke-linejoin="round"/>
<path d="M3.33203 9.125V15.8333C3.33203 16.2754 3.50763 16.6993 3.82019 17.0118C4.13275 17.3244 4.55667 17.5 4.9987 17.5H14.9987C15.4407 17.5 15.8646 17.3244 16.1772 17.0118C16.4898 16.6993 16.6654 16.2754 16.6654 15.8333V9.125" stroke="#1D68F4" stroke-width="1.66667" stroke-linecap="round" stroke-linejoin="round"/>
</svg>
