<svg width="20" height="20" viewBox="0 0 20 20" fill="none" xmlns="http://www.w3.org/2000/svg">
<path d="M9.18022 2.34439C9.21593 2.15323 9.31737 1.98057 9.46697 1.85632C9.61658 1.73208 9.80492 1.66406 9.99939 1.66406C10.1939 1.66406 10.3822 1.73208 10.5318 1.85632C10.6814 1.98057 10.7829 2.15323 10.8186 2.34439L11.6944 6.97606C11.7566 7.30535 11.9166 7.60824 12.1536 7.8452C12.3905 8.08216 12.6934 8.24219 13.0227 8.30439L17.6544 9.18022C17.8456 9.21593 18.0182 9.31737 18.1425 9.46697C18.2667 9.61658 18.3347 9.80492 18.3347 9.99939C18.3347 10.1939 18.2667 10.3822 18.1425 10.5318C18.0182 10.6814 17.8456 10.7829 17.6544 10.8186L13.0227 11.6944C12.6934 11.7566 12.3905 11.9166 12.1536 12.1536C11.9166 12.3905 11.7566 12.6934 11.6944 13.0227L10.8186 17.6544C10.7829 17.8456 10.6814 18.0182 10.5318 18.1425C10.3822 18.2667 10.1939 18.3347 9.99939 18.3347C9.80492 18.3347 9.61658 18.2667 9.46697 18.1425C9.31737 18.0182 9.21593 17.8456 9.18022 17.6544L8.30439 13.0227C8.24219 12.6934 8.08216 12.3905 7.8452 12.1536C7.60824 11.9166 7.30535 11.7566 6.97606 11.6944L2.34439 10.8186C2.15323 10.7829 1.98057 10.6814 1.85632 10.5318C1.73208 10.3822 1.66406 10.1939 1.66406 9.99939C1.66406 9.80492 1.73208 9.61658 1.85632 9.46697C1.98057 9.31737 2.15323 9.21593 2.34439 9.18022L6.97606 8.30439C7.30535 8.24219 7.60824 8.08216 7.8452 7.8452C8.08216 7.60824 8.24219 7.30535 8.30439 6.97606L9.18022 2.34439Z" stroke="#1D68F4" stroke-width="1.66667" stroke-linecap="round" stroke-linejoin="round"/>
<path d="M16.668 1.66602V4.99935" stroke="#1D68F4" stroke-width="1.66667" stroke-linecap="round" stroke-linejoin="round"/>
<path d="M18.3333 3.33398H15" stroke="#1D68F4" stroke-width="1.66667" stroke-linecap="round" stroke-linejoin="round"/>
<path d="M3.33464 18.3333C4.25511 18.3333 5.0013 17.5871 5.0013 16.6667C5.0013 15.7462 4.25511 15 3.33464 15C2.41416 15 1.66797 15.7462 1.66797 16.6667C1.66797 17.5871 2.41416 18.3333 3.33464 18.3333Z" stroke="#1D68F4" stroke-width="1.66667" stroke-linecap="round" stroke-linejoin="round"/>
</svg>
