<svg width="53" height="53" viewBox="0 0 53 53" fill="none" xmlns="http://www.w3.org/2000/svg">
<rect x="0.5" y="0.5" width="52" height="52" rx="26" fill="#2747B8"/>
<rect x="0.5" y="0.5" width="52" height="52" rx="26" stroke="#536BC9"/>
<path d="M18.3492 23.1191C18.2033 22.4616 18.2257 21.778 18.4144 21.1315C18.6031 20.485 18.952 19.8966 19.4287 19.4208C19.9054 18.9451 20.4945 18.5975 21.1414 18.4101C21.7883 18.2228 22.472 18.2018 23.1292 18.3491C23.4909 17.7834 23.9892 17.3179 24.5782 16.9954C25.1671 16.6729 25.8278 16.5039 26.4992 16.5039C27.1707 16.5039 27.8313 16.6729 28.4203 16.9954C29.0092 17.3179 29.5075 17.7834 29.8692 18.3491C30.5274 18.2011 31.2123 18.222 31.8602 18.4098C32.5081 18.5976 33.098 18.9463 33.5751 19.4233C34.0521 19.9003 34.4007 20.4902 34.5885 21.1381C34.7763 21.7861 34.7972 22.471 34.6492 23.1291C35.2149 23.4908 35.6805 23.9891 36.0029 24.5781C36.3254 25.167 36.4944 25.8277 36.4944 26.4991C36.4944 27.1706 36.3254 27.8312 36.0029 28.4202C35.6805 29.0091 35.2149 29.5074 34.6492 29.8691C34.7966 30.5263 34.7756 31.21 34.5882 31.8569C34.4009 32.5038 34.0532 33.0929 33.5775 33.5697C33.1018 34.0464 32.5134 34.3953 31.8669 34.584C31.2204 34.7727 30.5367 34.7951 29.8792 34.6491C29.518 35.217 29.0193 35.6845 28.4293 36.0084C27.8394 36.3324 27.1772 36.5022 26.5042 36.5022C25.8312 36.5022 25.169 36.3324 24.5791 36.0084C23.9891 35.6845 23.4905 35.217 23.1292 34.6491C22.472 34.7965 21.7883 34.7755 21.1414 34.5881C20.4945 34.4008 19.9054 34.0531 19.4287 33.5774C18.952 33.1017 18.6031 32.5133 18.4144 31.8668C18.2257 31.2203 18.2033 30.5366 18.3492 29.8791C17.7792 29.5184 17.3096 29.0193 16.9843 28.4283C16.6589 27.8374 16.4883 27.1737 16.4883 26.4991C16.4883 25.8245 16.6589 25.1609 16.9843 24.5699C17.3096 23.9789 17.7792 23.4799 18.3492 23.1191Z" stroke="white" stroke-width="1.45833" stroke-linecap="round" stroke-linejoin="round"/>
<path d="M23.5 26.5L25.5 28.5L29.5 24.5" stroke="white" stroke-width="1.45833" stroke-linecap="round" stroke-linejoin="round"/>
</svg>
