<svg width="26" height="26" viewBox="0 0 26 26" fill="none" xmlns="http://www.w3.org/2000/svg">
<path d="M13.2378 2.1665H12.7612C12.1865 2.1665 11.6354 2.39478 11.2291 2.80111C10.8228 3.20743 10.5945 3.75853 10.5945 4.33317V4.52817C10.5941 4.90812 10.4938 5.28129 10.3037 5.61024C10.1135 5.9392 9.84023 6.21236 9.51118 6.40234L9.04535 6.67317C8.71597 6.86333 8.34234 6.96345 7.96201 6.96345C7.58168 6.96345 7.20806 6.86333 6.87868 6.67317L6.71618 6.5865C6.219 6.2997 5.62834 6.2219 5.07385 6.37017C4.51936 6.51844 4.04636 6.88067 3.75868 7.37734L3.52035 7.789C3.23355 8.28618 3.15574 8.87685 3.30401 9.43133C3.45228 9.98582 3.81451 10.4588 4.31118 10.7465L4.47368 10.8548C4.80115 11.0439 5.07343 11.3153 5.26349 11.6422C5.45354 11.9691 5.55473 12.3401 5.55701 12.7182V13.2707C5.55853 13.6525 5.45914 14.0279 5.26889 14.3589C5.07865 14.6899 4.80432 14.9648 4.47368 15.1557L4.31118 15.2532C3.81451 15.5409 3.45228 16.0138 3.30401 16.5683C3.15574 17.1228 3.23355 17.7135 3.52035 18.2107L3.75868 18.6223C4.04636 19.119 4.51936 19.4812 5.07385 19.6295C5.62834 19.7778 6.219 19.7 6.71618 19.4132L6.87868 19.3265C7.20806 19.1363 7.58168 19.0362 7.96201 19.0362C8.34234 19.0362 8.71597 19.1363 9.04535 19.3265L9.51118 19.5973C9.84023 19.7873 10.1135 20.0605 10.3037 20.3894C10.4938 20.7184 10.5941 21.0915 10.5945 21.4715V21.6665C10.5945 22.2411 10.8228 22.7922 11.2291 23.1986C11.6354 23.6049 12.1865 23.8332 12.7612 23.8332H13.2378C13.8125 23.8332 14.3636 23.6049 14.7699 23.1986C15.1762 22.7922 15.4045 22.2411 15.4045 21.6665V21.4715C15.4049 21.0915 15.5052 20.7184 15.6953 20.3894C15.8855 20.0605 16.1588 19.7873 16.4878 19.5973L16.9537 19.3265C17.2831 19.1363 17.6567 19.0362 18.037 19.0362C18.4173 19.0362 18.791 19.1363 19.1203 19.3265L19.2828 19.4132C19.78 19.7 20.3707 19.7778 20.9252 19.6295C21.4797 19.4812 21.9527 19.119 22.2403 18.6223L22.4787 18.1998C22.7655 17.7027 22.8433 17.112 22.695 16.5575C22.5467 16.003 22.1845 15.53 21.6878 15.2423L21.5253 15.1557C21.1947 14.9648 20.9204 14.6899 20.7301 14.3589C20.5399 14.0279 20.4405 13.6525 20.442 13.2707V12.729C20.4405 12.3472 20.5399 11.9718 20.7301 11.6408C20.9204 11.3098 21.1947 11.0349 21.5253 10.844L21.6878 10.7465C22.1845 10.4588 22.5467 9.98582 22.695 9.43133C22.8433 8.87685 22.7655 8.28618 22.4787 7.789L22.2403 7.37734C21.9527 6.88067 21.4797 6.51844 20.9252 6.37017C20.3707 6.2219 19.78 6.2997 19.2828 6.5865L19.1203 6.67317C18.791 6.86333 18.4173 6.96345 18.037 6.96345C17.6567 6.96345 17.2831 6.86333 16.9537 6.67317L16.4878 6.40234C16.1588 6.21236 15.8855 5.9392 15.6953 5.61024C15.5052 5.28129 15.4049 4.90812 15.4045 4.52817V4.33317C15.4045 3.75853 15.1762 3.20743 14.7699 2.80111C14.3636 2.39478 13.8125 2.1665 13.2378 2.1665Z" stroke="#DC2828" stroke-width="2" stroke-linecap="round" stroke-linejoin="round"/>
<path d="M13 16.25C14.7949 16.25 16.25 14.7949 16.25 13C16.25 11.2051 14.7949 9.75 13 9.75C11.2051 9.75 9.75 11.2051 9.75 13C9.75 14.7949 11.2051 16.25 13 16.25Z" stroke="#DC2828" stroke-width="2" stroke-linecap="round" stroke-linejoin="round"/>
</svg>
