<svg width="26" height="26" viewBox="0 0 26 26" fill="none" xmlns="http://www.w3.org/2000/svg">
<path d="M3.25 15.1667H6.5C7.07464 15.1667 7.62574 15.3949 8.03206 15.8013C8.43839 16.2076 8.66667 16.7587 8.66667 17.3333V20.5833C8.66667 21.158 8.43839 21.7091 8.03206 22.1154C7.62574 22.5217 7.07464 22.75 6.5 22.75H5.41667C4.84203 22.75 4.29093 22.5217 3.8846 22.1154C3.47827 21.7091 3.25 21.158 3.25 20.5833V13C3.25 10.4141 4.27723 7.93419 6.10571 6.10571C7.93419 4.27723 10.4141 3.25 13 3.25C15.5859 3.25 18.0658 4.27723 19.8943 6.10571C21.7228 7.93419 22.75 10.4141 22.75 13V20.5833C22.75 21.158 22.5217 21.7091 22.1154 22.1154C21.7091 22.5217 21.158 22.75 20.5833 22.75H19.5C18.9254 22.75 18.3743 22.5217 17.9679 22.1154C17.5616 21.7091 17.3333 21.158 17.3333 20.5833V17.3333C17.3333 16.7587 17.5616 16.2076 17.9679 15.8013C18.3743 15.3949 18.9254 15.1667 19.5 15.1667H22.75" stroke="#DC2828" stroke-width="2" stroke-linecap="round" stroke-linejoin="round"/>
</svg>
