<svg width="26" height="26" viewBox="0 0 26 26" fill="none" xmlns="http://www.w3.org/2000/svg">
<path d="M21.6663 14.0834C21.6663 19.5001 17.8747 22.2084 13.368 23.7792C13.132 23.8592 12.8757 23.8554 12.6422 23.7684C8.12467 22.2084 4.33301 19.5001 4.33301 14.0834V6.50008C4.33301 6.21276 4.44714 5.93721 4.65031 5.73405C4.85347 5.53088 5.12902 5.41675 5.41634 5.41675C7.58301 5.41675 10.2913 4.11675 12.1763 2.47008C12.4058 2.274 12.6978 2.16626 12.9997 2.16626C13.3015 2.16626 13.5935 2.274 13.823 2.47008C15.7188 4.12758 18.4163 5.41675 20.583 5.41675C20.8703 5.41675 21.1459 5.53088 21.349 5.73405C21.5522 5.93721 21.6663 6.21276 21.6663 6.50008V14.0834Z" stroke="#DC2828" stroke-width="2" stroke-linecap="round" stroke-linejoin="round"/>
<path d="M13 8.66675V13.0001" stroke="#DC2828" stroke-width="2" stroke-linecap="round" stroke-linejoin="round"/>
<path d="M13 17.3333H13.0108" stroke="#DC2828" stroke-width="2" stroke-linecap="round" stroke-linejoin="round"/>
</svg>
