<svg width="26" height="26" viewBox="0 0 26 26" fill="none" xmlns="http://www.w3.org/2000/svg">
<path d="M3.25 13C3.25 14.9284 3.82183 16.8134 4.89317 18.4168C5.96452 20.0202 7.48726 21.2699 9.26884 22.0078C11.0504 22.7458 13.0108 22.9389 14.9021 22.5627C16.7934 22.1865 18.5307 21.2579 19.8943 19.8943C21.2579 18.5307 22.1865 16.7934 22.5627 14.9021C22.9389 13.0108 22.7458 11.0504 22.0078 9.26884C21.2699 7.48726 20.0202 5.96452 18.4168 4.89317C16.8134 3.82183 14.9284 3.25 13 3.25C10.2743 3.26025 7.65805 4.32383 5.69833 6.21833L3.25 8.66667" stroke="#DC2828" stroke-width="2" stroke-linecap="round" stroke-linejoin="round"/>
<path d="M3.25 3.25V8.66667H8.66667" stroke="#DC2828" stroke-width="2" stroke-linecap="round" stroke-linejoin="round"/>
</svg>
