<svg width="26" height="26" viewBox="0 0 26 26" fill="none" xmlns="http://www.w3.org/2000/svg">
<path d="M13.8992 2.36165C13.6169 2.23289 13.3103 2.16626 13 2.16626C12.6897 2.16626 12.3831 2.23289 12.1008 2.36165L2.81667 6.58665C2.62443 6.67141 2.46099 6.81024 2.34624 6.98624C2.2315 7.16224 2.17041 7.3678 2.17041 7.5779C2.17041 7.78799 2.2315 7.99356 2.34624 8.16955C2.46099 8.34555 2.62443 8.48438 2.81667 8.56915L12.1117 12.805C12.3939 12.9337 12.7006 13.0004 13.0108 13.0004C13.3211 13.0004 13.6277 12.9337 13.91 12.805L23.205 8.57998C23.3972 8.49522 23.5607 8.35638 23.6754 8.18039C23.7902 8.00439 23.8513 7.79883 23.8513 7.58873C23.8513 7.37863 23.7902 7.17307 23.6754 6.99707C23.5607 6.82108 23.3972 6.68224 23.205 6.59748L13.8992 2.36165Z" stroke="#DC2828" stroke-width="2" stroke-linecap="round" stroke-linejoin="round"/>
<path d="M2.16666 13C2.16615 13.2072 2.22507 13.4102 2.33644 13.5849C2.44781 13.7597 2.60695 13.8988 2.79499 13.9858L12.1117 18.2217C12.3925 18.3488 12.6972 18.4146 13.0054 18.4146C13.3137 18.4146 13.6184 18.3488 13.8992 18.2217L23.1942 13.9967C23.3859 13.9105 23.5485 13.7704 23.6619 13.5934C23.7754 13.4164 23.835 13.2102 23.8333 13" stroke="#DC2828" stroke-width="2" stroke-linecap="round" stroke-linejoin="round"/>
<path d="M2.16666 18.4167C2.16615 18.624 2.22507 18.827 2.33644 19.0017C2.44781 19.1764 2.60695 19.3156 2.79499 19.4026L12.1117 23.6384C12.3925 23.7656 12.6972 23.8313 13.0054 23.8313C13.3137 23.8313 13.6184 23.7656 13.8992 23.6384L23.1942 19.4134C23.3859 19.3272 23.5485 19.1871 23.6619 19.0101C23.7754 18.8332 23.835 18.627 23.8333 18.4167" stroke="#DC2828" stroke-width="2" stroke-linecap="round" stroke-linejoin="round"/>
</svg>
