<svg width="26" height="26" viewBox="0 0 26 26" fill="none" xmlns="http://www.w3.org/2000/svg">
<path d="M6.49999 10.8334H4.33332C3.75869 10.8334 3.20759 10.6051 2.80126 10.1988C2.39493 9.79248 2.16666 9.24138 2.16666 8.66675V4.33341C2.16666 3.75878 2.39493 3.20768 2.80126 2.80135C3.20759 2.39502 3.75869 2.16675 4.33332 2.16675H21.6667C22.2413 2.16675 22.7924 2.39502 23.1987 2.80135C23.605 3.20768 23.8333 3.75878 23.8333 4.33341V8.66675C23.8333 9.24138 23.605 9.79248 23.1987 10.1988C22.7924 10.6051 22.2413 10.8334 21.6667 10.8334H19.5" stroke="#DC2828" stroke-width="2" stroke-linecap="round" stroke-linejoin="round"/>
<path d="M6.49999 15.1667H4.33332C3.75869 15.1667 3.20759 15.395 2.80126 15.8014C2.39493 16.2077 2.16666 16.7588 2.16666 17.3334V21.6667C2.16666 22.2414 2.39493 22.7925 2.80126 23.1988C3.20759 23.6051 3.75869 23.8334 4.33332 23.8334H21.6667C22.2413 23.8334 22.7924 23.6051 23.1987 23.1988C23.605 22.7925 23.8333 22.2414 23.8333 21.6667V17.3334C23.8333 16.7588 23.605 16.2077 23.1987 15.8014C22.7924 15.395 22.2413 15.1667 21.6667 15.1667H19.5" stroke="#DC2828" stroke-width="2" stroke-linecap="round" stroke-linejoin="round"/>
<path d="M6.5 6.5H6.51083" stroke="#DC2828" stroke-width="2" stroke-linecap="round" stroke-linejoin="round"/>
<path d="M6.5 19.5H6.51083" stroke="#DC2828" stroke-width="2" stroke-linecap="round" stroke-linejoin="round"/>
<path d="M14.0833 6.5L9.75 13H16.25L11.9167 19.5" stroke="#DC2828" stroke-width="2" stroke-linecap="round" stroke-linejoin="round"/>
</svg>
