<svg width="53" height="53" viewBox="0 0 53 53" fill="none" xmlns="http://www.w3.org/2000/svg">
<rect x="0.5" y="0.5" width="52" height="52" rx="26" fill="#2747B8"/>
<rect x="0.5" y="0.5" width="52" height="52" rx="26" stroke="#536BC9"/>
<path d="M23.5 17.5H18.5C17.9477 17.5 17.5 17.9477 17.5 18.5V25.5C17.5 26.0523 17.9477 26.5 18.5 26.5H23.5C24.0523 26.5 24.5 26.0523 24.5 25.5V18.5C24.5 17.9477 24.0523 17.5 23.5 17.5Z" stroke="white" stroke-width="1.45833" stroke-linecap="round" stroke-linejoin="round"/>
<path d="M34.5 17.5H29.5C28.9477 17.5 28.5 17.9477 28.5 18.5V21.5C28.5 22.0523 28.9477 22.5 29.5 22.5H34.5C35.0523 22.5 35.5 22.0523 35.5 21.5V18.5C35.5 17.9477 35.0523 17.5 34.5 17.5Z" stroke="white" stroke-width="1.45833" stroke-linecap="round" stroke-linejoin="round"/>
<path d="M34.5 26.5H29.5C28.9477 26.5 28.5 26.9477 28.5 27.5V34.5C28.5 35.0523 28.9477 35.5 29.5 35.5H34.5C35.0523 35.5 35.5 35.0523 35.5 34.5V27.5C35.5 26.9477 35.0523 26.5 34.5 26.5Z" stroke="white" stroke-width="1.45833" stroke-linecap="round" stroke-linejoin="round"/>
<path d="M23.5 30.5H18.5C17.9477 30.5 17.5 30.9477 17.5 31.5V34.5C17.5 35.0523 17.9477 35.5 18.5 35.5H23.5C24.0523 35.5 24.5 35.0523 24.5 34.5V31.5C24.5 30.9477 24.0523 30.5 23.5 30.5Z" stroke="white" stroke-width="1.45833" stroke-linecap="round" stroke-linejoin="round"/>
</svg>
