<svg preserveAspectRatio="none" width="100%" height="100%" overflow="visible" style="display: block;" viewBox="0 0 136.287 106.812" fill="none" xmlns="http://www.w3.org/2000/svg">
<path id="circle-01" d="M37.2957 102.953C31.3117 100.395 25.333 98.0226 19.5258 94.444C14.624 91.4198 9.85604 87.8898 5.79527 81.8413C-0.794093 72.0294 -1.86018 57.9972 3.08988 45.3263C6.26135 37.1968 10.6221 31.5858 15.3632 26.9084C25.6384 16.7562 36.7278 10.8632 48.1226 6.66233C58.2477 2.92818 68.4693 0.856909 78.8033 0.205378C90.7713 -0.543397 102.627 0.64296 114.306 5.63155C120.45 8.25712 126.397 11.894 131.411 19.2165C137.181 27.6475 137.861 38.3442 133.286 48.8952C129.938 56.6163 125.481 61.8869 120.798 66.4865C107.497 79.5658 93.3053 88.4538 78.7283 95.4359C71.7586 98.7714 64.6656 100.998 57.5406 102.875C57.1173 102.982 56.6727 102.963 56.2709 103.497C59.8656 104.071 63.4281 104.645 66.9853 105.228C67.3389 105.287 67.9228 104.966 67.9335 105.909C67.9442 106.891 67.3496 106.58 67.0067 106.619C60.7763 107.173 54.5727 106.483 48.3851 105.219C47.5011 105.034 46.6493 105.238 45.7761 105.355C40.7296 106.016 35.6831 106.551 30.6259 106.609C30.1652 106.609 29.3724 107.134 29.367 105.656C29.367 104.489 30.0849 104.781 30.5402 104.664C32.7956 104.081 35.051 103.507 37.3117 102.924L37.2957 102.953ZM83.7962 3.64778C80.9141 3.88116 77.9515 3.86171 74.9836 4.13399C67.1514 4.86332 59.3834 6.46786 51.6851 9.11288C39.6314 13.2457 27.9152 19.2456 17.0615 29.9327C12.4061 34.5226 8.09352 39.9488 4.93812 47.8644C0.850571 58.1138 1.39701 68.6356 6.41135 77.3486C8.61852 81.1897 11.2382 83.9028 13.9864 86.2075C21.7276 92.6839 29.9081 96.5348 38.2492 99.384C41.2064 100.395 44.1582 101.698 47.2119 100.911C49.569 100.298 51.9262 99.6271 54.2887 99.0631C72.2836 94.7455 89.6731 86.2658 106.484 73.9257C113.754 68.587 120.916 62.801 127.222 54.1172C129.445 51.054 131.443 47.5727 132.863 43.1384C134.77 37.1773 134.54 31.5664 132.204 26.1305C131.143 23.6605 129.82 21.7253 128.395 20.0041C124.747 15.5893 120.707 12.8178 116.518 10.6979C105.841 5.28147 94.9071 3.79364 83.7962 3.64778Z" fill="url(#paint0_linear_0_18)"/>
<defs>
<linearGradient id="paint0_linear_0_18" x1="4.01791" y1="53.4839" x2="106.861" y2="61.2574" gradientUnits="userSpaceOnUse">
<stop stop-color="#0FDDA7"/>
<stop offset="1" stop-color="#52B7D8"/>
</linearGradient>
</defs>
</svg>
