<svg width="103" height="27" viewBox="0 0 103 27" fill="none" xmlns="http://www.w3.org/2000/svg">
<path d="M16.2151 9.7656V0H7.21416C6.7553 0.00137391 6.31562 0.185092 5.99115 0.51103C5.66668 0.83697 5.48379 1.27864 5.48242 1.73958V25.2604C5.48379 25.7213 5.66668 26.163 5.99115 26.4889C6.31562 26.8149 6.7553 26.9986 7.21416 27H26.5951C27.0541 26.9986 27.4937 26.8149 27.8182 26.4889C28.1427 26.163 28.3255 25.7213 28.3269 25.2604V17.513V9.7656H16.2151Z" fill="white"/>
<path d="M18.9272 14.9583C18.7789 14.3336 18.49 13.7514 18.0827 13.2565C17.6753 12.7616 17.1604 12.3671 16.5774 12.1034C15.9945 11.8399 15.3591 11.7141 14.7202 11.7359C14.0812 11.7577 13.4558 11.9264 12.892 12.2292C12.3431 11.126 11.4397 10.2411 10.328 9.71769C9.2163 9.19426 7.96133 9.06286 6.76609 9.34479C5.57084 9.62671 4.50525 10.3055 3.74169 11.2713C2.97813 12.2371 2.56126 13.4334 2.55854 14.6667C2.55854 14.7552 2.55854 14.849 2.55854 14.9375C1.68753 15.276 0.96177 15.9098 0.506891 16.7291C0.0520144 17.5484 -0.103337 18.5018 0.0677316 19.424C0.2388 20.3463 0.725519 21.1794 1.44362 21.7793C2.16173 22.379 3.06602 22.7077 3.99993 22.7084H17.4494C18.3772 22.7039 19.2745 22.376 19.9881 21.7805C20.7017 21.1851 21.1873 20.3592 21.3618 19.4439C21.5363 18.5287 21.389 17.581 20.9449 16.7628C20.5008 15.9446 19.7875 15.3068 18.9272 14.9583Z" fill="#2B84DF"/>
<path d="M17.5527 8.6406H28.3269L17.5527 0V8.6406Z" fill="white"/>
<path d="M9.65632 17.0882C10.2032 17.0882 10.6466 16.6429 10.6466 16.0934C10.6466 15.5441 10.2032 15.0986 9.65632 15.0986C9.10934 15.0986 8.66602 15.5441 8.66602 16.0934C8.66602 16.6429 9.10934 17.0882 9.65632 17.0882Z" fill="white"/>
<path d="M9.94167 16.4585H9.36612L8.69727 19.2345H10.6157L9.94167 16.4585Z" fill="white"/>
<path d="M36.1712 16.0709H32.5137V5.78516H36.2014C37.2392 5.78516 38.1326 5.99108 38.8815 6.4029C39.6305 6.81138 40.2065 7.399 40.6095 8.16574C41.0159 8.93246 41.2191 9.84986 41.2191 10.9179C41.2191 11.9894 41.0159 12.9102 40.6095 13.6803C40.2065 14.4503 39.6271 15.0413 38.8715 15.4531C38.1192 15.8649 37.219 16.0709 36.1712 16.0709ZM34.6951 14.2076H36.0805C36.7254 14.2076 37.2678 14.0937 37.7077 13.866C38.151 13.635 38.4835 13.2785 38.7052 12.7963C38.9302 12.3108 39.0427 11.6847 39.0427 10.9179C39.0427 10.1579 38.9302 9.53681 38.7052 9.05471C38.4835 8.57254 38.1528 8.21764 37.7127 7.98994C37.2728 7.76224 36.7304 7.64846 36.0855 7.64846H34.6951V14.2076Z" fill="white"/>
<path d="M42.6529 16.0711V8.35682H44.799V16.0711H42.6529ZM43.731 7.36237C43.4119 7.36237 43.1382 7.2569 42.9098 7.04596C42.6848 6.83168 42.5723 6.57554 42.5723 6.27755C42.5723 5.98291 42.6848 5.73012 42.9098 5.51918C43.1382 5.3049 43.4119 5.19775 43.731 5.19775C44.0501 5.19775 44.3221 5.3049 44.5471 5.51918C44.7755 5.73012 44.8897 5.98291 44.8897 6.27755C44.8897 6.57554 44.7755 6.83168 44.5471 7.04596C44.3221 7.2569 44.0501 7.36237 43.731 7.36237Z" fill="white"/>
<path d="M49.8622 19.1247C49.167 19.1247 48.5708 19.0293 48.0737 18.8384C47.5801 18.6509 47.1871 18.3948 46.8949 18.0699C46.6027 17.7452 46.4129 17.3802 46.3256 16.9751L48.3106 16.7089C48.371 16.863 48.4667 17.0069 48.5977 17.1408C48.7287 17.2748 48.9017 17.3819 49.1166 17.4623C49.3349 17.546 49.6002 17.5878 49.9126 17.5878C50.3795 17.5878 50.764 17.474 51.0662 17.2463C51.3719 17.022 51.5247 16.6453 51.5247 16.1163V14.705H51.434C51.34 14.9193 51.1989 15.1218 51.0109 15.3127C50.8228 15.5036 50.581 15.6593 50.2854 15.7798C49.9898 15.9003 49.6372 15.9606 49.2275 15.9606C48.6464 15.9606 48.1175 15.8267 47.6405 15.5588C47.167 15.2876 46.7891 14.8741 46.507 14.3183C46.2282 13.7592 46.0889 13.0527 46.0889 12.1989C46.0889 11.325 46.2316 10.5951 46.5171 10.0092C46.8026 9.4232 47.1821 8.9846 47.6556 8.6933C48.1325 8.402 48.6548 8.25635 49.2224 8.25635C49.6556 8.25635 50.0184 8.33 50.3106 8.47737C50.6028 8.6213 50.8379 8.80212 51.0159 9.01977C51.1973 9.23405 51.3366 9.44502 51.434 9.65255H51.5147V8.35685H53.6456V16.1464C53.6456 16.8027 53.4845 17.3517 53.162 17.7937C52.8396 18.2357 52.3929 18.5672 51.8219 18.7881C51.2543 19.0125 50.6011 19.1247 49.8622 19.1247ZM49.9076 14.3535C50.2535 14.3535 50.5457 14.268 50.7842 14.0973C51.026 13.9232 51.2107 13.6755 51.3383 13.354C51.4693 13.0293 51.5348 12.6408 51.5348 12.1888C51.5348 11.7369 51.4709 11.3451 51.3434 11.0136C51.2157 10.6788 51.031 10.4193 50.7892 10.2351C50.5474 10.051 50.2535 9.95892 49.9076 9.95892C49.5549 9.95892 49.2577 10.0543 49.0159 10.2452C48.774 10.4327 48.591 10.6938 48.4667 11.0287C48.3425 11.3635 48.2803 11.7502 48.2803 12.1888C48.2803 12.6342 48.3425 13.0192 48.4667 13.344C48.5944 13.6654 48.7774 13.9149 49.0159 14.0923C49.2577 14.2664 49.5549 14.3535 49.9076 14.3535Z" fill="white"/>
<path d="M55.2115 16.0711V8.35682H57.3576V16.0711H55.2115ZM56.2895 7.36237C55.9705 7.36237 55.6968 7.2569 55.4684 7.04596C55.2434 6.83168 55.1309 6.57554 55.1309 6.27755C55.1309 5.98291 55.2434 5.73012 55.4684 5.51918C55.6968 5.3049 55.9705 5.19775 56.2895 5.19775C56.6087 5.19775 56.8807 5.3049 57.1057 5.51918C57.3341 5.73012 57.4483 5.98291 57.4483 6.27755C57.4483 6.57554 57.3341 6.83168 57.1057 7.04596C56.8807 7.2569 56.6087 7.36237 56.2895 7.36237Z" fill="white"/>
<path d="M61.0808 5.78516V16.0709H58.9346V5.78516H61.0808Z" fill="white"/>
<path d="M66.1543 16.2218C65.3717 16.2218 64.695 16.056 64.124 15.7245C63.5564 15.3897 63.1181 14.9243 62.8091 14.3283C62.5002 13.729 62.3457 13.0343 62.3457 12.2441C62.3457 11.4472 62.5002 10.7508 62.8091 10.1548C63.1181 9.5555 63.5564 9.09005 64.124 8.75862C64.695 8.42375 65.3717 8.25635 66.1543 8.25635C66.9368 8.25635 67.6119 8.42375 68.1795 8.75862C68.7505 9.09005 69.1904 9.5555 69.4994 10.1548C69.8084 10.7508 69.9629 11.4472 69.9629 12.2441C69.9629 13.0343 69.8084 13.729 69.4994 14.3283C69.1904 14.9243 68.7505 15.3897 68.1795 15.7245C67.6119 16.056 66.9368 16.2218 66.1543 16.2218ZM66.1644 14.5644C66.5204 14.5644 66.8177 14.4639 67.0561 14.263C67.2945 14.0588 67.4742 13.7809 67.5951 13.4293C67.7194 13.0778 67.7816 12.6777 67.7816 12.229C67.7816 11.7804 67.7194 11.3802 67.5951 11.0287C67.4742 10.6771 67.2945 10.3992 67.0561 10.195C66.8177 9.99072 66.5204 9.88865 66.1644 9.88865C65.805 9.88865 65.5028 9.99072 65.2576 10.195C65.0157 10.3992 64.8327 10.6771 64.7084 11.0287C64.5875 11.3802 64.5271 11.7804 64.5271 12.229C64.5271 12.6777 64.5875 13.0778 64.7084 13.4293C64.8327 13.7809 65.0157 14.0588 65.2576 14.263C65.5028 14.4639 65.805 14.5644 66.1644 14.5644Z" fill="white"/>
<path d="M74.7129 16.2218C73.9203 16.2218 73.2385 16.0543 72.6676 15.7195C72.1 15.3813 71.6634 14.9126 71.3577 14.3133C71.0554 13.7139 70.9043 13.0242 70.9043 12.2441C70.9043 11.4539 71.0572 10.7608 71.3628 10.1649C71.6718 9.56555 72.1101 9.09845 72.6777 8.76365C73.2453 8.42547 73.9204 8.25635 74.7028 8.25635C75.3778 8.25635 75.9687 8.3786 76.4765 8.62302C76.9835 8.86745 77.3847 9.21057 77.6802 9.65255C77.9757 10.0945 78.1385 10.6135 78.1692 11.2095H76.1435C76.0865 10.8244 75.9357 10.5147 75.6905 10.2804C75.4482 10.0426 75.131 9.92375 74.7381 9.92375C74.4056 9.92375 74.1151 10.0142 73.8666 10.195C73.6214 10.3725 73.43 10.6319 73.2923 10.9734C73.1545 11.315 73.0857 11.7285 73.0857 12.2139C73.0857 12.7062 73.1529 13.1247 73.2872 13.4695C73.4249 13.8144 73.618 14.0772 73.8666 14.2581C74.1151 14.4388 74.4056 14.5293 74.7381 14.5293C74.9833 14.5293 75.203 14.479 75.398 14.3786C75.596 14.2781 75.7595 14.1324 75.887 13.9416C76.0175 13.7475 76.1037 13.5147 76.1435 13.2435H78.1692C78.1355 13.8328 77.9742 14.3518 77.6855 14.8005C77.3997 15.2457 77.0052 15.594 76.5012 15.8451C75.9972 16.0962 75.4017 16.2218 74.7129 16.2218Z" fill="white"/>
<path d="M81.3461 13.851L81.3514 11.2846H81.6634L84.1421 8.35661H86.6059L83.2759 12.2338H82.7674L81.3461 13.851ZM79.4014 16.0709V5.78516H81.5479V16.0709H79.4014ZM84.2381 16.0709L81.9611 12.711L83.3914 11.1992L86.7521 16.0709H84.2381Z" fill="white"/>
<path d="M90.724 16.2218C89.9283 16.2218 89.2428 16.0611 88.6683 15.7396C88.0975 15.4149 87.6573 14.9562 87.3483 14.3635C87.0393 13.7675 86.8848 13.0627 86.8848 12.2491C86.8848 11.4556 87.0393 10.7592 87.3483 10.1598C87.6573 9.56052 88.0923 9.09342 88.6533 8.75862C89.2173 8.42375 89.8795 8.25635 90.6385 8.25635C91.1485 8.25635 91.624 8.3384 92.0643 8.5025C92.5075 8.66315 92.8938 8.90592 93.223 9.23067C93.5553 9.5555 93.814 9.96395 93.9985 10.4562C94.183 10.9449 94.2753 11.5175 94.2753 12.1737V12.7614H87.7413V11.4355H92.2555C92.2555 11.1275 92.188 10.8546 92.0538 10.6168C91.9195 10.3791 91.7335 10.1933 91.495 10.0593C91.2595 9.9221 90.9858 9.85347 90.6738 9.85347C90.3475 9.85347 90.0588 9.92877 89.8068 10.0794C89.5585 10.2268 89.3635 10.426 89.2225 10.6771C89.0815 10.9249 89.0095 11.2011 89.0058 11.5058V12.7664C89.0058 13.1481 89.0763 13.4779 89.2173 13.7558C89.362 14.0337 89.5653 14.248 89.827 14.3987C90.0895 14.5493 90.4 14.6247 90.7593 14.6247C90.9978 14.6247 91.216 14.5911 91.414 14.5242C91.612 14.4573 91.7815 14.3568 91.9233 14.2229C92.0643 14.0889 92.1715 13.9249 92.245 13.7307L94.2303 13.8612C94.1298 14.3367 93.9228 14.7519 93.6108 15.1068C93.3018 15.4584 92.902 15.7329 92.4115 15.9305C91.9248 16.1247 91.3623 16.2218 90.724 16.2218Z" fill="white"/>
<path d="M95.5352 16.0709V8.35664H97.6157V9.70259H97.6959C97.8369 9.22379 98.0739 8.86222 98.4062 8.61779C98.7392 8.36999 99.1217 8.24609 99.5552 8.24609C99.6624 8.24609 99.7787 8.25284 99.9024 8.26619C100.027 8.27962 100.136 8.29799 100.23 8.32147V10.2199C100.13 10.1898 99.9902 10.1629 99.8124 10.1395C99.6339 10.1161 99.4712 10.1044 99.3234 10.1044C99.0077 10.1044 98.7257 10.173 98.4767 10.3103C98.2322 10.4442 98.0372 10.6317 97.8924 10.8728C97.7514 11.1139 97.6809 11.3917 97.6809 11.7065V16.0709H95.5352Z" fill="white"/>
<path d="M33.0746 25.7139H32.0771V22.9087H33.0829C33.3659 22.9087 33.6096 22.9649 33.8138 23.0772C34.0181 23.1886 34.1752 23.3489 34.2851 23.558C34.396 23.7671 34.4513 24.0173 34.4513 24.3086C34.4513 24.6008 34.396 24.8519 34.2851 25.0619C34.1752 25.2719 34.0172 25.4331 33.8111 25.5455C33.6059 25.6577 33.3605 25.7139 33.0746 25.7139ZM32.6721 25.2057H33.05C33.2258 25.2057 33.3737 25.1747 33.4937 25.1126C33.6146 25.0496 33.7053 24.9524 33.7658 24.8208C33.8271 24.6884 33.8578 24.5177 33.8578 24.3086C33.8578 24.1013 33.8271 23.9319 33.7658 23.8004C33.7053 23.6689 33.6151 23.5721 33.4951 23.51C33.3751 23.4479 33.2272 23.4169 33.0513 23.4169H32.6721V25.2057Z" fill="white"/>
<path d="M35.7966 25.7559C35.5831 25.7559 35.3985 25.7106 35.2428 25.6203C35.088 25.5289 34.9685 25.402 34.8843 25.2395C34.8 25.076 34.7578 24.8865 34.7578 24.671C34.7578 24.4537 34.8 24.2637 34.8843 24.1012C34.9685 23.9378 35.088 23.8108 35.2428 23.7204C35.3985 23.6291 35.5831 23.5835 35.7966 23.5835C36.0099 23.5835 36.1941 23.6291 36.3489 23.7204C36.5046 23.8108 36.6246 23.9378 36.7089 24.1012C36.7931 24.2637 36.8352 24.4537 36.8352 24.671C36.8352 24.8865 36.7931 25.076 36.7089 25.2395C36.6246 25.402 36.5046 25.5289 36.3489 25.6203C36.1941 25.7106 36.0099 25.7559 35.7966 25.7559ZM35.7993 25.3038C35.8964 25.3038 35.9775 25.2765 36.0425 25.2216C36.1075 25.166 36.1565 25.0902 36.1895 24.9943C36.2234 24.8984 36.2403 24.7893 36.2403 24.6669C36.2403 24.5445 36.2234 24.4354 36.1895 24.3396C36.1565 24.2436 36.1075 24.1679 36.0425 24.1122C35.9775 24.0565 35.8964 24.0286 35.7993 24.0286C35.7012 24.0286 35.6188 24.0565 35.552 24.1122C35.4861 24.1679 35.4361 24.2436 35.4022 24.3396C35.3692 24.4354 35.3527 24.5445 35.3527 24.6669C35.3527 24.7893 35.3692 24.8984 35.4022 24.9943C35.4361 25.0902 35.4861 25.166 35.552 25.2216C35.6188 25.2765 35.7012 25.3038 35.7993 25.3038Z" fill="white"/>
<path d="M38.1296 25.7559C37.9133 25.7559 37.7274 25.7102 37.5717 25.6188C37.4169 25.5267 37.2978 25.3988 37.2145 25.2354C37.1321 25.0719 37.0908 24.8838 37.0908 24.671C37.0908 24.4555 37.1325 24.2665 37.2158 24.104C37.3001 23.9405 37.4196 23.8131 37.5744 23.7218C37.7292 23.6296 37.9133 23.5835 38.1268 23.5835C38.3109 23.5835 38.4721 23.6168 38.6104 23.6835C38.7488 23.7501 38.8582 23.8437 38.9388 23.9643C39.0194 24.0848 39.0638 24.2263 39.0721 24.3888H38.5197C38.5042 24.2838 38.4629 24.1994 38.3961 24.1355C38.3301 24.0706 38.2436 24.0382 38.1364 24.0382C38.0457 24.0382 37.9665 24.0629 37.8987 24.1122C37.8318 24.1606 37.7796 24.2313 37.742 24.3245C37.7045 24.4176 37.6857 24.5304 37.6857 24.6628C37.6857 24.7971 37.7041 24.9112 37.7407 25.0053C37.7783 25.0993 37.8309 25.1709 37.8987 25.2203C37.9665 25.2696 38.0457 25.2942 38.1364 25.2942C38.2033 25.2942 38.2633 25.2806 38.3164 25.2531C38.3705 25.2258 38.4149 25.186 38.4497 25.134C38.4854 25.081 38.5088 25.0176 38.5197 24.9436H39.0721C39.0629 25.1043 39.0189 25.2459 38.9402 25.3682C38.8623 25.4897 38.7547 25.5846 38.6173 25.6531C38.4799 25.7216 38.3173 25.7559 38.1296 25.7559Z" fill="white"/>
<path d="M40.7616 24.8185V23.6104H41.3469V25.7143H40.785V25.3321H40.7629C40.7153 25.4554 40.6361 25.5544 40.5253 25.6294C40.4154 25.7042 40.2811 25.7416 40.1227 25.7416C39.9817 25.7416 39.8575 25.7097 39.7504 25.6458C39.6432 25.5818 39.5594 25.491 39.499 25.3732C39.4394 25.2554 39.4092 25.1143 39.4082 24.9499V23.6104H39.9936V24.8458C39.9945 24.97 40.0279 25.0682 40.0939 25.1404C40.1598 25.2125 40.2482 25.2485 40.3591 25.2485C40.4296 25.2485 40.4955 25.2325 40.5569 25.2006C40.6183 25.1677 40.6677 25.1194 40.7053 25.0554C40.7437 24.9915 40.7625 24.9125 40.7616 24.8185Z" fill="white"/>
<path d="M41.7773 25.7148V23.6109H42.3351V23.982H42.3599C42.4038 23.8588 42.4772 23.7615 42.5797 23.6903C42.6823 23.6191 42.8051 23.5835 42.9479 23.5835C43.0927 23.5835 43.2158 23.6196 43.3175 23.6916C43.4192 23.7629 43.487 23.8597 43.5209 23.982H43.5428C43.5859 23.8615 43.6637 23.7652 43.7765 23.6931C43.89 23.62 44.0242 23.5835 44.179 23.5835C44.3759 23.5835 44.5358 23.646 44.6585 23.7711C44.7822 23.8953 44.844 24.0715 44.844 24.2998V25.7148H44.2601V24.4149C44.2601 24.298 44.2289 24.2103 44.1666 24.1519C44.1044 24.0935 44.0265 24.0642 43.9331 24.0642C43.8268 24.0642 43.7439 24.098 43.6844 24.1656C43.6248 24.2322 43.595 24.3204 43.595 24.4299V25.7148H43.0277V24.4026C43.0277 24.2994 42.9979 24.2172 42.9383 24.156C42.8797 24.0948 42.8023 24.0642 42.7061 24.0642C42.6411 24.0642 42.5825 24.0807 42.5303 24.1135C42.479 24.1455 42.4382 24.1907 42.4079 24.2492C42.3777 24.3067 42.3626 24.3743 42.3626 24.4518V25.7148H41.7773Z" fill="white"/>
<path d="M46.2295 25.7559C46.0125 25.7559 45.8256 25.712 45.669 25.6244C45.5133 25.5358 45.3933 25.4107 45.309 25.249C45.2248 25.0865 45.1826 24.8943 45.1826 24.6724C45.1826 24.456 45.2248 24.2661 45.309 24.1026C45.3933 23.9391 45.5119 23.8118 45.6649 23.7204C45.8188 23.6291 45.9992 23.5835 46.2062 23.5835C46.3454 23.5835 46.475 23.6058 46.595 23.6506C46.7159 23.6944 46.8213 23.7606 46.9111 23.8492C47.0017 23.9378 47.0722 24.0492 47.1226 24.1834C47.173 24.3167 47.1982 24.4728 47.1982 24.6519V24.8121H45.4162V24.4505H46.6472C46.6472 24.3665 46.6289 24.2921 46.5922 24.2272C46.5556 24.1624 46.5048 24.1117 46.4398 24.0752C46.3756 24.0378 46.301 24.019 46.2158 24.019C46.1269 24.019 46.0482 24.0396 45.9795 24.0807C45.9117 24.1209 45.8586 24.1752 45.8201 24.2436C45.7816 24.3112 45.7619 24.3866 45.761 24.4697V24.8135C45.761 24.9176 45.7803 25.0075 45.8188 25.0833C45.8581 25.1591 45.9136 25.2175 45.985 25.2586C46.0564 25.2997 46.1412 25.3203 46.2391 25.3203C46.3042 25.3203 46.3637 25.3111 46.4178 25.2929C46.4719 25.2746 46.5181 25.2472 46.5565 25.2107C46.595 25.1742 46.6243 25.1294 46.6445 25.0764L47.1859 25.1121C47.1583 25.2417 47.102 25.355 47.0168 25.4517C46.9326 25.5477 46.8235 25.6225 46.6898 25.6764C46.557 25.7294 46.4036 25.7559 46.2295 25.7559Z" fill="white"/>
<path d="M48.1263 24.4984V25.7148H47.541V23.6109H48.0989V23.982H48.1236C48.1703 23.8597 48.2486 23.7629 48.3585 23.6916C48.4685 23.6196 48.6017 23.5835 48.7583 23.5835C48.9049 23.5835 49.0327 23.6154 49.1417 23.6793C49.2507 23.7432 49.3355 23.8346 49.3959 23.9533C49.4564 24.0711 49.4866 24.2117 49.4866 24.3752V25.7148H48.9013V24.4793C48.9022 24.3505 48.8692 24.2501 48.8024 24.1779C48.7355 24.1049 48.6434 24.0684 48.5261 24.0684C48.4474 24.0684 48.3778 24.0852 48.3173 24.1191C48.2578 24.1528 48.2111 24.2021 48.1772 24.267C48.1442 24.3309 48.1273 24.408 48.1263 24.4984Z" fill="white"/>
<path d="M51.0317 23.6105V24.0488H49.7607V23.6105H51.0317ZM50.0493 23.1064H50.6346V25.0679C50.6346 25.1218 50.6428 25.1638 50.6593 25.1939C50.6758 25.2232 50.6987 25.2437 50.728 25.2556C50.7582 25.2674 50.793 25.2733 50.8324 25.2733C50.8599 25.2733 50.8874 25.2711 50.9149 25.2665C50.9424 25.261 50.9634 25.2569 50.9781 25.2542L51.0702 25.6884C51.0408 25.6975 50.9996 25.708 50.9465 25.7199C50.8933 25.7326 50.8287 25.7404 50.7528 25.7431C50.6117 25.7486 50.488 25.7299 50.3818 25.687C50.2764 25.6441 50.1945 25.5775 50.1358 25.487C50.0772 25.3966 50.0484 25.2825 50.0493 25.1446V23.1064Z" fill="white"/>
<path d="M52.8754 25.7139L52.0703 22.9087H52.7202L53.1859 24.8579H53.2093L53.7232 22.9087H54.2797L54.7921 24.8619H54.8169L55.2826 22.9087H55.9325L55.1274 25.7139H54.5476L54.0117 23.8799H53.9897L53.4553 25.7139H52.8754Z" fill="white"/>
<path d="M56.5767 25.7545C56.4421 25.7545 56.3221 25.7312 56.2168 25.6846C56.1114 25.6371 56.0281 25.5673 55.9667 25.4751C55.9062 25.3819 55.876 25.266 55.876 25.1271C55.876 25.0103 55.8975 24.9121 55.9405 24.8327C55.9836 24.7532 56.0423 24.6893 56.1164 24.6409C56.1907 24.5925 56.2749 24.5559 56.3693 24.5313C56.4645 24.5067 56.5643 24.4893 56.6688 24.4793C56.7915 24.4665 56.8904 24.4546 56.9656 24.4437C57.0406 24.4318 57.0952 24.4144 57.1291 24.3916C57.163 24.3687 57.1799 24.335 57.1799 24.2902V24.282C57.1799 24.1953 57.1524 24.1281 57.0974 24.0807C57.0434 24.0332 56.9665 24.0094 56.8667 24.0094C56.7613 24.0094 56.6775 24.0327 56.6152 24.0793C56.5529 24.125 56.5117 24.1825 56.4916 24.2519L55.9502 24.2081C55.9777 24.0802 56.0318 23.9697 56.1123 23.8766C56.1929 23.7825 56.2969 23.7104 56.4242 23.6601C56.5525 23.6091 56.7008 23.5835 56.8694 23.5835C56.9867 23.5835 57.0989 23.5971 57.206 23.6246C57.3141 23.652 57.4098 23.6944 57.4931 23.7519C57.5774 23.8095 57.6438 23.8834 57.6924 23.9739C57.7409 24.0633 57.7652 24.1706 57.7652 24.2957V25.7148H57.2102V25.423H57.1936C57.1597 25.4887 57.1144 25.5468 57.0576 25.5969C57.0008 25.6463 56.9326 25.6851 56.8529 25.7134C56.7732 25.7408 56.6812 25.7545 56.5767 25.7545ZM56.7443 25.3518C56.8304 25.3518 56.9065 25.3349 56.9724 25.3011C57.0384 25.2664 57.0902 25.2198 57.1277 25.1614C57.1652 25.1029 57.1841 25.0368 57.1841 24.9628V24.7395C57.1657 24.7514 57.1405 24.7623 57.1085 24.7724C57.0773 24.7815 57.0421 24.7902 57.0026 24.7984C56.9632 24.8057 56.9239 24.8126 56.8845 24.819C56.8451 24.8244 56.8093 24.8295 56.7773 24.834C56.7086 24.8441 56.6486 24.8601 56.5973 24.882C56.546 24.9039 56.5062 24.9336 56.4778 24.971C56.4494 25.0075 56.4352 25.0532 56.4352 25.1079C56.4352 25.1874 56.4641 25.2481 56.5218 25.2901C56.5804 25.3312 56.6546 25.3518 56.7443 25.3518Z" fill="white"/>
<path d="M58.7651 22.9087V25.7139H58.1797V22.9087H58.7651Z" fill="white"/>
<path d="M59.7806 22.9087V25.7139H59.1953V22.9087H59.7806Z" fill="white"/>
<path d="M61.173 25.7559C60.9559 25.7559 60.769 25.712 60.6124 25.6244C60.4567 25.5358 60.3367 25.4107 60.2524 25.249C60.1681 25.0865 60.126 24.8943 60.126 24.6724C60.126 24.456 60.1681 24.2661 60.2524 24.1026C60.3367 23.9391 60.4553 23.8118 60.6082 23.7204C60.7621 23.6291 60.9426 23.5835 61.1496 23.5835C61.2888 23.5835 61.4185 23.6058 61.5385 23.6506C61.6594 23.6944 61.7647 23.7606 61.8544 23.8492C61.9451 23.9378 62.0157 24.0492 62.066 24.1834C62.1164 24.3167 62.1416 24.4728 62.1416 24.6519V24.8121H60.3595V24.4505H61.5907C61.5907 24.3665 61.5723 24.2921 61.5357 24.2272C61.499 24.1624 61.4482 24.1117 61.3831 24.0752C61.3191 24.0378 61.2444 24.019 61.1592 24.019C61.0704 24.019 60.9916 24.0396 60.9229 24.0807C60.8551 24.1209 60.802 24.1752 60.7635 24.2436C60.725 24.3112 60.7054 24.3866 60.7045 24.4697V24.8135C60.7045 24.9176 60.7237 25.0075 60.7621 25.0833C60.8015 25.1591 60.8569 25.2175 60.9284 25.2586C60.9998 25.2997 61.0846 25.3203 61.1826 25.3203C61.2476 25.3203 61.3072 25.3111 61.3612 25.2929C61.4152 25.2746 61.4615 25.2472 61.5 25.2107C61.5385 25.1742 61.5677 25.1294 61.5879 25.0764L62.1292 25.1121C62.1018 25.2417 62.0454 25.355 61.9603 25.4517C61.876 25.5477 61.767 25.6225 61.6333 25.6764C61.5004 25.7294 61.347 25.7559 61.173 25.7559Z" fill="white"/>
<path d="M63.6079 23.6105V24.0488H62.3369V23.6105H63.6079ZM62.6254 23.1064H63.2107V25.0679C63.2107 25.1218 63.219 25.1638 63.2355 25.1939C63.252 25.2232 63.2749 25.2437 63.3042 25.2556C63.3344 25.2674 63.3692 25.2733 63.4086 25.2733C63.4361 25.2733 63.4636 25.2711 63.4911 25.2665C63.5185 25.261 63.5396 25.2569 63.5542 25.2542L63.6463 25.6884C63.617 25.6975 63.5758 25.708 63.5227 25.7199C63.4696 25.7326 63.405 25.7404 63.3289 25.7431C63.1879 25.7486 63.0642 25.7299 62.958 25.687C62.8526 25.6441 62.7706 25.5775 62.712 25.487C62.6534 25.3966 62.6245 25.2825 62.6254 25.1446V23.1064Z" fill="white"/>
<path d="M65.9291 23.6105V24.0488H64.6582V23.6105H65.9291ZM64.9467 23.1064H65.532V25.0679C65.532 25.1218 65.5403 25.1638 65.5568 25.1939C65.5733 25.2232 65.5961 25.2437 65.6255 25.2556C65.6557 25.2674 65.6905 25.2733 65.7299 25.2733C65.7573 25.2733 65.7848 25.2711 65.8123 25.2665C65.8398 25.261 65.8609 25.2569 65.8755 25.2542L65.9676 25.6884C65.9383 25.6975 65.897 25.708 65.8439 25.7199C65.7908 25.7326 65.7262 25.7404 65.6502 25.7431C65.5091 25.7486 65.3855 25.7299 65.2792 25.687C65.1739 25.6441 65.0919 25.5775 65.0333 25.487C64.9746 25.3966 64.9458 25.2825 64.9467 25.1446V23.1064Z" fill="white"/>
<path d="M67.2028 25.7559C66.9894 25.7559 66.8048 25.7106 66.6491 25.6203C66.4943 25.5289 66.3747 25.402 66.2905 25.2395C66.2062 25.076 66.1641 24.8865 66.1641 24.671C66.1641 24.4537 66.2062 24.2637 66.2905 24.1012C66.3747 23.9378 66.4943 23.8108 66.6491 23.7204C66.8048 23.6291 66.9894 23.5835 67.2028 23.5835C67.4162 23.5835 67.6003 23.6291 67.7551 23.7204C67.9108 23.8108 68.0308 23.9378 68.1151 24.1012C68.1993 24.2637 68.2415 24.4537 68.2415 24.671C68.2415 24.8865 68.1993 25.076 68.1151 25.2395C68.0308 25.402 67.9108 25.5289 67.7551 25.6203C67.6003 25.7106 67.4162 25.7559 67.2028 25.7559ZM67.2055 25.3038C67.3026 25.3038 67.3837 25.2765 67.4487 25.2216C67.5138 25.166 67.5627 25.0902 67.5957 24.9943C67.6296 24.8984 67.6466 24.7893 67.6466 24.6669C67.6466 24.5445 67.6296 24.4354 67.5957 24.3396C67.5627 24.2436 67.5138 24.1679 67.4487 24.1122C67.3837 24.0565 67.3026 24.0286 67.2055 24.0286C67.1076 24.0286 67.0251 24.0565 66.9582 24.1122C66.8922 24.1679 66.8424 24.2436 66.8085 24.3396C66.7755 24.4354 66.759 24.5445 66.759 24.6669C66.759 24.7893 66.7755 24.8984 66.8085 24.9943C66.8424 25.0902 66.8922 25.166 66.9582 25.2216C67.0251 25.2765 67.1076 25.3038 67.2055 25.3038Z" fill="white"/>
<path d="M69.4512 25.7139V22.9087H71.3472V23.3977H70.0461V24.0662H71.2497V24.5551H70.0461V25.2249H71.3527V25.7139H69.4512Z" fill="white"/>
<path d="M71.7705 25.7148V23.6109H72.3284V23.982H72.3531C72.3971 23.8588 72.4703 23.7615 72.5729 23.6903C72.6755 23.6191 72.7982 23.5835 72.9411 23.5835C73.0859 23.5835 73.2091 23.6196 73.3107 23.6916C73.4124 23.7629 73.4802 23.8597 73.5141 23.982H73.5361C73.5791 23.8615 73.657 23.7652 73.7696 23.6931C73.8832 23.62 74.0174 23.5835 74.1722 23.5835C74.3691 23.5835 74.529 23.646 74.6517 23.7711C74.7754 23.8953 74.8372 24.0715 74.8372 24.2998V25.7148H74.2532V24.4149C74.2532 24.298 74.2221 24.2103 74.1599 24.1519C74.0975 24.0935 74.0197 24.0642 73.9262 24.0642C73.82 24.0642 73.7371 24.098 73.6776 24.1656C73.6181 24.2322 73.5883 24.3204 73.5883 24.4299V25.7148H73.0208V24.4026C73.0208 24.2994 72.9911 24.2172 72.9315 24.156C72.8729 24.0948 72.7955 24.0642 72.6993 24.0642C72.6343 24.0642 72.5756 24.0807 72.5234 24.1135C72.4721 24.1455 72.4314 24.1907 72.4012 24.2492C72.371 24.3067 72.3558 24.3743 72.3558 24.4518V25.7148H71.7705Z" fill="white"/>
<path d="M75.2607 26.5037V23.6109H75.8375V23.9643H75.8637C75.8892 23.9076 75.9267 23.8501 75.9747 23.7917C76.0242 23.7323 76.0887 23.683 76.1675 23.6437C76.247 23.6036 76.346 23.5835 76.4645 23.5835C76.6182 23.5835 76.76 23.6236 76.8905 23.704C77.0202 23.7834 77.1245 23.9035 77.2017 24.0642C77.2797 24.2241 77.3187 24.4245 77.3187 24.6655C77.3187 24.9002 77.2805 25.0984 77.2047 25.26C77.1297 25.4207 77.027 25.5426 76.8972 25.6257C76.7682 25.7079 76.6235 25.749 76.463 25.749C76.349 25.749 76.253 25.7303 76.1727 25.6929C76.094 25.6554 76.0295 25.6083 75.9792 25.5518C75.929 25.4943 75.8907 25.4362 75.8637 25.3778H75.8457V26.5037H75.2607ZM75.8337 24.6628C75.8337 24.7879 75.851 24.897 75.8855 24.9902C75.9207 25.0833 75.971 25.1559 76.037 25.208C76.103 25.2591 76.1832 25.2846 76.2777 25.2846C76.373 25.2846 76.4532 25.2586 76.5192 25.2066C76.5852 25.1536 76.6347 25.0806 76.6692 24.9874C76.7037 24.8934 76.721 24.7851 76.721 24.6628C76.721 24.5414 76.7045 24.4345 76.67 24.3423C76.6362 24.2501 76.5867 24.1779 76.5207 24.1259C76.4547 24.0738 76.3737 24.0478 76.2777 24.0478C76.1825 24.0478 76.1015 24.0729 76.0355 24.1231C75.9702 24.1734 75.9207 24.2446 75.8855 24.3368C75.851 24.429 75.8337 24.5377 75.8337 24.6628Z" fill="white"/>
<path d="M78.6237 25.7559C78.4107 25.7559 78.2262 25.7106 78.0702 25.6203C77.9157 25.5289 77.7957 25.402 77.7117 25.2395C77.627 25.076 77.585 24.8865 77.585 24.671C77.585 24.4537 77.627 24.2637 77.7117 24.1012C77.7957 23.9378 77.9157 23.8108 78.0702 23.7204C78.2262 23.6291 78.4107 23.5835 78.6237 23.5835C78.8375 23.5835 79.0212 23.6291 79.1765 23.7204C79.3317 23.8108 79.4517 23.9378 79.5365 24.1012C79.6205 24.2637 79.6625 24.4537 79.6625 24.671C79.6625 24.8865 79.6205 25.076 79.5365 25.2395C79.4517 25.402 79.3317 25.5289 79.1765 25.6203C79.0212 25.7106 78.8375 25.7559 78.6237 25.7559ZM78.6267 25.3038C78.7235 25.3038 78.8045 25.2765 78.8697 25.2216C78.935 25.166 78.9837 25.0902 79.0167 24.9943C79.0505 24.8984 79.0677 24.7893 79.0677 24.6669C79.0677 24.5445 79.0505 24.4354 79.0167 24.3396C78.9837 24.2436 78.935 24.1679 78.8697 24.1122C78.8045 24.0565 78.7235 24.0286 78.6267 24.0286C78.5285 24.0286 78.446 24.0565 78.3792 24.1122C78.3132 24.1679 78.2637 24.2436 78.2292 24.3396C78.1962 24.4354 78.1797 24.5445 78.1797 24.6669C78.1797 24.7893 78.1962 24.8984 78.2292 24.9943C78.2637 25.0902 78.3132 25.166 78.3792 25.2216C78.446 25.2765 78.5285 25.3038 78.6267 25.3038Z" fill="white"/>
<path d="M80.3684 25.7143L79.7939 23.6104H80.3857L80.7127 25.0239H80.7322L81.0727 23.6104H81.6539L82.0004 25.0157H82.0184L82.3394 23.6104H82.9304L82.3574 25.7143H81.7379L81.3749 24.3911H81.3494L80.9864 25.7143H80.3684Z" fill="white"/>
<path d="M84.1134 25.7559C83.8959 25.7559 83.7092 25.712 83.5524 25.6244C83.3972 25.5358 83.2772 25.4107 83.1924 25.249C83.1084 25.0865 83.0664 24.8943 83.0664 24.6724C83.0664 24.456 83.1084 24.2661 83.1924 24.1026C83.2772 23.9391 83.3957 23.8118 83.5487 23.7204C83.7024 23.6291 83.8832 23.5835 84.0902 23.5835C84.2289 23.5835 84.3587 23.6058 84.4787 23.6506C84.5994 23.6944 84.7052 23.7606 84.7944 23.8492C84.8852 23.9378 84.9557 24.0492 85.0059 24.1834C85.0569 24.3167 85.0817 24.4728 85.0817 24.6519V24.8121H83.2997V24.4505H84.5312C84.5312 24.3665 84.5124 24.2921 84.4757 24.2272C84.4397 24.1624 84.3887 24.1117 84.3234 24.0752C84.2597 24.0378 84.1847 24.019 84.0992 24.019C84.0107 24.019 83.9319 24.0396 83.8629 24.0807C83.7954 24.1209 83.7422 24.1752 83.7039 24.2436C83.6657 24.3112 83.6454 24.3866 83.6447 24.4697V24.8135C83.6447 24.9176 83.6642 25.0075 83.7024 25.0833C83.7414 25.1591 83.7969 25.2175 83.8689 25.2586C83.9402 25.2997 84.0249 25.3203 84.1232 25.3203C84.1877 25.3203 84.2477 25.3111 84.3017 25.2929C84.3557 25.2746 84.4014 25.2472 84.4404 25.2107C84.4787 25.1742 84.5079 25.1294 84.5282 25.0764L85.0697 25.1121C85.0419 25.2417 84.9857 25.355 84.9002 25.4517C84.8162 25.5477 84.7074 25.6225 84.5732 25.6764C84.4404 25.7294 84.2874 25.7559 84.1134 25.7559Z" fill="white"/>
<path d="M85.4248 25.7141V23.6102H85.9926V23.9773H86.0143C86.0526 23.8467 86.1171 23.7481 86.2078 23.6815C86.2986 23.6139 86.4028 23.5801 86.5213 23.5801C86.5506 23.5801 86.5821 23.582 86.6158 23.5856C86.6496 23.5892 86.6796 23.5943 86.7051 23.6006V24.1184C86.6781 24.1102 86.6398 24.1029 86.5911 24.0965C86.5431 24.0901 86.4981 24.0869 86.4583 24.0869C86.3721 24.0869 86.2948 24.1056 86.2273 24.143C86.1606 24.1796 86.1073 24.2307 86.0676 24.2965C86.0293 24.3622 86.0098 24.438 86.0098 24.5238V25.7141H85.4248Z" fill="white"/>
<path d="M90.3199 23.8911H89.7176C89.7071 23.8134 89.6846 23.7445 89.6501 23.6842C89.6164 23.623 89.5729 23.571 89.5196 23.5281C89.4671 23.4852 89.4056 23.4523 89.3359 23.4294C89.2669 23.4066 89.1926 23.3952 89.1116 23.3952C88.9661 23.3952 88.8394 23.4313 88.7314 23.5034C88.6234 23.5746 88.5394 23.6787 88.4801 23.8157C88.4201 23.9518 88.3909 24.117 88.3909 24.3116C88.3909 24.5115 88.4201 24.6795 88.4801 24.8156C88.5401 24.9517 88.6249 25.0544 88.7329 25.1238C88.8409 25.1932 88.9654 25.2279 89.1079 25.2279C89.1874 25.2279 89.2609 25.2174 89.3291 25.1964C89.3974 25.1754 89.4589 25.1448 89.5114 25.1046C89.5646 25.0635 89.6089 25.0137 89.6434 24.9553C89.6794 24.8969 89.7041 24.8302 89.7176 24.7554L90.3199 24.7581C90.3041 24.8868 90.2651 25.011 90.2029 25.1307C90.1414 25.2494 90.0589 25.3557 89.9539 25.4498C89.8504 25.5429 89.7266 25.6169 89.5834 25.6717C89.4401 25.7256 89.2789 25.7525 89.0981 25.7525C88.8469 25.7525 88.6226 25.6959 88.4246 25.5827C88.2281 25.4694 88.0721 25.3055 87.9574 25.0909C87.8441 24.8763 87.7871 24.6165 87.7871 24.3116C87.7871 24.0057 87.8449 23.7454 87.9604 23.5308C88.0759 23.3163 88.2326 23.1528 88.4306 23.0405C88.6279 22.9272 88.8506 22.8706 89.0981 22.8706C89.2609 22.8706 89.4124 22.8934 89.5519 22.9391C89.6914 22.9848 89.8159 23.0514 89.9239 23.139C90.0319 23.2258 90.1196 23.3322 90.1879 23.4582C90.2561 23.5842 90.3004 23.7285 90.3199 23.8911Z" fill="white"/>
<path d="M90.6966 25.7144V23.6105H91.2823V25.7144H90.6966ZM90.9906 23.3393C90.9036 23.3393 90.8293 23.3105 90.7671 23.253C90.7056 23.1946 90.6748 23.1248 90.6748 23.0435C90.6748 22.9631 90.7056 22.8941 90.7671 22.8366C90.8293 22.7782 90.9036 22.749 90.9906 22.749C91.0776 22.749 91.1518 22.7782 91.2133 22.8366C91.2756 22.8941 91.3071 22.9631 91.3071 23.0435C91.3071 23.1248 91.2756 23.1946 91.2133 23.253C91.1518 23.3105 91.0776 23.3393 90.9906 23.3393Z" fill="white"/>
<path d="M92.8347 23.6105V24.0488H91.5635V23.6105H92.8347ZM91.8522 23.1064H92.4372V25.0679C92.4372 25.1218 92.4455 25.1638 92.462 25.1939C92.4785 25.2232 92.5017 25.2437 92.531 25.2556C92.561 25.2674 92.5962 25.2733 92.6352 25.2733C92.663 25.2733 92.69 25.2711 92.7177 25.2665C92.7455 25.261 92.7665 25.2569 92.7807 25.2542L92.873 25.6884C92.8437 25.6975 92.8025 25.708 92.7492 25.7199C92.696 25.7326 92.6315 25.7404 92.5557 25.7431C92.4147 25.7486 92.291 25.7299 92.1845 25.687C92.0795 25.6441 91.9977 25.5775 91.9385 25.487C91.88 25.3966 91.8515 25.2825 91.8522 25.1446V23.1064Z" fill="white"/>
<path d="M93.1778 25.7144V23.6105H93.7628V25.7144H93.1778ZM93.4718 23.3393C93.3848 23.3393 93.3098 23.3105 93.2475 23.253C93.186 23.1946 93.1553 23.1248 93.1553 23.0435C93.1553 22.9631 93.186 22.8941 93.2475 22.8366C93.3098 22.7782 93.3848 22.749 93.4718 22.749C93.5588 22.749 93.633 22.7782 93.6938 22.8366C93.756 22.8941 93.7875 22.9631 93.7875 23.0435C93.7875 23.1248 93.756 23.1946 93.6938 23.253C93.633 23.3105 93.5588 23.3393 93.4718 23.3393Z" fill="white"/>
<path d="M94.1816 25.7143V25.3663L95.2151 24.0911V24.076H94.2176V23.6104H95.9194V23.9898L94.9496 25.2335V25.2485H95.9554V25.7143H94.1816Z" fill="white"/>
<path d="M97.2657 25.7559C97.0482 25.7559 96.8615 25.712 96.7047 25.6244C96.5495 25.5358 96.4295 25.4107 96.3455 25.249C96.2607 25.0865 96.2188 24.8943 96.2188 24.6724C96.2188 24.456 96.2607 24.2661 96.3455 24.1026C96.4295 23.9391 96.548 23.8118 96.701 23.7204C96.8547 23.6291 97.0355 23.5835 97.2425 23.5835C97.3812 23.5835 97.511 23.6058 97.631 23.6506C97.7517 23.6944 97.8575 23.7606 97.9475 23.8492C98.0375 23.9378 98.1087 24.0492 98.159 24.1834C98.2092 24.3167 98.234 24.4728 98.234 24.6519V24.8121H96.452V24.4505H97.6835C97.6835 24.3665 97.6647 24.2921 97.6287 24.2272C97.592 24.1624 97.541 24.1117 97.4757 24.0752C97.412 24.0378 97.337 24.019 97.2522 24.019C97.163 24.019 97.0842 24.0396 97.0152 24.0807C96.9477 24.1209 96.8945 24.1752 96.8562 24.2436C96.818 24.3112 96.7977 24.3866 96.797 24.4697V24.8135C96.797 24.9176 96.8165 25.0075 96.8547 25.0833C96.8945 25.1591 96.95 25.2175 97.0212 25.2586C97.0925 25.2997 97.1772 25.3203 97.2755 25.3203C97.34 25.3203 97.4 25.3111 97.454 25.2929C97.508 25.2746 97.5545 25.2472 97.5927 25.2107C97.631 25.1742 97.6602 25.1294 97.6805 25.0764L98.222 25.1121C98.1942 25.2417 98.138 25.355 98.0532 25.4517C97.9685 25.5477 97.8597 25.6225 97.7262 25.6764C97.5935 25.7294 97.4397 25.7559 97.2657 25.7559Z" fill="white"/>
<path d="M99.1629 24.4984V25.7148H98.5771V23.6109H99.1352V23.982H99.1599C99.2064 23.8597 99.2851 23.7629 99.3946 23.6916C99.5049 23.6196 99.6376 23.5835 99.7944 23.5835C99.9414 23.5835 100.069 23.6154 100.178 23.6793C100.287 23.7432 100.372 23.8346 100.432 23.9533C100.493 24.0711 100.523 24.2117 100.523 24.3752V25.7148H99.9377V24.4793C99.9384 24.3505 99.9054 24.2501 99.8387 24.1779C99.7719 24.1049 99.6797 24.0684 99.5627 24.0684C99.4839 24.0684 99.4142 24.0852 99.3534 24.1191C99.2942 24.1528 99.2469 24.2021 99.2132 24.267C99.1802 24.3309 99.1637 24.408 99.1629 24.4984Z" fill="white"/>
<path d="M102.702 24.2108L102.166 24.2436C102.157 24.198 102.137 24.1569 102.107 24.1204C102.077 24.083 102.037 24.0533 101.987 24.0314C101.939 24.0085 101.881 23.9971 101.813 23.9971C101.723 23.9971 101.646 24.0163 101.584 24.0546C101.522 24.0921 101.49 24.1423 101.49 24.2053C101.49 24.2556 101.51 24.298 101.551 24.3327C101.591 24.3674 101.66 24.3953 101.758 24.4163L102.14 24.4929C102.345 24.5349 102.498 24.6025 102.599 24.6957C102.7 24.7888 102.75 24.9112 102.75 25.0628C102.75 25.2006 102.71 25.3216 102.628 25.4257C102.547 25.5298 102.437 25.6111 102.296 25.6695C102.155 25.7271 101.993 25.7559 101.81 25.7559C101.531 25.7559 101.309 25.6979 101.143 25.5819C100.978 25.465 100.881 25.3061 100.853 25.1052L101.429 25.0751C101.446 25.16 101.488 25.2249 101.555 25.2696C101.621 25.3134 101.708 25.3353 101.812 25.3353C101.915 25.3353 101.996 25.3157 102.059 25.2765C102.122 25.2363 102.155 25.1847 102.155 25.1217C102.155 25.0687 102.132 25.0254 102.088 24.9915C102.044 24.9568 101.976 24.9303 101.885 24.9121L101.519 24.8395C101.313 24.7984 101.159 24.7272 101.059 24.6258C100.959 24.5244 100.909 24.3953 100.909 24.2382C100.909 24.103 100.946 23.9866 101.019 23.8889C101.093 23.7912 101.197 23.7159 101.331 23.6629C101.465 23.61 101.623 23.5835 101.804 23.5835C102.07 23.5835 102.28 23.6396 102.433 23.7519C102.587 23.8643 102.677 24.0172 102.702 24.2108Z" fill="white"/>
</svg>
