<svg width="118" height="8" viewBox="0 0 118 8" fill="none" xmlns="http://www.w3.org/2000/svg">
<path d="M109.46 2.29552C106.972 2.12242 104.097 2.14657 101.237 2.13449C95.2172 2.11436 89.1896 2.24318 83.174 2.64574C79.6622 2.87923 76.1424 2.96377 72.6266 3.14492C65.9591 3.4871 59.2955 3.86148 52.6319 4.20366C49.1162 4.38481 45.5964 4.50156 42.0846 4.70284C36.073 5.04502 30.0614 5.41537 24.0618 5.94273C18.5662 6.42983 13.0705 6.87668 7.57486 7.3517C5.55099 7.52883 3.53113 7.75024 1.50726 7.92334C0.963294 7.96762 0.09935 8.20916 0.00735592 7.51675C-0.0926376 6.74786 0.851295 6.85252 1.35126 6.80019C5.32301 6.38957 9.29875 6.04739 13.2745 5.66899C17.9702 5.21812 22.6619 4.72297 27.3616 4.29222C31.4813 3.91381 35.605 3.55554 39.7328 3.26166C46.1044 2.81079 52.4759 2.40823 58.8515 2.0097C62.9793 1.75206 67.115 1.56285 71.2427 1.31729C76.8584 0.979135 82.466 0.544369 88.0856 0.274652C94.5772 -0.0353206 101.073 -0.172191 107.568 0.35114C110.756 0.60878 113.924 0.983163 117.08 1.47026C117.188 1.48637 117.3 1.48234 117.404 1.50649C117.68 1.57493 118.044 1.60714 117.996 1.9936C117.956 2.31565 117.612 2.27942 117.368 2.28344C116.132 2.29552 114.896 2.29149 113.66 2.29552C112.388 2.29552 111.116 2.29552 109.468 2.29552H109.46Z" fill="#FD5839"/>
</svg>
