<svg preserveAspectRatio="none" width="100%" height="100%" overflow="visible" style="display: block;" viewBox="0 0 43.8674 18.8061" fill="none" xmlns="http://www.w3.org/2000/svg">
<g id="Group">
<path id="Vector" d="M2.0174 0.244026C1.45725 0.244026 0.980252 0.440104 0.5864 0.827904C0.192548 1.22006 0 1.69065 0 2.25274C0 2.81483 0.196924 3.28542 0.5864 3.67758C0.975876 4.06538 1.45288 4.26146 2.0174 4.26146C2.58192 4.26146 3.05454 4.06538 3.44839 3.67758C3.83787 3.28978 4.0348 2.81483 4.0348 2.25274C4.0348 1.69065 3.83787 1.22006 3.44839 0.827904C3.05454 0.440104 2.58192 0.244026 2.0174 0.244026Z" fill="var(--fill-0, #131B31)"/>
<path id="Vector_2" d="M3.85967 5.55992H0.179342V18.8017H3.85967V5.55992Z" fill="var(--fill-0, #131B31)"/>
<path id="Vector_3" d="M18.9272 1.69542e-07H15.2468V7.10675H15.1593C14.7742 6.44444 14.2316 5.93464 13.5314 5.57298C12.8312 5.21133 11.991 5.03268 11.0151 5.03268C9.74605 5.03268 8.65639 5.3159 7.74615 5.88235C6.83592 6.4488 6.14886 7.25054 5.67187 8.28758C5.19924 9.32462 4.96293 10.5359 4.96293 11.9172C4.96293 13.2985 5.208 14.488 5.69375 15.5251C6.1795 16.5621 6.90156 17.3682 7.85556 17.9434C8.80955 18.5185 9.96485 18.8061 11.3258 18.8061C12.4461 18.8061 13.4045 18.5926 14.1966 18.1656C14.9887 17.7386 15.6188 17.1416 16.0914 16.3791H17.0236V18.5403H20.7476V14.9194H18.9315V1.69542e-07H18.9272ZM15.2512 12.5142C15.2512 13.4858 14.958 14.2484 14.376 14.7974C13.794 15.3508 13.0063 15.6253 12.0173 15.6253C10.8926 15.6253 10.0524 15.2941 9.49223 14.6318C8.93209 13.9695 8.65201 13.0632 8.65201 11.9172C8.65201 10.7712 8.93209 9.86492 9.49223 9.20261C10.0524 8.54031 10.897 8.20915 12.0173 8.20915C13.0063 8.20915 13.794 8.48366 14.376 9.03704C14.958 9.59041 15.2512 10.3486 15.2512 11.3203V12.5142Z" fill="var(--fill-0, #131B31)"/>
<path id="Vector_4" d="M26.2436 8.43104H29.2806V5.56394H26.1998V1.59008H22.6114V5.56394H20.2833V8.43104H22.5676V15.8907C22.5676 16.8755 22.8302 17.6075 23.3553 18.0868C23.8804 18.5661 24.6156 18.8058 25.5609 18.8058H29.5957V15.9387H26.2479V8.4354L26.2436 8.43104Z" fill="var(--fill-0, #131B31)"/>
<path id="Vector_5" d="M43.0009 8.25264C42.4233 7.22432 41.605 6.42693 40.5416 5.8692C39.4782 5.31146 38.2222 5.0326 36.7737 5.0326C35.3252 5.0326 34.0386 5.31146 32.9621 5.8692C31.8812 6.42693 31.0541 7.22432 30.4677 8.25264C29.8857 9.28096 29.5925 10.4966 29.5925 11.8953C29.5925 13.294 29.89 14.5271 30.4808 15.5598C31.0716 16.5925 31.9031 17.3899 32.9752 17.952C34.0474 18.5184 35.3077 18.8017 36.7518 18.8017C38.1959 18.8017 39.4606 18.5228 40.5284 17.9651C41.6006 17.4073 42.4233 16.6099 43.0009 15.5729C43.5786 14.5359 43.8674 13.3202 43.8674 11.9215C43.8674 10.5228 43.5786 9.28968 43.0009 8.257V8.25264ZM39.2987 14.6187C38.708 15.2897 37.859 15.6208 36.7518 15.6208C35.6447 15.6208 34.7694 15.2853 34.1699 14.6187C33.5704 13.9476 33.2728 13.0413 33.2728 11.8953C33.2728 10.7494 33.5704 9.84741 34.1699 9.19382C34.7694 8.54022 35.6272 8.21342 36.7518 8.21342C37.8765 8.21342 38.708 8.54022 39.2987 9.19382C39.8895 9.84741 40.1871 10.7494 40.1871 11.8953C40.1871 13.0413 39.8895 13.952 39.2987 14.6187Z" fill="var(--fill-0, #131B31)"/>
</g>
</svg>
