<svg width="370" height="15" viewBox="0 0 370 15" fill="none" xmlns="http://www.w3.org/2000/svg">
<path d="M343.223 4.30409C335.422 3.97953 326.405 4.02481 317.437 4.00217C298.562 3.96443 279.662 4.20597 260.8 4.96077C249.788 5.39856 238.752 5.55707 227.728 5.89673C206.821 6.53832 185.927 7.24028 165.032 7.88186C154.008 8.22152 142.972 8.44042 131.96 8.81782C113.11 9.45941 94.2604 10.1538 75.448 11.1426C58.2159 12.0559 40.9838 12.8938 23.7517 13.7844C17.4056 14.1166 11.0722 14.5317 4.72615 14.8563C3.0205 14.9393 0.311521 15.3922 0.0230652 14.0939C-0.290474 12.6522 2.66932 12.8485 4.23701 12.7503C16.6908 11.9804 29.1571 11.3389 41.6234 10.6293C56.3472 9.78397 71.0585 8.85556 85.7948 8.04792C98.7126 7.3384 111.643 6.66663 124.586 6.11562C144.565 5.27024 164.543 4.51544 184.534 3.76818C197.477 3.2851 210.445 2.93035 223.388 2.46991C240.997 1.83588 258.58 1.02069 276.201 0.514973C296.556 -0.0662261 316.923 -0.322858 337.291 0.658388C347.286 1.14146 357.219 1.84343 367.115 2.75674C367.453 2.78694 367.804 2.77939 368.13 2.82467C368.996 2.95299 370.137 3.01338 369.987 3.73799C369.861 4.34184 368.783 4.2739 368.017 4.28145C364.142 4.3041 360.267 4.29655 356.392 4.30409C352.403 4.30409 348.415 4.30409 343.248 4.30409H343.223Z" fill="#00E59E"/>
</svg>
