<svg width="54" height="54" viewBox="0 0 54 54" fill="none" xmlns="http://www.w3.org/2000/svg">
<rect width="53.0747" height="53.0747" rx="26.5374" fill="#FCEDED"/>
<path d="M24.5391 26.5371H28.5391" stroke="#C53637" stroke-width="1.45833" stroke-linecap="round" stroke-linejoin="round"/>
<path d="M24.5391 22.5371H28.5391" stroke="#C53637" stroke-width="1.45833" stroke-linecap="round" stroke-linejoin="round"/>
<path d="M28.5391 35.5371V32.5371C28.5391 32.0067 28.3283 31.498 27.9533 31.1229C27.5782 30.7478 27.0695 30.5371 26.5391 30.5371C26.0086 30.5371 25.4999 30.7478 25.1248 31.1229C24.7498 31.498 24.5391 32.0067 24.5391 32.5371V35.5371" stroke="#C53637" stroke-width="1.45833" stroke-linecap="round" stroke-linejoin="round"/>
<path d="M20.5391 24.5371H18.5391C18.0086 24.5371 17.4999 24.7478 17.1248 25.1229C16.7498 25.498 16.5391 26.0067 16.5391 26.5371V33.5371C16.5391 34.0675 16.7498 34.5762 17.1248 34.9513C17.4999 35.3264 18.0086 35.5371 18.5391 35.5371H34.5391C35.0695 35.5371 35.5782 35.3264 35.9533 34.9513C36.3283 34.5762 36.5391 34.0675 36.5391 33.5371V23.5371C36.5391 23.0067 36.3283 22.498 35.9533 22.1229C35.5782 21.7478 35.0695 21.5371 34.5391 21.5371H32.5391" stroke="#C53637" stroke-width="1.45833" stroke-linecap="round" stroke-linejoin="round"/>
<path d="M20.5391 35.5371V19.5371C20.5391 19.0067 20.7498 18.498 21.1248 18.1229C21.4999 17.7478 22.0086 17.5371 22.5391 17.5371H30.5391C31.0695 17.5371 31.5782 17.7478 31.9533 18.1229C32.3283 18.498 32.5391 19.0067 32.5391 19.5371V35.5371" stroke="#C53637" stroke-width="1.45833" stroke-linecap="round" stroke-linejoin="round"/>
</svg>
