<svg width="54" height="54" viewBox="0 0 54 54" fill="none" xmlns="http://www.w3.org/2000/svg">
<rect width="53.0747" height="53.0747" rx="26.5374" fill="#FCEDED"/>
<path d="M29.5391 26.5391H24.5391" stroke="#C53637" stroke-width="1.45833" stroke-linecap="round" stroke-linejoin="round"/>
<path d="M29.5391 22.5391H24.5391" stroke="#C53637" stroke-width="1.45833" stroke-linecap="round" stroke-linejoin="round"/>
<path d="M33.5391 31.5391V19.5391C33.5391 19.0086 33.3283 18.4999 32.9533 18.1248C32.5782 17.7498 32.0695 17.5391 31.5391 17.5391H18.5391" stroke="#C53637" stroke-width="1.45833" stroke-linecap="round" stroke-linejoin="round"/>
<path d="M22.5391 35.5391H34.5391C35.0695 35.5391 35.5782 35.3283 35.9533 34.9533C36.3283 34.5782 36.5391 34.0695 36.5391 33.5391V32.5391C36.5391 32.2738 36.4337 32.0195 36.2462 31.832C36.0586 31.6444 35.8043 31.5391 35.5391 31.5391H25.5391C25.2738 31.5391 25.0195 31.6444 24.832 31.832C24.6444 32.0195 24.5391 32.2738 24.5391 32.5391V33.5391C24.5391 34.0695 24.3283 34.5782 23.9533 34.9533C23.5782 35.3283 23.0695 35.5391 22.5391 35.5391ZM22.5391 35.5391C22.0086 35.5391 21.4999 35.3283 21.1248 34.9533C20.7498 34.5782 20.5391 34.0695 20.5391 33.5391V19.5391C20.5391 19.0086 20.3283 18.4999 19.9533 18.1248C19.5782 17.7498 19.0695 17.5391 18.5391 17.5391C18.0086 17.5391 17.4999 17.7498 17.1248 18.1248C16.7498 18.4999 16.5391 19.0086 16.5391 19.5391V21.5391C16.5391 21.8043 16.6444 22.0586 16.832 22.2462C17.0195 22.4337 17.2738 22.5391 17.5391 22.5391H20.5391" stroke="#C53637" stroke-width="1.45833" stroke-linecap="round" stroke-linejoin="round"/>
</svg>
