<svg width="54" height="54" viewBox="0 0 54 54" fill="none" xmlns="http://www.w3.org/2000/svg">
<rect width="53.0747" height="53.0747" rx="26.5374" fill="#FCEDED"/>
<path d="M35.5391 30.5371H31.5391C30.9868 30.5371 30.5391 30.9848 30.5391 31.5371V35.5371C30.5391 36.0894 30.9868 36.5371 31.5391 36.5371H35.5391C36.0913 36.5371 36.5391 36.0894 36.5391 35.5371V31.5371C36.5391 30.9848 36.0913 30.5371 35.5391 30.5371Z" stroke="#C53637" stroke-width="1.45833" stroke-linecap="round" stroke-linejoin="round"/>
<path d="M21.5391 30.5371H17.5391C16.9868 30.5371 16.5391 30.9848 16.5391 31.5371V35.5371C16.5391 36.0894 16.9868 36.5371 17.5391 36.5371H21.5391C22.0913 36.5371 22.5391 36.0894 22.5391 35.5371V31.5371C22.5391 30.9848 22.0913 30.5371 21.5391 30.5371Z" stroke="#C53637" stroke-width="1.45833" stroke-linecap="round" stroke-linejoin="round"/>
<path d="M28.5391 16.5371H24.5391C23.9868 16.5371 23.5391 16.9848 23.5391 17.5371V21.5371C23.5391 22.0894 23.9868 22.5371 24.5391 22.5371H28.5391C29.0913 22.5371 29.5391 22.0894 29.5391 21.5371V17.5371C29.5391 16.9848 29.0913 16.5371 28.5391 16.5371Z" stroke="#C53637" stroke-width="1.45833" stroke-linecap="round" stroke-linejoin="round"/>
<path d="M19.5391 30.5371V27.5371C19.5391 27.2719 19.6444 27.0175 19.832 26.83C20.0195 26.6425 20.2738 26.5371 20.5391 26.5371H32.5391C32.8043 26.5371 33.0586 26.6425 33.2462 26.83C33.4337 27.0175 33.5391 27.2719 33.5391 27.5371V30.5371" stroke="#C53637" stroke-width="1.45833" stroke-linecap="round" stroke-linejoin="round"/>
<path d="M26.5391 26.5371V22.5371" stroke="#C53637" stroke-width="1.45833" stroke-linecap="round" stroke-linejoin="round"/>
</svg>
