<svg width="54" height="54" viewBox="0 0 54 54" fill="none" xmlns="http://www.w3.org/2000/svg">
<rect width="53.0747" height="53.0747" rx="26.5374" fill="#FCEDED"/>
<path d="M18.5391 16.5391V36.5391L20.5391 35.5391L22.5391 36.5391L24.5391 35.5391L26.5391 36.5391L28.5391 35.5391L30.5391 36.5391L32.5391 35.5391L34.5391 36.5391V16.5391L32.5391 17.5391L30.5391 16.5391L28.5391 17.5391L26.5391 16.5391L24.5391 17.5391L22.5391 16.5391L20.5391 17.5391L18.5391 16.5391Z" stroke="#C53637" stroke-width="1.45833" stroke-linecap="round" stroke-linejoin="round"/>
<path d="M30.5391 22.5391H24.5391C24.0086 22.5391 23.4999 22.7498 23.1248 23.1248C22.7498 23.4999 22.5391 24.0086 22.5391 24.5391C22.5391 25.0695 22.7498 25.5782 23.1248 25.9533C23.4999 26.3283 24.0086 26.5391 24.5391 26.5391H28.5391C29.0695 26.5391 29.5782 26.7498 29.9533 27.1248C30.3283 27.4999 30.5391 28.0086 30.5391 28.5391C30.5391 29.0695 30.3283 29.5782 29.9533 29.9533C29.5782 30.3283 29.0695 30.5391 28.5391 30.5391H22.5391" stroke="#C53637" stroke-width="1.45833" stroke-linecap="round" stroke-linejoin="round"/>
<path d="M26.5391 32.0391V21.0391" stroke="#C53637" stroke-width="1.45833" stroke-linecap="round" stroke-linejoin="round"/>
</svg>
