<svg width="26" height="26" viewBox="0 0 26 26" fill="none" xmlns="http://www.w3.org/2000/svg">
<path d="M19.5 15.1665L23.8333 19.4998L19.5 23.8332" stroke="#0019FF" stroke-width="2" stroke-linecap="round" stroke-linejoin="round"/>
<path d="M19.5 2.1665L23.8333 6.49984L19.5 10.8332" stroke="#0019FF" stroke-width="2" stroke-linecap="round" stroke-linejoin="round"/>
<path d="M2.16666 19.5001H4.30407C5.00444 19.5049 5.69553 19.3398 6.31815 19.0191C6.94077 18.6983 7.47637 18.2315 7.87907 17.6584L13.7876 8.34177C14.1903 7.76874 14.7259 7.30185 15.3485 6.98111C15.9711 6.66037 16.6622 6.49532 17.3626 6.5001H23.8333" stroke="#0019FF" stroke-width="2" stroke-linecap="round" stroke-linejoin="round"/>
<path d="M2.16666 6.5001H4.30299C5.11057 6.49448 5.90365 6.71466 6.59276 7.13578C7.28187 7.5569 7.83959 8.16222 8.20299 8.88344" stroke="#0019FF" stroke-width="2" stroke-linecap="round" stroke-linejoin="round"/>
<path d="M23.8333 19.5H17.2889C16.5789 19.4928 15.8815 19.3111 15.2581 18.9711C14.6347 18.6311 14.1044 18.1431 13.7139 17.55L13.325 17.0625" stroke="#0019FF" stroke-width="2" stroke-linecap="round" stroke-linejoin="round"/>
</svg>
