<svg width="26" height="26" viewBox="0 0 26 26" fill="none" xmlns="http://www.w3.org/2000/svg">
<path d="M10.8333 13H15.1667" stroke="#0019FF" stroke-width="2" stroke-linecap="round" stroke-linejoin="round"/>
<path d="M10.8333 8.6665H15.1667" stroke="#0019FF" stroke-width="2" stroke-linecap="round" stroke-linejoin="round"/>
<path d="M15.1667 22.7502V19.5002C15.1667 18.9255 14.9384 18.3744 14.5321 17.9681C14.1257 17.5618 13.5746 17.3335 13 17.3335C12.4254 17.3335 11.8743 17.5618 11.4679 17.9681C11.0616 18.3744 10.8333 18.9255 10.8333 19.5002V22.7502" stroke="#0019FF" stroke-width="2" stroke-linecap="round" stroke-linejoin="round"/>
<path d="M6.49999 10.8335H4.33332C3.75869 10.8335 3.20759 11.0618 2.80126 11.4681C2.39493 11.8744 2.16666 12.4255 2.16666 13.0002V20.5835C2.16666 21.1581 2.39493 21.7092 2.80126 22.1156C3.20759 22.5219 3.75869 22.7502 4.33332 22.7502H21.6667C22.2413 22.7502 22.7924 22.5219 23.1987 22.1156C23.605 21.7092 23.8333 21.1581 23.8333 20.5835V9.75016C23.8333 9.17553 23.605 8.62443 23.1987 8.2181C22.7924 7.81177 22.2413 7.5835 21.6667 7.5835H19.5" stroke="#0019FF" stroke-width="2" stroke-linecap="round" stroke-linejoin="round"/>
<path d="M6.5 22.75V5.41667C6.5 4.84203 6.72827 4.29093 7.1346 3.8846C7.54093 3.47827 8.09203 3.25 8.66667 3.25H17.3333C17.908 3.25 18.4591 3.47827 18.8654 3.8846C19.2717 4.29093 19.5 4.84203 19.5 5.41667V22.75" stroke="#0019FF" stroke-width="2" stroke-linecap="round" stroke-linejoin="round"/>
</svg>
