<svg width="26" height="26" viewBox="0 0 26 26" fill="none" xmlns="http://www.w3.org/2000/svg">
<path d="M14.8893 19.2142C14.5641 20.2895 13.9657 21.2622 13.1526 22.0373C12.3395 22.8125 11.3393 23.3636 10.2496 23.6371C9.16 23.9105 8.0181 23.8968 6.93531 23.5974C5.85252 23.298 4.86582 22.7231 4.07144 21.9287C3.27706 21.1343 2.70213 20.1476 2.40273 19.0649C2.10332 17.9821 2.08967 16.8402 2.36309 15.7505C2.63652 14.6609 3.18769 13.6607 3.96284 12.8476C4.738 12.0344 5.71067 11.4361 6.78599 11.1108" stroke="#0019FF" stroke-width="2" stroke-linecap="round" stroke-linejoin="round"/>
<path d="M16.25 6.5H17.3333V10.8333" stroke="#0019FF" stroke-width="2" stroke-linecap="round" stroke-linejoin="round"/>
<path d="M6.64517 15.9987L7.58334 15.457L9.75001 19.2097" stroke="#0019FF" stroke-width="2" stroke-linecap="round" stroke-linejoin="round"/>
<path d="M17.3333 15.1665C20.9232 15.1665 23.8333 12.2564 23.8333 8.6665C23.8333 5.07665 20.9232 2.1665 17.3333 2.1665C13.7435 2.1665 10.8333 5.07665 10.8333 8.6665C10.8333 12.2564 13.7435 15.1665 17.3333 15.1665Z" stroke="#0019FF" stroke-width="2" stroke-linecap="round" stroke-linejoin="round"/>
</svg>
